<?xml version="1.0" standalone="no"?>
<!DOCTYPE svg PUBLIC "-//W3C//DTD SVG 1.1//EN" "http://www.w3.org/Graphics/SVG/1.1/DTD/svg11.dtd" >
<svg xmlns="http://www.w3.org/2000/svg">
<metadata>Generated by IcoMoon</metadata>
<defs>
<font id="premium-solid-icons" horiz-adv-x="1024">
<font-face units-per-em="1024" ascent="1024" descent="0" />
<missing-glyph horiz-adv-x="1024" />
<glyph unicode="&#x20;" horiz-adv-x="194.56" d="" />
<glyph unicode="&#xe900;" glyph-name="3d-glasses" d="M1002.667 725.333h-981.333c-11.776 0-21.333-9.6-21.333-21.333v-384c0-11.733 9.557-21.333 21.333-21.333h362.667c6.229 0 12.16 2.688 16.171 7.467l111.829 130.432 111.829-130.475c4.053-4.693 9.941-7.424 16.171-7.424h362.667c11.733 0 21.333 9.6 21.333 21.333v384c0 11.733-9.6 21.333-21.333 21.333zM468.651 554.411c-0.043-4.267-1.365-8.32-3.755-11.819l-102.571-149.333c-3.968-5.803-10.581-9.259-17.579-9.259h-238.080c-11.776 0-21.333 9.6-21.333 21.333v213.333c0 11.776 9.557 21.333 21.333 21.333h341.333c5.675 0 11.179-2.304 15.147-6.272 4.011-4.053 6.229-9.557 6.187-15.232l-0.683-64.085zM938.667 405.333c0-11.733-9.6-21.333-21.333-21.333h-238.037c-7.040 0-13.611 3.456-17.579 9.259l-102.571 149.333c-2.389 3.499-3.712 7.68-3.755 11.819l-0.683 64c-0.085 5.675 2.176 11.221 6.144 15.189 4.011 4.053 9.515 6.272 15.189 6.272h341.333c11.733 0 21.333-9.557 21.333-21.333l-0.043-213.205zM128 426.667h205.525l92.544 134.741 0.384 35.925h-298.453zM597.973 561.408l92.544-134.741h205.483v170.667h-298.411z" />
<glyph unicode="&#xe901;" glyph-name="3d-glasses-2" d="M682.667 432.853h213.333v-170.667h-213.333v170.667zM954.667 560.853h-885.333c-38.229 0-69.333-31.061-69.333-69.333v-288c0-38.229 31.104-69.333 69.333-69.333h314.667c6.229 0 12.16 2.688 16.213 7.509l91.563 106.752c10.155 11.819 30.336 11.819 40.491 0.085l91.563-106.837c4.053-4.736 9.899-7.509 16.171-7.509h314.667c38.229 0 69.333 31.104 69.333 69.333v288c0 38.272-31.104 69.333-69.333 69.333zM384 240.853c0-11.733-9.557-21.333-21.333-21.333h-256c-11.776 0-21.333 9.6-21.333 21.333v213.333c0 11.733 9.557 21.333 21.333 21.333h256c11.776 0 21.333-9.6 21.333-21.333v-213.333zM938.667 240.853c0-11.733-9.557-21.333-21.333-21.333h-256c-11.733 0-21.333 9.6-21.333 21.333v213.333c0 11.733 9.6 21.333 21.333 21.333h256c11.776 0 21.333-9.6 21.333-21.333v-213.333zM128 432.853h213.333v-170.667h-213.333v170.667zM379.221 712.875c16.256-13.227 37.589-23.168 58.88-23.68 21.333-0.384 39.936 9.344 51.2 27.52 10.88 17.579 13.312 38.485 7.040 60.672-10.837 38.272-47.275 76.16-97.408 101.248-69.163 34.645-132.693-19.499-156.16-52.309l-173.184-222.891h246.827c20.693 35.925 45.184 78.336 62.805 109.44zM589.355 689.365c21.291 0.512 42.624 10.581 58.88 23.808 17.621-31.104 42.24-73.771 63.061-109.525h243.499c1.109 0 2.176-0.341 3.328-0.341l-20.736 26.624-152.192 195.84c-23.936 33.408-87.509 87.509-156.587 52.907-50.176-25.088-86.571-62.976-97.451-101.248-6.272-22.144-3.84-43.008 7.040-60.587 11.136-18.219 29.141-27.861 51.157-27.477z" />
<glyph unicode="&#xe902;" glyph-name="a-z" horiz-adv-x="1065" d="M284.501 834.517c-5.675 17.579-22.059 29.483-40.576 29.483-18.475 0-34.816-11.904-40.533-29.397l-201.301-618.667c-7.253-22.357 4.992-46.507 27.435-53.845 4.395-1.408 8.832-2.091 13.227-2.091 17.963 0 34.688 11.435 40.576 29.397l45.952 141.269h229.419l45.909-141.184c7.296-22.4 31.275-34.688 53.76-27.477 22.357 7.253 34.645 31.317 27.392 53.803l-201.259 618.709zM156.928 416l86.997 267.435 86.955-267.435h-173.952zM1021.867 245.333h-328.832l364.032 530.517c8.96 13.141 9.899 30.080 2.56 44.075s-21.931 22.741-37.76 22.741h-341.333c-23.552 0-42.667-19.072-42.667-42.667s19.115-42.667 42.667-42.667h260.352l-364.032-530.517c-8.96-13.141-9.941-29.995-2.645-43.989 7.424-14.080 21.973-22.827 37.803-22.827h409.856c23.595 0 42.667 19.072 42.667 42.667s-19.2 42.667-42.667 42.667zM624.896 430.677l85.333 82.731c8.192 8.021 12.971 19.115 12.971 30.72 0 11.563-4.651 22.528-12.971 30.677l-85.333 82.688c-16.939 16.427-43.947 16-60.331-0.939-16.427-16.896-15.957-43.861 0.896-60.331l9.771-9.387h-107.989c-23.552 0-42.667-19.072-42.667-42.667s19.115-42.667 42.667-42.667h107.989l-9.771-9.344c-16.896-16.427-17.323-43.435-0.896-60.373 8.32-8.661 19.499-13.056 30.635-13.056 10.667-0.085 21.419 3.925 29.696 11.947z" />
<glyph unicode="&#xe903;" glyph-name="aa" d="M386.517 930.944c-6.187 20.395-26.368 32.043-46.891 29.056-20.48 2.987-40.704-8.619-46.891-29.056l-245.803-812.373c-6.827-22.571 5.931-46.421 28.459-53.248 4.139-1.237 8.277-1.835 12.373-1.835 18.304 0 35.243 11.904 40.832 30.336l48.427 160.085h325.163l48.427-160.085c5.589-18.432 22.485-30.336 40.832-30.336 4.096 0 8.235 0.597 12.373 1.835 22.528 6.784 35.328 30.677 28.459 53.248l-245.76 812.373zM202.88 339.328l136.747 451.925 136.747-451.925h-273.493zM976.853 463.829c-12.075 37.803-37.077 65.024-72.235 78.72-98.048 38.144-248.405-45.141-265.216-54.699-20.437-11.691-27.563-37.717-15.872-58.112 11.648-20.48 37.717-27.563 58.155-16 42.24 24.021 144.725 67.755 192 49.28 6.912-2.688 14.507-7.168 19.925-19.755v-50.219c-64.811-0.085-167.339-9.771-225.835-63.445-30.080-27.605-45.696-64.384-45.227-105.941 0.725-55.595 29.696-98.987 81.792-122.155 28.672-12.757 61.909-18.347 95.744-18.347 35.328 0 71.253 6.144 103.296 16.683 7.893-9.813 19.371-16.512 32.896-16.512 23.595 0 42.667 19.072 42.667 42.667v324.864c-0.043 4.395-0.725 8.789-2.091 12.971zM893.568 187.307c-45.312-19.029-112.896-26.283-154.581-7.808-21.333 9.429-30.933 23.424-31.147 45.269-0.213 17.621 5.163 30.592 17.579 41.899 35.243 32.427 112.853 40.32 168.149 40.747v-120.107z" />
<glyph unicode="&#xe904;" glyph-name="add" d="M512 1002.667c-270.549 0-490.667-220.117-490.667-490.667s220.117-490.667 490.667-490.667 490.667 220.117 490.667 490.667-220.117 490.667-490.667 490.667zM704 490.667h-170.667v-170.667c0-11.733-9.557-21.333-21.333-21.333s-21.333 9.6-21.333 21.333v170.667h-170.667c-11.776 0-21.333 9.557-21.333 21.333s9.557 21.333 21.333 21.333h170.667v170.667c0 11.776 9.557 21.333 21.333 21.333s21.333-9.557 21.333-21.333v-170.667h170.667c11.733 0 21.333-9.557 21.333-21.333s-9.6-21.333-21.333-21.333z" />
<glyph unicode="&#xe905;" glyph-name="add-bag" d="M853.333 213.333v85.333c0 11.733-9.6 21.333-21.333 21.333s-21.333-9.6-21.333-21.333v-85.333h-85.333c-11.733 0-21.333-9.6-21.333-21.333s9.6-21.333 21.333-21.333h85.333v-85.333c0-11.733 9.6-21.333 21.333-21.333s21.333 9.6 21.333 21.333v85.333h85.333c11.733 0 21.333 9.6 21.333 21.333s-9.6 21.333-21.333 21.333h-85.333zM341.333 853.333c0 88.405 75.008 128 149.333 128h42.667c74.325 0 149.333-39.552 149.333-128v-128h42.667v128c0 100.48-79.019 170.667-192 170.667h-42.667c-113.024 0-192-70.144-192-170.667v-128h42.667v128zM1022.933 28.075l-39.467 118.315c-11.563-11.392-27.349-18.389-44.8-18.389h-42.667v-42.667c0-35.328-28.715-64-64-64s-64 28.672-64 64v42.667h-42.667c-35.285 0-64 28.672-64 64 0 35.243 28.715 64 64 64h42.667v42.667c0 35.243 28.715 64 64 64s64-28.757 64-64v-42.667h42.667c2.901 0 5.717-0.512 8.533-0.896l-137.685 412.971c-2.859 8.704-11.008 14.592-20.181 14.592h-64v-128c0-11.776-9.6-21.333-21.333-21.333-11.776 0-21.333 9.557-21.333 21.333v128h-341.333v-128c0-11.776-9.6-21.333-21.333-21.333-11.776 0-21.333 9.515-21.333 21.333v128h-64c-9.173 0-17.323-5.888-20.267-14.592l-213.333-640c-2.176-6.485-1.024-13.653 2.901-19.243 4.053-5.589 10.496-8.832 17.365-8.832h981.333c6.827 0 13.312 3.243 17.323 8.832s5.077 12.757 2.944 19.243z" />
<glyph unicode="&#xe906;" glyph-name="add-basket" d="M981.333 501.333h-149.333c0 5.461-2.091 10.923-6.229 15.104l-170.667 170.667c-8.277 8.32-21.888 8.32-30.165 0-8.277-8.277-8.277-21.845 0-30.165l155.563-155.563h-536.96l155.563 155.563c8.32 8.32 8.32 21.888 0 30.165-8.32 8.32-21.845 8.32-30.165 0l-170.667-170.667c-4.224-4.181-6.272-9.643-6.272-15.104h-149.333c-11.776 0-21.333-9.6-21.333-21.333s9.557-21.333 21.333-21.333h64.427c0-1.451-0.256-2.901 0.043-4.437l85.333-405.333c2.091-9.813 10.795-16.896 20.864-16.896h597.333c10.069 0 18.731 7.083 20.821 16.896l85.333 405.333c0.341 1.451 0.085 2.901 0.085 4.437h64.427c11.733 0 21.333 9.6 21.333 21.333s-9.557 21.333-21.333 21.333zM725.333 842.667h85.333v-85.333c0-11.733 9.6-21.333 21.333-21.333 11.776 0 21.333 9.6 21.333 21.333v85.333h85.333c11.776 0 21.333 9.6 21.333 21.333s-9.557 21.333-21.333 21.333h-85.333v85.333c0 11.733-9.557 21.333-21.333 21.333-11.733 0-21.333-9.6-21.333-21.333v-85.333h-85.333c-11.733 0-21.333-9.6-21.333-21.333s9.6-21.333 21.333-21.333z" />
<glyph unicode="&#xe907;" glyph-name="add-cart" d="M725.333 842.667h85.333v-85.333c0-11.733 9.6-21.333 21.333-21.333 11.776 0 21.333 9.6 21.333 21.333v85.333h85.333c11.776 0 21.333 9.6 21.333 21.333s-9.557 21.333-21.333 21.333h-85.333v85.333c0 11.733-9.557 21.333-21.333 21.333-11.733 0-21.333-9.6-21.333-21.333v-85.333h-85.333c-11.733 0-21.333-9.6-21.333-21.333s9.6-21.333 21.333-21.333zM978.389 576.213c-3.328 5.632-9.003 9.387-15.445 10.24l-726.059 99.115-22.613 58.112c-3.2 8.149-11.093 13.568-19.883 13.568h-130.389c-11.776 0-21.333-9.557-21.333-21.333v-64c0-11.776 9.557-21.333 21.333-21.333s21.333 9.6 21.333 21.376v42.667h94.464l21.632-55.68c0.128-0.341 0.256-0.725 0.341-1.024l155.179-399.061c3.2-8.149 11.093-13.568 19.883-13.568h469.333c8.917 0 16.853 5.461 19.925 13.739l113.835 298.667c2.304 6.144 1.749 12.928-1.536 18.517zM583.083 126.805c0-52.36-42.446-94.805-94.805-94.805s-94.805 42.446-94.805 94.805c0 52.36 42.446 94.805 94.805 94.805s94.805-42.446 94.805-94.805zM829.653 126.805c0-52.36-42.446-94.805-94.805-94.805s-94.805 42.446-94.805 94.805c0 52.36 42.446 94.805 94.805 94.805s94.805-42.446 94.805-94.805z" />
<glyph unicode="&#xe908;" glyph-name="add-space-after-paragraph" d="M43.136 192c-8.235 0-16.597 2.432-23.936 7.339-19.499 13.269-24.576 39.765-11.349 59.264l85.035 125.355-85.035 125.355c-13.269 19.499-8.149 45.995 11.349 59.264s46.037 8.149 59.264-11.349l101.333-149.333c9.813-14.507 9.813-33.493 0-47.915l-101.333-149.333c-8.277-12.16-21.675-18.645-35.328-18.645zM980.907 746.667h-725.333c-23.552 0-42.667 19.115-42.667 42.667s19.115 42.667 42.667 42.667h725.333c23.509 0 42.667-19.115 42.667-42.667s-19.157-42.667-42.667-42.667zM554.24 618.667h-298.667c-23.552 0-42.667 19.115-42.667 42.667s19.115 42.667 42.667 42.667h298.667c23.509 0 42.667-19.115 42.667-42.667s-19.157-42.667-42.667-42.667zM810.24 490.667h-554.667c-23.552 0-42.667 19.115-42.667 42.667s19.115 42.667 42.667 42.667h554.667c23.509 0 42.667-19.115 42.667-42.667s-19.157-42.667-42.667-42.667zM298.24 362.667h-42.667c-23.552 0-42.667 19.115-42.667 42.667s19.115 42.667 42.667 42.667h42.667c23.552 0 42.667-19.115 42.667-42.667s-19.115-42.667-42.667-42.667zM468.907 362.667h-42.667c-23.552 0-42.667 19.115-42.667 42.667s19.115 42.667 42.667 42.667h42.667c23.552 0 42.667-19.115 42.667-42.667s-19.115-42.667-42.667-42.667zM639.573 362.667h-42.667c-23.595 0-42.667 19.115-42.667 42.667s19.072 42.667 42.667 42.667h42.667c23.509 0 42.667-19.115 42.667-42.667s-19.157-42.667-42.667-42.667zM810.24 362.667h-42.667c-23.595 0-42.667 19.115-42.667 42.667s19.072 42.667 42.667 42.667h42.667c23.509 0 42.667-19.115 42.667-42.667s-19.157-42.667-42.667-42.667zM980.907 362.667h-42.667c-23.595 0-42.667 19.115-42.667 42.667s19.072 42.667 42.667 42.667h42.667c23.509 0 42.667-19.115 42.667-42.667s-19.157-42.667-42.667-42.667zM298.24 234.667h-42.667c-23.552 0-42.667 19.115-42.667 42.667s19.115 42.667 42.667 42.667h42.667c23.552 0 42.667-19.115 42.667-42.667s-19.115-42.667-42.667-42.667zM468.907 234.667h-42.667c-23.552 0-42.667 19.115-42.667 42.667s19.115 42.667 42.667 42.667h42.667c23.552 0 42.667-19.115 42.667-42.667s-19.115-42.667-42.667-42.667zM639.573 234.667h-42.667c-23.595 0-42.667 19.115-42.667 42.667s19.072 42.667 42.667 42.667h42.667c23.509 0 42.667-19.115 42.667-42.667s-19.157-42.667-42.667-42.667zM810.24 234.667h-42.667c-23.595 0-42.667 19.115-42.667 42.667s19.072 42.667 42.667 42.667h42.667c23.509 0 42.667-19.115 42.667-42.667s-19.157-42.667-42.667-42.667zM980.907 234.667h-42.667c-23.595 0-42.667 19.115-42.667 42.667s19.072 42.667 42.667 42.667h42.667c23.509 0 42.667-19.115 42.667-42.667s-19.157-42.667-42.667-42.667z" />
<glyph unicode="&#xe909;" glyph-name="add-space-before-paragraph" d="M895.573 341.333h-554.667c-23.552 0-42.667 19.157-42.667 42.667 0 23.595 19.115 42.667 42.667 42.667h554.667c23.509 0 42.667-19.072 42.667-42.667 0-23.509-19.157-42.667-42.667-42.667zM596.907 213.333h-256c-23.552 0-42.667 19.157-42.667 42.667 0 23.595 19.115 42.667 42.667 42.667h256c23.509 0 42.667-19.072 42.667-42.667 0-23.509-19.157-42.667-42.667-42.667zM128.469 426.667c-8.235 0-16.597 2.432-23.936 7.339-19.499 13.269-24.576 39.765-11.349 59.264l85.035 125.397-85.035 125.355c-13.269 19.499-8.149 45.995 11.349 59.264s46.037 8.149 59.264-11.349l101.333-149.333c9.813-14.507 9.813-33.493 0-47.915l-101.333-149.333c-8.277-12.203-21.675-18.688-35.328-18.688zM383.573 597.333h-42.667c-23.552 0-42.667 19.115-42.667 42.667s19.115 42.667 42.667 42.667h42.667c23.552 0 42.667-19.115 42.667-42.667s-19.115-42.667-42.667-42.667zM554.24 597.333h-42.667c-23.552 0-42.667 19.115-42.667 42.667s19.115 42.667 42.667 42.667h42.667c23.509 0 42.667-19.115 42.667-42.667s-19.157-42.667-42.667-42.667zM724.907 597.333h-42.667c-23.595 0-42.667 19.115-42.667 42.667s19.072 42.667 42.667 42.667h42.667c23.509 0 42.667-19.115 42.667-42.667s-19.157-42.667-42.667-42.667zM895.573 597.333h-42.667c-23.595 0-42.667 19.115-42.667 42.667s19.072 42.667 42.667 42.667h42.667c23.509 0 42.667-19.115 42.667-42.667s-19.157-42.667-42.667-42.667zM383.573 469.333h-42.667c-23.552 0-42.667 19.157-42.667 42.667 0 23.552 19.115 42.667 42.667 42.667h42.667c23.552 0 42.667-19.115 42.667-42.667 0-23.509-19.115-42.667-42.667-42.667zM554.24 469.333h-42.667c-23.552 0-42.667 19.157-42.667 42.667 0 23.552 19.115 42.667 42.667 42.667h42.667c23.509 0 42.667-19.115 42.667-42.667 0-23.509-19.157-42.667-42.667-42.667zM724.907 469.333h-42.667c-23.595 0-42.667 19.157-42.667 42.667 0 23.552 19.072 42.667 42.667 42.667h42.667c23.509 0 42.667-19.115 42.667-42.667 0-23.509-19.157-42.667-42.667-42.667zM895.573 469.333h-42.667c-23.595 0-42.667 19.157-42.667 42.667 0 23.552 19.072 42.667 42.667 42.667h42.667c23.509 0 42.667-19.115 42.667-42.667 0-23.509-19.157-42.667-42.667-42.667z" />
<glyph unicode="&#xe90a;" glyph-name="add-user" d="M266.965 552.235c9.685-121.557 112.768-258.901 239.232-258.901 123.947 0 217.941 133.632 226.091 259.755 21.675 8.405 35.243 30.592 35.243 60.245v85.333c0 19.541 0 53.803-42.667 62.123v65.877c0 116.907-60.587 181.333-170.667 181.333-68.992 0-136.576-25.216-153.728-32.085-80.341-2.304-144.939-68.395-144.939-149.248v-72.32c-16.896-9.771-42.667-29.013-42.667-55.68v-85.333c0-29.525 25.643-53.077 54.101-61.099zM959.531 165.333c0 11.733-9.557 21.333-21.333 21.333h-85.333v85.333c0 11.733-9.557 21.333-21.333 21.333s-21.333-9.6-21.333-21.333v-85.333h-85.333c-11.776 0-21.333-9.6-21.333-21.333 0-11.776 9.557-21.333 21.333-21.333h85.333v-85.333c0-11.776 9.557-21.333 21.333-21.333s21.333 9.557 21.333 21.333v85.333h85.333c11.819 0 21.333 9.557 21.333 21.333zM767.531 101.333h-42.667c-35.285 0-64 28.715-64 64s28.715 64 64 64h42.667v40.619c-7.723 0.725-15.104 2.048-23.083 2.048h-53.163l-30.251 41.515c-43.008-38.272-95.787-62.848-154.837-62.848-56.064 0-107.477 21.589-150.699 55.637l-25.387-34.304h-53.248c-128.853 0-227.2-88.96-234.24-209.152-0.256-1.28-0.427-2.688-0.427-4.181v-21.333c0-11.776 9.557-21.333 21.333-21.333h720.64c-10.24 11.349-16.683 26.197-16.683 42.667l0.043 42.667zM980.864 54.869v3.797c0 1.493-0.128 2.944-0.427 4.437-1.024 16.64-4.395 32.512-8.917 47.829-9.728-5.973-21.077-9.6-33.28-9.6h-42.667v-42.667c0-16.469-6.357-31.317-16.64-42.667h80.64c11.776 0 21.333 9.557 21.333 21.333v5.589c0.597 1.92 0.896 3.925 0.896 6.016s-0.384 4.053-0.939 5.931z" />
<glyph unicode="&#xe90b;" glyph-name="add-user-star" horiz-adv-x="1317" d="M1230.507 203.051h-85.333v85.333c0 11.733-9.6 21.333-21.333 21.333-11.776 0-21.333-9.6-21.333-21.333v-85.333h-85.333c-11.776 0-21.333-9.6-21.333-21.333 0-11.691 9.557-21.333 21.333-21.333h85.333v-85.333c0-11.691 9.557-21.333 21.333-21.333 11.733 0 21.333 9.643 21.333 21.333v85.333h85.333c11.733 0 21.333 9.643 21.333 21.333 0 11.733-9.557 21.333-21.333 21.333zM787.584 231.68c-128.768 0-200.875 135.68-207.104 269.568-32.043 7.083-75.392 28.373-75.392 63.147v88.96c0 27.435 25.899 47.232 42.667 57.259v76.203c0 79.701 53.035 130.048 138.837 132.48 68.096 46.592 131.2 70.229 187.776 70.229 51.669 0 95.104-20.565 122.411-57.941 28.843-39.552 36.395-94.635 20.309-148.053v-66.304c42.667-8.576 42.667-43.733 42.667-63.872v-88.96c0-33.024-39.083-55.765-71.168-63.104-5.76-136.917-74.496-269.611-201.003-269.611zM355.541 567.893c-4.437 0-8.917 1.408-12.672 4.181l-115.157 85.205-115.072-82.773c-7.552-5.419-17.707-5.333-25.131 0.171s-10.496 15.189-7.509 24.021l43.563 128.171-114.176 77.227c-7.765 5.248-11.179 14.976-8.448 23.979 2.731 8.875 11.008 15.061 20.395 15.061h142.293l43.989 135.339c5.717 17.579 34.859 17.579 40.576 0l43.989-135.339h142.293c9.387 0 17.664-6.187 20.395-15.104 2.731-9.003-0.725-18.688-8.491-24.021l-114.219-76.8 43.648-131.2c2.944-8.832-0.171-18.56-7.723-24.021-3.755-2.773-8.149-4.096-12.544-4.096zM1315.755 77.312c-0.896 32.64-9.429 62.635-23.168 89.685-6.656-28.16-31.915-49.237-62.080-49.237h-42.667v-42.667c0-16.469-6.4-31.232-16.683-42.667h123.349c11.733 0 21.333 9.6 21.333 21.333v11.435c0.555 1.92 0.853 3.925 0.853 6.016s-0.341 4.139-0.939 6.101zM1059.84 75.051v42.667h-42.667c-35.328 0-64 28.715-64 64s28.672 64 64 64h42.667v42.667h-33.579l-33.749 46.251c-38.613-83.115-106.24-145.621-204.928-145.621-99.413 0-171.307 64.597-211.84 151.765l-38.699-52.395h-53.248c-133.931 0-231.68-88.619-234.624-211.627-0.043-0.555-0.043-1.067-0.043-1.707v-21.333c0-11.776 9.557-21.333 21.333-21.333h805.973c-10.155 11.264-16.597 26.197-16.597 42.667z" />
<glyph unicode="&#xe90c;" glyph-name="add-window" d="M1024 725.333v149.333c0 11.733-9.6 21.333-21.333 21.333h-981.333c-11.776 0-21.333-9.6-21.333-21.333v-149.333h1024zM320 810.667c11.776 0 21.333-9.6 21.333-21.333s-9.557-21.333-21.333-21.333-21.333 9.6-21.333 21.333 9.557 21.333 21.333 21.333zM234.667 810.667c11.776 0 21.333-9.6 21.333-21.333s-9.557-21.333-21.333-21.333-21.333 9.6-21.333 21.333 9.557 21.333 21.333 21.333zM149.333 810.667c11.776 0 21.333-9.6 21.333-21.333s-9.557-21.333-21.333-21.333-21.333 9.6-21.333 21.333 9.557 21.333 21.333 21.333zM896 384h-85.333v85.333c0 11.733-9.6 21.333-21.333 21.333s-21.333-9.6-21.333-21.333v-85.333h-85.333c-11.733 0-21.333-9.6-21.333-21.333s9.6-21.333 21.333-21.333h85.333v-85.333c0-11.733 9.6-21.333 21.333-21.333s21.333 9.6 21.333 21.333v85.333h85.333c11.733 0 21.333 9.6 21.333 21.333s-9.6 21.333-21.333 21.333zM0 682.667v-533.333c0-11.733 9.557-21.333 21.333-21.333h981.333c11.733 0 21.333 9.6 21.333 21.333v533.333h-1024zM896 298.667h-42.667v-42.667c0-35.285-28.715-64-64-64s-64 28.715-64 64v42.667h-42.667c-35.285 0-64 28.715-64 64s28.715 64 64 64h42.667v42.667c0 35.285 28.715 64 64 64s64-28.715 64-64v-42.667h42.667c35.285 0 64-28.715 64-64s-28.715-64-64-64z" />
<glyph unicode="&#xe90d;" glyph-name="address-book" d="M554.667 469.333c-98.773 0-204.032-56.576-212.736-213.333h425.515c-8.747 156.757-114.048 213.333-212.779 213.333zM128 1024h-64c-11.776 0-21.333-9.557-21.333-21.333v-981.333c0-11.733 9.557-21.333 21.333-21.333h64v1024zM853.333 1024h-682.667v-1024h725.333c47.104 0 85.333 38.229 85.333 85.333v810.667c0 70.571-57.429 128-128 128zM554.667 810.667c70.571 0 128-57.429 128-128s-57.429-128-128-128c-70.571 0-128 57.429-128 128s57.429 128 128 128zM790.187 213.333c-0.256 0-0.555 0-0.853 0h-469.333c-11.776 0-21.333 9.6-21.333 21.333 0 168.448 100.437 277.333 256 277.333 153.685 0 253.483-106.24 255.957-271.147 0.64-1.92 0.896-4.053 0.896-6.187 0-11.733-9.557-21.333-21.333-21.333zM640 682.667c0-47.128-38.205-85.333-85.333-85.333s-85.333 38.205-85.333 85.333c0 47.128 38.205 85.333 85.333 85.333s85.333-38.205 85.333-85.333z" />
<glyph unicode="&#xe90e;" glyph-name="address-book-2" d="M992 896h-64v42.667c0 47.061-38.229 85.333-85.333 85.333h-746.667c-11.776 0-21.333-9.557-21.333-21.333v-64h-42.667c-11.776 0-21.333-9.557-21.333-21.333s9.557-21.333 21.333-21.333h42.667v-85.333h-42.667c-11.776 0-21.333-9.557-21.333-21.333s9.557-21.333 21.333-21.333h42.667v-85.333h-42.667c-11.776 0-21.333-9.557-21.333-21.333s9.557-21.333 21.333-21.333h42.667v-85.333h-42.667c-11.776 0-21.333-9.557-21.333-21.333s9.557-21.333 21.333-21.333h42.667v-85.333h-42.667c-11.776 0-21.333-9.6-21.333-21.333s9.557-21.333 21.333-21.333h42.667v-85.333h-42.667c-11.776 0-21.333-9.6-21.333-21.333s9.557-21.333 21.333-21.333h42.667v-85.333h-42.667c-11.776 0-21.333-9.6-21.333-21.333s9.557-21.333 21.333-21.333h42.667v-106.667c0-11.733 9.557-21.333 21.333-21.333h746.667c47.104 0 85.333 38.229 85.333 85.333h64c11.733 0 21.333 9.6 21.333 21.333v768c0 11.776-9.6 21.333-21.333 21.333zM245.333 170.667c0-11.733-9.557-21.333-21.333-21.333s-21.333 9.6-21.333 21.333v725.333c0 11.776 9.557 21.333 21.333 21.333s21.333-9.557 21.333-21.333v-725.333zM970.667 213.333h-42.667v42.667h42.667v-42.667zM970.667 341.333h-42.667v42.667h42.667v-42.667zM970.667 469.333h-42.667v42.667h42.667v-42.667zM970.667 597.333h-42.667v42.667h42.667v-42.667zM970.667 725.333h-42.667v42.667h42.667v-42.667z" />
<glyph unicode="&#xe90f;" glyph-name="administrator" d="M267.477 552.235c9.685-121.557 112.768-258.901 239.232-258.901 123.947 0 217.941 133.675 226.091 259.755 21.717 8.405 35.243 30.592 35.243 60.245v85.333c0 19.541 0 53.803-42.667 62.123v65.877c0 116.907-60.587 181.333-170.667 181.333-68.992 0-136.576-25.216-153.728-32.085-80.341-2.304-144.939-68.395-144.939-149.248v-72.32c-16.896-9.771-42.667-29.013-42.667-55.68v-85.333c0-29.525 25.643-53.077 54.101-61.099zM755.669 271.531l-232.32-145.621c-3.499-2.176-7.381-3.243-11.349-3.243-4.053 0-8.107 1.152-11.605 3.456l-224.171 145.792c-135.381-0.512-233.557-89.984-233.557-213.248v-21.333c0-11.776 9.557-21.333 21.333-21.333h896c11.733 0 21.333 9.557 21.333 21.333v21.333c0.043 123.819-92.587 210.517-225.664 212.864zM354.048 307.883l-16.683-24.875 174.891-113.664 178.731 112-24.832 36.224c-43.776-40.747-98.347-66.816-159.445-66.816-56.917-0.085-109.013 22.144-152.661 57.131z" />
<glyph unicode="&#xe910;" glyph-name="aerobics" d="M541.909 444.757l56.363-150.4c6.443-17.024 22.699-27.605 39.979-27.605 4.992 0 10.027 0.896 15.019 2.688 22.101 8.235 33.237 32.896 24.96 54.912l-64 170.667c-4.779 12.757-15.275 22.4-28.459 26.069l-193.323 54.229c-2.347 0.683-4.608 0.256-6.955 0.512-2.773 0.341-5.504 0.896-8.235 0.683-2.901-0.256-5.547-1.195-8.32-2.091-2.475-0.768-4.907-1.195-7.211-2.432-2.603-1.237-4.693-3.2-6.955-4.992-2.048-1.579-4.139-2.987-5.845-4.949-1.92-2.219-3.157-4.864-4.608-7.509-1.067-1.92-2.645-3.456-3.456-5.589l-145.365-395.563c-8.107-22.187 3.2-46.677 25.344-54.741 4.864-1.835 9.813-2.688 14.72-2.688 17.365 0 33.707 10.667 40.021 27.904l131.755 358.528 134.571-37.632zM334.037 735.829l147.072-137.685c7.893-7.424 18.304-11.563 29.141-11.563h85.333c23.509 0 42.667 19.029 42.667 42.667 0 23.552-19.157 42.667-42.667 42.667h-68.48l-159.701 149.461c-14.507 13.525-36.608 15.36-53.12 4.224l-165.803-112.555c-19.499-13.227-24.576-39.808-11.349-59.307s39.808-24.576 59.264-11.349l137.643 93.44zM617.131 864c0-47.128-38.205-85.333-85.333-85.333s-85.333 38.205-85.333 85.333c0 47.128 38.205 85.333 85.333 85.333s85.333-38.205 85.333-85.333zM851.584 245.333h-341.333c-23.552 0-42.667-19.115-42.667-42.667v-85.333c0-23.595 19.115-42.667 42.667-42.667 23.509 0 42.667 19.072 42.667 42.667v42.667h256v-42.667c0-23.595 19.072-42.667 42.667-42.667 23.509 0 42.667 19.072 42.667 42.667v85.333c0 23.552-19.157 42.667-42.667 42.667z" />
<glyph unicode="&#xe911;" glyph-name="aerobics-2" d="M618.667 992c-47.104 0-85.333-38.229-85.333-85.333s38.229-85.333 85.333-85.333c47.019 0 85.333 38.229 85.333 85.333s-38.229 85.333-85.333 85.333zM320 160h-213.333c-23.552 0-42.667-19.115-42.667-42.667v-42.667c0-23.595 19.115-42.667 42.667-42.667s42.667 19.072 42.667 42.667h128c0-23.595 19.115-42.667 42.667-42.667s42.667 19.072 42.667 42.667v42.667c0 23.552-19.115 42.667-42.667 42.667zM323.243 782.165l169.984-84.437c6.144-2.987 12.587-4.437 18.944-4.437 15.701 0 30.848 8.661 38.229 23.68 10.411 21.163 1.835 46.805-19.285 57.259l-169.984 84.395c-21.163 10.581-46.72 1.92-57.173-19.2-10.411-21.077-1.792-46.763 19.285-57.259zM618.667 714.667c-23.552 0-42.667-19.115-42.667-42.667v-157.355l-371.456-78.251c-23.083-4.821-37.803-27.52-32.939-50.56 4.864-23.083 27.563-37.803 50.56-32.939l353.877 74.496v-352.768c0-23.595 19.115-42.667 42.667-42.667s42.667 19.072 42.667 42.667v597.333c-0.043 23.595-19.157 42.709-42.709 42.709zM917.333 757.333h-170.667c-23.552 0-42.667-19.115-42.667-42.667 0-23.595 19.115-42.667 42.667-42.667h170.667c23.552 0 42.667 19.072 42.667 42.667 0 23.552-19.115 42.667-42.667 42.667z" />
<glyph unicode="&#xe912;" glyph-name="aerobics-3" d="M451.413 863.061c0-45.385-36.791-82.176-82.176-82.176s-82.176 36.791-82.176 82.176c0 45.385 36.791 82.176 82.176 82.176s82.176-36.791 82.176-82.176zM772.864 58.965l-200.96 351.104c-0.043 119.083-4.267 215.893-36.267 286.592 118.741 34.987 150.144 100.011 157.483 139.435 12.885 68.096-26.667 141.397-98.347 182.485-19.669 11.349-44.757 4.437-56.064-15.147-11.307-19.669-4.48-44.843 15.147-56.064 40.021-22.997 64.683-63.275 58.496-96-7.083-37.675-53.888-67.413-129.664-83.413-2.475 2.005-4.352 4.523-6.997 6.528-18.133 13.611-43.904 9.856-57.557-8.192-6.827-9.344-9.173-20.523-7.509-31.189l-150.443-129.365c-10.709-9.216-16-23.339-13.867-37.333s11.349-25.856 24.32-31.531l218.752-94.677c0.085-10.624 0.213-20.821 0.256-32.256l-197.504-347.008c-11.008-19.84-3.883-44.843 15.957-55.936 6.315-3.499 13.184-5.163 19.925-5.163 14.421 0 28.459 7.339 35.925 20.864l167.125 300.331 170.155-301.355c11.179-19.755 36.267-27.733 56.021-16.683 19.797 11.307 26.709 34.219 15.616 53.973zM363.605 586.197l95.573 82.261c15.744-31.232 23.595-75.648 27.349-135.424l-122.923 53.163z" />
<glyph unicode="&#xe913;" glyph-name="affiliate" horiz-adv-x="1293" d="M506.453 235.989c-14.677-11.349-33.749-17.835-52.437-17.835-47.061 0-85.333 37.675-85.333 84.053 0 47.104 35.712 84.053 81.323 84.053 16.939 0 27.563-4.992 41.301-14.165 9.771-6.485 23.040-3.925 29.568 5.931 6.571 9.771 3.925 22.997-5.888 29.568-16.555 11.093-35.925 21.333-65.024 21.333-69.547 0-123.989-55.68-123.989-126.72 0-69.888 57.429-126.72 128-126.72 28.331 0 56.192 9.557 78.507 26.752 9.301 7.168 11.051 20.48 3.84 29.909-7.083 9.259-20.48 11.008-29.867 3.84zM967.467 302.165c0 70.997-54.357 126.677-123.989 126.677-29.099 0-48.427-10.24-64.939-21.333-9.771-6.571-12.416-19.84-5.888-29.568 6.485-9.771 19.883-12.416 29.568-5.931 13.739 9.259 24.32 14.165 41.344 14.165 45.568 0 81.237-36.907 81.237-84.011 0-46.336-38.229-84.096-85.333-84.096-18.688 0-37.76 6.485-52.437 17.835-9.429 7.211-22.741 5.461-29.909-3.84-7.168-9.387-5.419-22.699 3.84-29.909 22.315-17.152 50.261-26.752 78.592-26.752 70.485 0.085 127.915 56.917 127.915 126.763zM483.755 304.427c0-11.733 9.557-21.333 21.333-21.333h256c11.691 0 21.333 9.6 21.333 21.333s-9.643 21.333-21.333 21.333h-256c-11.776 0-21.333-9.6-21.333-21.333zM846.464 453.163c4.096-0.085 7.936-0.981 11.904-1.408-38.4 31.445-70.101 76.843-91.819 125.909-38.187-40.064-69.163-82.56-91.008-123.904h170.923v-0.597zM966.784 451.413c105.344 0 190.933 162.816 190.933 269.184 0 105.301-85.675 191.019-190.933 191.019-105.344 0-191.019-85.675-191.019-191.019 0-106.283 85.589-269.184 191.019-269.184zM1166.763 577.408c-39.808-89.771-111.915-168.661-200.021-168.661-7.467 0-14.549 1.237-21.717 2.432 26.965-26.965 43.648-64.683 43.648-107.349 0-80.171-63.275-145.237-142.421-148.992v0.256h-78.507c56.832-29.355 125.568-42.667 198.784-42.667h0.171c180.181 0 326.656 96.896 326.656 222.677 0.128 72.32-48.469 161.323-126.592 242.304zM419.755 154.923c-79.061 3.669-142.379 68.821-142.379 148.907 0 41.771 15.915 78.933 41.813 105.771-84.779 4.437-154.069 80.896-192.683 168.064-77.952-81.835-126.507-173.568-126.507-245.931 0-62.592 35.072-118.016 98.731-161.024 61.184-41.387 142.037-58.283 227.84-58.283h0.043c72.363 0 139.051 15.829 193.237 42.667h-100.267v-0.171h0.171zM437.717 453.76h181.248c-21.888 41.173-53.376 83.413-92.16 123.648-21.205-47.915-51.883-92.331-89.088-123.648zM326.741 451.413c105.387 0 190.933 162.816 190.933 269.184 0 105.301-85.632 191.019-190.933 191.019s-191.019-85.675-191.019-191.019c0.085-106.283 85.632-269.184 191.019-269.184z" />
<glyph unicode="&#xe914;" glyph-name="aim" d="M661.333 661.803c-100.011 0-181.333 81.323-181.333 181.333s81.365 181.333 181.333 181.333c99.925 0 181.333-81.323 181.333-181.333s-81.408-181.333-181.333-181.333zM980.224 519.211l-42.667 128c-3.541 10.581-14.72 16.683-25.387 13.909-1.067-0.256-66.005-15.744-132.48-7.424-34.432-21.632-74.837-34.603-118.357-34.603-73.899 0-139.051 36.437-179.883 91.733-60.288-57.643-83.669-129.195-102.656-188.885-10.709-33.707-20.011-62.848-33.877-83.072-77.909-116.821-278.912-118.485-280.917-118.485-6.571 0-12.757-2.987-16.811-8.149-4.011-5.205-5.461-11.904-3.84-18.304l42.667-170.667c2.389-9.557 10.88-16.171 20.693-16.171 10.581 0 254.080 1.92 389.717 164.779 149.12-83.797 207.659-255.915 208.256-257.664 1.835-5.589 5.931-10.112 11.179-12.587 2.859-1.365 6.016-2.091 9.088-2.091 2.688 0 5.248 0.512 7.808 1.451 0.64 0.213 59.605 23.381 150.955 65.323 9.301 4.309 14.251 14.592 11.733 24.533-36.053 144.171-102.741 260.096-198.827 345.643 123.349-2.261 264.107 53.163 271.403 56.021 10.411 4.352 15.787 16 12.203 26.709z" />
<glyph unicode="&#xe915;" glyph-name="air-balloon" d="M198.528 668.715c0-11.477 9.387-20.907 20.907-20.907s20.907 9.429 20.907 20.907c0 34.603 28.117 62.72 62.677 62.72s62.677-28.117 62.677-62.72c0-11.477 9.387-20.907 20.907-20.907 11.563 0 20.907 9.429 20.907 20.907 0 34.603 28.117 62.72 62.72 62.72 34.56 0 62.677-28.117 62.677-62.72 0-11.477 9.387-20.907 20.907-20.907s20.907 9.429 20.907 20.907c0 34.603 28.117 62.72 62.677 62.72 34.603 0 62.72-28.117 62.72-62.72 0-11.477 9.387-20.907 20.907-20.907s20.864 9.429 20.864 20.907c0 34.603 28.117 62.72 62.72 62.72 34.56 0 62.677-28.117 62.677-62.72-0.043 195.968-159.36 355.285-355.285 355.285-176.469 0-322.859-129.493-350.251-298.411 21.675-9.856 36.779-31.573 36.779-56.875zM862.080 611.925c-21.589 9.856-36.608 31.573-36.608 56.789 0 11.52-9.387 20.907-20.864 20.907-11.563 0-20.907-9.387-20.907-20.907 0-34.56-28.117-62.677-62.677-62.677-34.603 0-62.72 28.117-62.72 62.677 0 11.52-9.387 20.907-20.907 20.907s-20.864-9.387-20.864-20.907c0-34.56-28.117-62.677-62.72-62.677-34.56 0-62.677 28.117-62.677 62.677 0 11.52-9.387 20.907-20.907 20.907-11.563 0-20.907-9.387-20.907-20.907 0-34.56-28.117-62.677-62.72-62.677-34.56 0-62.677 28.117-62.677 62.677 0 11.52-9.387 20.907-20.907 20.907s-20.907-9.387-20.907-20.907c0-34.56-28.117-62.677-62.677-62.677-34.603 0-62.72 28.117-62.72 62.677 0-61.056 14.464-108.075 41.6-142.421l-0.213-0.128 188.459-384.768v-120.491c0-11.563 9.387-20.907 20.907-20.907h208.981c11.52 0 20.864 9.387 20.864 20.907v120.448l193.792 389.12-0.171 0.043c14.421 20.523 25.216 47.445 31.147 81.408zM574.208 459.733l-40.021-292.565h-43.179l-40.021 292.565h123.221zM269.653 475.136c27.264-9.984 59.008-15.36 96.043-15.36h43.136l39.979-292.565h-28.331l-150.827 307.925zM595.584 41.771h-167.168v83.584h167.168v-83.584zM603.52 167.168h-27.051l40.021 292.565h41.813c21.077 0 59.733 0.256 98.219 14.464l-153.003-307.029z" />
<glyph unicode="&#xe916;" glyph-name="airbrush" d="M994.603 588.117c-7.253 9.259-20.608 10.88-29.909 3.627-59.264-46.507-130.389-2.816-163.669 23.339l11.733 11.733c4.011 4.011 6.229 9.429 6.229 15.104 0 5.632-2.304 11.051-6.229 15.104l-45.269 45.269 105.6 105.6c8.32 8.32 8.32 21.845 0 30.165l-90.496 90.539c-4.011 4.011-9.429 6.229-15.104 6.229s-11.093-2.261-15.104-6.229l-377.6-377.6c0.597 5.12-0.683 10.24-3.584 14.464l-76.459 111.147c-3.584 5.248-9.301 8.576-15.616 9.173-6.443 0.597-12.544-1.707-17.024-6.187l-128.213-128.171c-4.437-4.437-6.656-10.539-6.187-16.768s3.669-11.904 8.704-15.573l108.501-79.061c2.944-2.219 6.443-3.584 10.112-4.011l4.395-0.512-62.037-62.080c-1.707-1.664-5.675-4.011-9.515-6.187-6.443-3.755-14.507-8.405-21.632-15.573-17.707-17.749-27.819-41.173-28.459-66.005-0.64-25.088 8.405-48.299 25.472-65.323 16.64-16.597 40.277-26.155 64.981-26.155v0c25.728 0 49.792 9.899 67.669 27.819 6.955 6.912 11.691 14.763 15.488 21.035 2.347 3.883 4.736 7.893 6.613 9.728l358.912 358.955 45.312-45.227c8.277-8.32 21.803-8.32 30.165 0l18.176 18.219c33.493-27.307 84.139-55.723 136.747-55.723 28.16 0 56.917 8.192 83.584 29.141 9.344 7.296 10.923 20.693 3.712 29.995zM92.459 546.944c5.419 0 10.837 2.048 15.019 6.187l153.344 152.021c8.363 8.277 8.405 21.76 0.128 30.123s-21.803 8.405-30.165 0.171l-153.344-152.021c-8.363-8.277-8.405-21.803-0.128-30.165 4.181-4.181 9.643-6.315 15.147-6.315zM135.595 236.672c-8.32 8.32-21.803 8.405-30.165 0.085l-74.24-73.771c-4.053-4.053-6.315-9.643-6.272-15.275 0.043-5.845 2.432-11.264 6.613-15.232l39.125-37.333c4.139-3.925 9.429-5.931 14.72-5.931 5.077 0 10.197 1.835 14.251 5.504l77.781 69.803c8.789 7.893 9.515 21.376 1.621 30.123s-35.115 33.621-43.435 42.027z" />
<glyph unicode="&#xe917;" glyph-name="airship" horiz-adv-x="1061" d="M878.165 725.333h-561.749c-99.712 0-184.021-87.936-184.021-192s83.456-192 182.229-192h565.333c98.731 0 182.229 87.936 182.229 192s-84.267 192-184.021 192zM449.067 227.925c2.901-8.661 11.051-14.592 20.224-14.592h298.667c9.216 0 17.28 5.931 20.224 14.592l23.637 70.741h-386.347l23.595-70.741zM108.501 441.344l-104.789-151.893c-4.48-6.528-5.035-15.061-1.323-22.059s10.923-11.52 18.901-11.52h170.667c5.76 0 11.264 2.432 15.275 6.315l44.885 46.080c-63.915 20.224-116.907 69.803-143.616 133.077zM109.824 627.755c27.819 63.317 82.261 112.597 147.584 131.541l-51.2 45.909c-3.925 3.541-9.003 5.461-14.251 5.461h-170.667c-8.021 0-15.275-4.437-18.944-11.563s-3.029-15.616 1.621-22.144l105.856-149.205z" />
<glyph unicode="&#xe918;" glyph-name="alarm" d="M529.451 504.533c0-12.984-10.525-23.509-23.509-23.509s-23.509 10.525-23.509 23.509c0 12.984 10.525 23.509 23.509 23.509s23.509-10.525 23.509-23.509zM505.941 884.395c-209.451 0-379.819-170.411-379.819-379.819 0-130.688 66.389-246.229 167.211-314.581l-41.131-82.304c-5.291-10.539-0.981-23.381 9.557-28.629 3.115-1.536 6.357-2.261 9.557-2.261 7.851 0 15.36 4.352 19.115 11.733l39.808 79.573c52.608-27.563 112.341-43.477 175.787-43.477s123.221 15.829 175.787 43.477l39.851-79.573c3.755-7.467 11.264-11.733 19.072-11.733 3.243 0 6.443 0.768 9.557 2.261 10.539 5.248 14.805 18.091 9.557 28.629l-41.088 82.304c100.779 68.395 167.168 183.893 167.168 314.581-0.171 209.365-170.496 379.819-379.989 379.819zM670.421 637.696l-104.917-104.917c4.181-8.576 6.613-18.133 6.613-28.245 0-36.48-29.696-66.219-66.133-66.219-36.48 0-66.133 29.653-66.133 66.219 0 29.013 18.901 53.419 44.928 62.336l-0.128 0.384v213.547c0 11.733 9.557 21.333 21.333 21.333s21.333-9.6 21.333-21.333v-213.333c0 0-0.085-0.384-0.128-0.597 2.944-0.981 5.76-2.176 8.533-3.541l104.491 104.533c8.32 8.277 21.888 8.277 30.165 0 8.363-8.32 8.32-21.803 0.043-30.165zM321.195 883.925c-4.949 6.443-9.813 12.203-14.464 16.896-0.597 0.768-0.896 1.707-1.621 2.432-1.536 1.451-3.371 2.56-4.949 4.011-6.059 5.461-11.477 9.728-15.829 13.227l-0.384-0.213c-60.032 40.832-146.816 35.285-199.125-16.981-29.397-29.397-45.653-68.48-45.653-110.080 0-34.005 11.349-66.048 31.36-92.757 0.384-0.853 0.597-1.579 1.067-2.347 8.021-13.483 22.997-28.885 39.893-43.435 38.357 100.352 113.835 182.357 209.707 229.248zM939.264 903.211c-52.352 52.352-139.179 57.771-199.168 16.981l-0.341 0.128c-4.395-3.499-9.771-7.723-15.829-13.184-1.579-1.451-3.413-2.56-4.992-4.053-0.725-0.725-0.981-1.664-1.579-2.432-5.589-5.632-11.563-13.013-17.493-21.291 93.995-48.853 167.168-131.968 203.435-232.704 20.565 16.853 39.765 35.285 49.152 51.243 0.512 0.768 0.683 1.536 1.067 2.347 20.011 26.709 31.317 58.752 31.317 92.757 0.085 41.685-16.171 80.768-45.568 110.208z" />
<glyph unicode="&#xe919;" glyph-name="alarm-clock" d="M1030.827 516.267c-21.76 107.307-82.219 202.752-170.155 268.843-9.429 6.997-22.827 5.163-29.909-4.267s-5.163-22.827 4.267-29.909c79.616-59.733 134.272-146.176 153.941-243.157 2.091-10.069 11.008-17.067 20.907-17.067 1.408 0 2.816 0.171 4.309 0.427 11.52 2.261 18.987 13.525 16.64 25.131zM267.477 183.424c-7.083 9.429-20.437 11.349-29.867 4.267s-11.307-20.437-4.224-29.909c25.472-33.835 55.595-64 89.557-89.557 3.84-2.859 8.32-4.309 12.8-4.309 6.485 0 12.885 2.859 17.067 8.491 7.083 9.429 5.205 22.741-4.224 29.824-30.72 23.168-58.027 50.517-81.109 81.195zM911.787 426.667c0 176.512-143.531 320-320 320v21.333h170.667c3.968 0 17.365 0 21.333 0 11.776 0 21.333 9.6 21.333 21.333 0 129.408-105.259 234.667-234.667 234.667-122.197 0-222.763-93.909-233.6-213.333h-1.067c-11.776 0-21.333-9.6-21.333-21.333s9.557-21.333 21.333-21.333h213.333v-24.491c-142.293-19.072-255.104-131.883-274.133-274.176h-24.533v213.333c0 11.733-9.557 21.333-21.333 21.333-11.52 0-20.736-9.173-21.163-20.565-120.32-9.856-215.253-110.848-215.253-233.685 0-129.408 105.259-234.667 234.667-234.667 11.776 0 21.333 9.6 21.333 21.333 0 2.987 1.792 15.403 1.792 19.584v170.667h21.333c0-176.512 143.531-320 320-320 14.507 0 28.672 1.323 42.667 3.157v-109.824h42.667v118.571c107.819 29.909 192.853 114.816 222.763 222.763h118.571v42.667h-109.867c1.877 13.995 3.157 28.16 3.157 42.667zM734.933 283.563c-4.224-4.224-9.685-6.229-15.104-6.229s-10.923 2.091-15.104 6.229l-128 128c-8.277 8.277-8.277 21.845 0 30.165l85.333 85.333c8.32 8.277 21.888 8.277 30.165 0 8.32-8.32 8.32-21.888 0-30.165l-70.272-70.229 112.896-112.896c8.363-8.363 8.363-21.845 0.085-30.208z" />
<glyph unicode="&#xe91a;" glyph-name="alarm-clock-2" d="M190.976 683.605c11.307-3.413 23.168 2.987 26.539 14.336 38.485 129.109 159.573 219.392 294.485 219.392s256-90.24 294.485-219.435c2.731-9.216 11.221-15.232 20.437-15.232 2.005 0 4.096 0.299 6.101 0.896 11.349 3.328 17.749 15.147 14.336 26.496-43.819 147.2-181.76 249.941-335.36 249.941-153.643 0-291.541-102.741-335.36-249.856-3.371-11.349 3.029-23.211 14.336-26.539zM213.333 490.667h597.333v-213.333h-597.333v213.333zM1002.667 661.333h-326.101c-19.029 73.429-85.333 128-164.565 128-79.275 0-145.536-54.571-164.608-128h-326.059c-11.776 0-21.333-9.557-21.333-21.333v-512c0-11.733 9.557-21.333 21.333-21.333h149.333v-42.667h42.667v42.667h597.333v-42.667h42.667v42.667h149.333c11.733 0 21.333 9.6 21.333 21.333v512c0 11.776-9.6 21.333-21.333 21.333zM512 746.667c55.552 0 102.4-35.755 120.064-85.333h-240.213c17.707 49.621 64.597 85.333 120.149 85.333zM853.333 256c0-11.733-9.6-21.333-21.333-21.333h-640c-11.776 0-21.333 9.6-21.333 21.333v256c0 11.733 9.557 21.333 21.333 21.333h640c11.733 0 21.333-9.6 21.333-21.333v-256z" />
<glyph unicode="&#xe91b;" glyph-name="alien" d="M512 724.437c-70.571 0-128-57.429-128-128 0-70.528 57.429-128 128-128s128 57.472 128 128c0 70.571-57.429 128-128 128zM512 553.771c-23.509 0-42.667 19.115-42.667 42.667s19.157 42.667 42.667 42.667 42.667-19.115 42.667-42.667-19.157-42.667-42.667-42.667zM978.731 715.648c1.621 2.987 2.603 6.187 2.603 9.685v85.333c0 102.101-60.032 170.667-149.333 170.667h-64c-11.733 0-21.333-9.6-21.333-21.333s9.6-21.333 21.333-21.333h64c78.763 0 106.667-68.907 106.667-128v-53.675c-90.965 76.672-246.485 126.336-426.667 126.336-180.139 0-335.701-49.664-426.667-126.336v53.675c0 70.571 57.429 128 128 128h42.667c11.776 0 21.333 9.6 21.333 21.333s-9.557 21.333-21.333 21.333h-42.667c-94.123 0-170.667-76.587-170.667-170.667v-85.333c0-3.499 1.024-6.656 2.56-9.685-28.843-36.181-45.227-76.416-45.227-119.211 0-160.896 224.896-286.976 512-286.976s512 125.995 512 286.976c0 42.795-16.384 83.072-45.269 119.211zM512 425.771c-94.123 0-170.667 76.587-170.667 170.667s76.544 170.667 170.667 170.667 170.667-76.587 170.667-170.667c0-94.208-76.544-170.667-170.667-170.667zM768 213.333h-45.909c-38.4 0-70.485 26.624-79.403 62.293-41.728-5.547-85.248-8.789-130.688-8.789s-88.96 3.243-130.688 8.789c-8.875-35.669-40.96-62.293-79.36-62.293h-45.952c-103.68 0-170.667-58.624-170.667-149.333v-21.333h853.333v21.333c0 90.709-66.987 149.333-170.667 149.333z" />
<glyph unicode="&#xe91c;" glyph-name="alien-2" d="M630.101 540.459c91.349 12.928 180.693 102.443 196.437 196.437-47.573-6.784-95.061-32-133.163-71.381-35.755-36.821-58.112-81.365-63.275-125.056zM204.587 736.896c15.744-93.995 105.131-183.595 196.437-196.437-5.205 43.691-27.563 88.235-63.317 125.141-38.059 39.296-85.504 64.512-133.12 71.296zM512 1024c-330.155 0-512-136.363-512-384 0-288.085 236.245-640 512-640s512 351.915 512 640c0 247.637-181.845 384-512 384zM423.253 496.213c-129.152 0.043-259.755 130.475-263.723 263.339-0.171 5.803 2.048 11.52 6.101 15.573 4.096 4.139 10.368 6.059 15.488 6.357 66.645-0.853 134.869-32.256 187.221-86.229 49.792-51.371 77.653-116.352 76.459-178.176-0.213-11.605-9.685-20.864-21.333-20.907l-0.213 0.043zM469.333 298.667c0-11.733-9.557-21.333-21.333-21.333s-21.333 9.6-21.333 21.333v42.667c0 11.733 9.557 21.333 21.333 21.333s21.333-9.6 21.333-21.333v-42.667zM597.333 298.667c0-11.733-9.6-21.333-21.333-21.333s-21.333 9.6-21.333 21.333v42.667c0 11.733 9.6 21.333 21.333 21.333s21.333-9.6 21.333-21.333v-42.667zM607.829 496.213c0 0-0.256 0-0.299 0-11.563 0.043-21.077 9.301-21.291 20.907-1.152 61.867 26.709 126.805 76.501 178.219 52.352 54.016 120.576 85.376 187.264 86.187 6.187 0.341 11.477-2.261 15.445-6.357 4.139-4.139 6.272-9.771 6.144-15.573-4.011-132.949-134.699-263.381-263.765-263.381z" />
<glyph unicode="&#xe91d;" glyph-name="align-center" d="M42.667 725.333h938.667c23.552 0 42.667 19.115 42.667 42.667s-19.115 42.667-42.667 42.667h-938.667c-23.552 0-42.667-19.115-42.667-42.667s19.115-42.667 42.667-42.667zM896 640c0 23.552-19.115 42.667-42.667 42.667h-725.333c-23.552 0-42.667-19.115-42.667-42.667s19.115-42.667 42.667-42.667h725.333c23.552 0 42.667 19.115 42.667 42.667zM682.667 469.333c23.552 0 42.667 19.115 42.667 42.667s-19.115 42.667-42.667 42.667h-341.333c-23.552 0-42.667-19.115-42.667-42.667s19.115-42.667 42.667-42.667h341.333zM128 384c0-23.552 19.115-42.667 42.667-42.667h640c23.552 0 42.667 19.115 42.667 42.667s-19.115 42.667-42.667 42.667h-640c-23.552 0-42.667-19.115-42.667-42.667zM981.333 298.667h-938.667c-23.552 0-42.667-19.115-42.667-42.667s19.115-42.667 42.667-42.667h938.667c23.552 0 42.667 19.115 42.667 42.667s-19.115 42.667-42.667 42.667z" />
<glyph unicode="&#xe91e;" glyph-name="align-justify-all" d="M42.667 725.333h938.667c23.552 0 42.667 19.115 42.667 42.667s-19.115 42.667-42.667 42.667h-938.667c-23.552 0-42.667-19.115-42.667-42.667s19.115-42.667 42.667-42.667zM981.333 682.667h-938.667c-23.552 0-42.667-19.115-42.667-42.667s19.115-42.667 42.667-42.667h938.667c23.552 0 42.667 19.115 42.667 42.667s-19.115 42.667-42.667 42.667zM981.333 554.667h-938.667c-23.552 0-42.667-19.115-42.667-42.667s19.115-42.667 42.667-42.667h938.667c23.552 0 42.667 19.115 42.667 42.667s-19.115 42.667-42.667 42.667zM981.333 426.667h-938.667c-23.552 0-42.667-19.115-42.667-42.667s19.115-42.667 42.667-42.667h938.667c23.552 0 42.667 19.115 42.667 42.667s-19.115 42.667-42.667 42.667zM981.333 298.667h-938.667c-23.552 0-42.667-19.115-42.667-42.667s19.115-42.667 42.667-42.667h938.667c23.552 0 42.667 19.115 42.667 42.667s-19.115 42.667-42.667 42.667z" />
<glyph unicode="&#xe91f;" glyph-name="align-justify-center" d="M42.667 725.333h938.667c23.552 0 42.667 19.115 42.667 42.667s-19.115 42.667-42.667 42.667h-938.667c-23.552 0-42.667-19.115-42.667-42.667s19.115-42.667 42.667-42.667zM981.333 682.667h-938.667c-23.552 0-42.667-19.115-42.667-42.667s19.115-42.667 42.667-42.667h938.667c23.552 0 42.667 19.115 42.667 42.667s-19.115 42.667-42.667 42.667zM981.333 554.667h-938.667c-23.552 0-42.667-19.115-42.667-42.667s19.115-42.667 42.667-42.667h938.667c23.552 0 42.667 19.115 42.667 42.667s-19.115 42.667-42.667 42.667zM981.333 426.667h-938.667c-23.552 0-42.667-19.115-42.667-42.667s19.115-42.667 42.667-42.667h938.667c23.552 0 42.667 19.115 42.667 42.667s-19.115 42.667-42.667 42.667zM768 298.667h-512c-23.552 0-42.667-19.115-42.667-42.667s19.115-42.667 42.667-42.667h512c23.552 0 42.667 19.115 42.667 42.667s-19.115 42.667-42.667 42.667z" />
<glyph unicode="&#xe920;" glyph-name="align-justify-left" d="M42.667 725.333h938.667c23.552 0 42.667 19.115 42.667 42.667s-19.115 42.667-42.667 42.667h-938.667c-23.552 0-42.667-19.115-42.667-42.667s19.115-42.667 42.667-42.667zM981.333 682.667h-938.667c-23.552 0-42.667-19.115-42.667-42.667s19.115-42.667 42.667-42.667h938.667c23.552 0 42.667 19.115 42.667 42.667s-19.115 42.667-42.667 42.667zM981.333 554.667h-938.667c-23.552 0-42.667-19.115-42.667-42.667s19.115-42.667 42.667-42.667h938.667c23.552 0 42.667 19.115 42.667 42.667s-19.115 42.667-42.667 42.667zM981.333 426.667h-938.667c-23.552 0-42.667-19.115-42.667-42.667s19.115-42.667 42.667-42.667h938.667c23.552 0 42.667 19.115 42.667 42.667s-19.115 42.667-42.667 42.667zM981.333 298.667h-512c-23.552 0-42.667-19.115-42.667-42.667s19.115-42.667 42.667-42.667h512c23.552 0 42.667 19.115 42.667 42.667s-19.115 42.667-42.667 42.667z" />
<glyph unicode="&#xe921;" glyph-name="align-justify-right" d="M981.333 725.333h-938.667c-23.552 0-42.667 19.115-42.667 42.667s19.115 42.667 42.667 42.667h938.667c23.552 0 42.667-19.115 42.667-42.667s-19.115-42.667-42.667-42.667zM981.333 597.333h-938.667c-23.552 0-42.667 19.115-42.667 42.667s19.115 42.667 42.667 42.667h938.667c23.552 0 42.667-19.115 42.667-42.667s-19.115-42.667-42.667-42.667zM981.333 469.333h-938.667c-23.552 0-42.667 19.115-42.667 42.667s19.115 42.667 42.667 42.667h938.667c23.552 0 42.667-19.115 42.667-42.667s-19.115-42.667-42.667-42.667zM981.333 341.333h-938.667c-23.552 0-42.667 19.115-42.667 42.667s19.115 42.667 42.667 42.667h938.667c23.552 0 42.667-19.115 42.667-42.667s-19.115-42.667-42.667-42.667zM554.667 213.333h-512c-23.552 0-42.667 19.115-42.667 42.667s19.115 42.667 42.667 42.667h512c23.552 0 42.667-19.115 42.667-42.667s-19.115-42.667-42.667-42.667z" />
<glyph unicode="&#xe922;" glyph-name="align-left" d="M42.667 725.333h938.667c23.552 0 42.667 19.115 42.667 42.667s-19.115 42.667-42.667 42.667h-938.667c-23.552 0-42.667-19.115-42.667-42.667s19.115-42.667 42.667-42.667zM981.333 682.667h-725.333c-23.552 0-42.667-19.115-42.667-42.667s19.115-42.667 42.667-42.667h725.333c23.552 0 42.667 19.115 42.667 42.667s-19.115 42.667-42.667 42.667zM981.333 554.667h-341.333c-23.552 0-42.667-19.115-42.667-42.667s19.115-42.667 42.667-42.667h341.333c23.552 0 42.667 19.115 42.667 42.667s-19.115 42.667-42.667 42.667zM981.333 426.667h-640c-23.552 0-42.667-19.115-42.667-42.667s19.115-42.667 42.667-42.667h640c23.552 0 42.667 19.115 42.667 42.667s-19.115 42.667-42.667 42.667zM981.333 298.667h-938.667c-23.552 0-42.667-19.115-42.667-42.667s19.115-42.667 42.667-42.667h938.667c23.552 0 42.667 19.115 42.667 42.667s-19.115 42.667-42.667 42.667z" />
<glyph unicode="&#xe923;" glyph-name="align-right" d="M981.333 810.667h-938.667c-23.552 0-42.667-19.115-42.667-42.667s19.115-42.667 42.667-42.667h938.667c23.552 0 42.667 19.115 42.667 42.667s-19.115 42.667-42.667 42.667zM768 682.667h-725.333c-23.552 0-42.667-19.115-42.667-42.667s19.115-42.667 42.667-42.667h725.333c23.552 0 42.667 19.115 42.667 42.667s-19.115 42.667-42.667 42.667zM42.667 469.333h341.333c23.552 0 42.667 19.115 42.667 42.667s-19.115 42.667-42.667 42.667h-341.333c-23.552 0-42.667-19.115-42.667-42.667s19.115-42.667 42.667-42.667zM682.667 426.667h-640c-23.552 0-42.667-19.115-42.667-42.667s19.115-42.667 42.667-42.667h640c23.552 0 42.667 19.115 42.667 42.667s-19.115 42.667-42.667 42.667zM554.667 298.667h-512c-23.552 0-42.667-19.115-42.667-42.667s19.115-42.667 42.667-42.667h512c23.552 0 42.667 19.115 42.667 42.667s-19.115 42.667-42.667 42.667z" />
<glyph unicode="&#xe924;" glyph-name="alligator" d="M874.709 426.667c-11.776 0-21.333 9.515-21.333 21.333v42.667c0 11.819 9.557 21.333 21.333 21.333s21.333-9.515 21.333-21.333v-42.667c0-11.819-9.557-21.333-21.333-21.333zM789.376 384c-11.776 0-21.333 9.515-21.333 21.333v42.667c0 11.819 9.557 21.333 21.333 21.333s21.333-9.515 21.333-21.333v-42.667c0-11.819-9.557-21.333-21.333-21.333zM144.939 624.896c0-11.782-9.551-21.333-21.333-21.333s-21.333 9.551-21.333 21.333c0 11.782 9.551 21.333 21.333 21.333s21.333-9.551 21.333-21.333zM874.709 490.667c82.389 0 149.333 66.603 149.333 149.333 0 11.776-9.557 21.333-21.333 21.333h-39.211c-8.789 24.875-32.597 42.667-60.331 42.667-27.819 0-51.541-17.792-60.373-42.667h-586.581c-7.168 79.531-55.083 128-128.64 128-68.523 0-98.987-36.267-112.469-66.645-15.104-34.091-15.104-72.661-15.104-98.688v-368c0-11.733 9.557-21.333 21.333-21.333h896c11.733 0 21.333 10.411 21.333 22.229 0 81.835-66.987 148.437-149.333 148.437h-401.067l49.792 85.333h436.651zM905.984 646.229c11.733 0 21.333-9.6 21.333-21.333 0-11.776-9.6-21.333-21.333-21.333-11.691 0-21.333 9.557-21.333 21.333 0 11.733 9.643 21.333 21.333 21.333zM123.605 560.896c-35.285 0-64 28.672-64 64 0 35.243 28.715 64 64 64s64-28.757 64-64c0-35.328-28.715-64-64-64z" />
<glyph unicode="&#xe925;" glyph-name="alpha" d="M981.461 390.144c-23.552 0-42.667-19.072-42.667-42.624 0-65.749-33.195-136.021-126.507-136.021-46.464 0-79.189 101.845-110.805 200.235-4.309 13.355-13.355 27.008-13.355 40.789v465.536c0 23.552-19.115 42.624-42.667 42.624s-42.667-19.072-42.667-42.624v-266.155c-42.667 83.712-125.312 145.408-241.707 145.408-226.219 0-361.173-137.301-361.173-367.275 0-208.981 148.011-366.677 344.235-366.677 143.744 0 261.632 84.395 314.411 211.413 33.579-84.736 76.331-148.437 153.685-148.437 126.677 0 211.797 88.917 211.797 221.312 0.043 23.381-19.029 42.496-42.581 42.496zM602.88 428.843c0-162.432-108.715-280.235-258.731-280.235-150.059 0-258.859 118.315-258.859 281.429 0 128.725 47.744 282.027 275.84 282.027 129.92 0 199.083-110.933 241.749-273.749v-9.472z" />
<glyph unicode="&#xe926;" glyph-name="ambulance" d="M206.208 158.208c-58.795 0-106.667 47.829-106.667 106.667s47.872 106.667 106.667 106.667 106.667-47.829 106.667-106.667-47.829-106.667-106.667-106.667zM846.208 158.208c-58.795 0-106.667 47.829-106.667 106.667s47.872 106.667 106.667 106.667 106.667-47.829 106.667-106.667-47.829-106.667-106.667-106.667zM215.552 567.125h83.115v85.504c-31.147-9.941-73.045-38.656-83.115-85.504zM768 439.125v64c0 11.733 9.6 21.333 21.333 21.333h64v42.667h-64c-11.733 0-21.333 9.6-21.333 21.333v64h-42.667v-64c0-11.733-9.6-21.333-21.333-21.333h-64v-42.667h64c11.733 0 21.333-9.6 21.333-21.333v-64h42.667zM1002.667 780.459h-618.667v64c0 11.733-9.557 21.333-21.333 21.333h-42.667c-11.776 0-21.333-9.6-21.333-21.333v-64h-42.667c-94.123 0-170.667-76.587-170.667-170.667v-73.899l-73.557-36.779c-7.211-3.669-11.776-11.093-11.776-19.115v-254.208h62.763c-3.456 12.544-5.845 25.515-5.845 39.083 0 82.347 66.987 149.333 149.333 149.333s149.333-66.987 149.333-149.333c0-13.568-2.432-26.539-5.845-39.083h353.024c-3.456 12.544-5.845 25.515-5.845 39.083 0 57.259 32.768 106.539 80.171 131.584h-73.088c-11.776 0-21.333 9.6-21.333 21.333v64h-64c-11.776 0-21.333 9.6-21.333 21.333v85.333c0 11.733 9.557 21.333 21.333 21.333h64v64c0 11.733 9.557 21.333 21.333 21.333h85.333c11.733 0 21.333-9.6 21.333-21.333v-64h64c11.733 0 21.333-9.6 21.333-21.333v-85.333c0-11.733-9.6-21.333-21.333-21.333h-64v-64c0-3.243-0.896-6.229-2.176-9.003 12.16 3.157 24.661 5.419 37.76 5.419 82.347 0 149.333-66.987 149.333-149.333 0-13.568-2.475-26.539-5.888-39.083h34.304v533.333c0 11.733-9.6 21.333-21.333 21.333zM341.333 545.792c0-11.733-9.557-21.333-21.333-21.333h-128c-11.776 0-21.333 9.6-21.333 21.333 0 99.2 98.645 153.344 149.333 153.344 11.776 0 21.333-9.557 21.333-21.333v-132.011z" />
<glyph unicode="&#xe927;" glyph-name="amx" d="M153.131 501.76h57.344l-20.693 57.344zM938.667 725.333h-853.333c-46.933 0-85.333-38.4-85.333-85.333v-233.813l156.501 233.813h90.667l53.12-136.832c-136.021-27.989-238.635-63.573-300.288-97.877v-21.291c0-46.933 38.4-85.333 85.333-85.333h853.333c46.933 0 85.333 38.4 85.333 85.333v256c0 46.933-38.4 85.333-85.333 85.333zM416.896 384h-171.563l-20.011 65.877c27.435 6.528 55.68 22.912 84.693 28.032l24.149-62.208 11.349 62.976c28.971 4.48 58.368 3.157 87.979 6.528l-16.597-101.205zM883.584 384l-59.563 66.901-79.104-66.901h-186.667l17.963 113.493c29.227 1.792 58.027 13.568 86.229 14.635l-14.677-93.056 115.328 95.317c54.571 0.597 104.619-10.411 146.987-11.435l84.565-118.955h-111.061zM925.099 554.837c-59.307 1.067-116.437 0.597-171.307-1.152l-70.059 80.085-13.909-83.925c-118.997-6.997-226.048-20.181-319.403-37.077l21.163 127.232h72.917l70.229-76.757 97.749 76.757h178.688l49.749-60.715 70.229 60.715h112l-98.048-85.163z" />
<glyph unicode="&#xe928;" glyph-name="anchor" d="M960.171 381.696l-86.315 149.717c-7.253 12.544-20.651 20.309-35.2 20.309-14.507 0-27.861-7.765-35.2-20.309l-89.984-155.861c-7.253-12.587-7.253-33.109 0-45.739 7.253-12.587 20.608-25.429 35.157-25.429h42.325c-25.643-128-108.672-193.749-236.672-210.688v637.397h79.189c22.443 0 40.619 20.267 40.619 42.667 0 22.443-18.176 42.667-40.619 42.667h-79.232v-5.035c42.667 16.256 69.035 56.064 69.035 102.741 0 61.056-50.133 110.72-111.189 110.72s-112.043-49.664-112.043-110.72c0-46.635 26.112-86.443 68.779-102.741v5.035h-79.189c-22.4 0-40.619-20.224-40.619-42.667 0-22.4 18.219-42.667 40.619-42.667h79.189v-637.355c-128 16.896-211.029 82.688-236.672 210.688h42.325c0.299 0 0.555 0 0.811 0 22.443 0 40.619 23.253 40.619 45.739 0 10.069-3.669 21.931-9.813 29.013l-86.357 150.955c-7.253 12.544-20.651 20.949-35.157 20.949-14.549 0-27.904-7.424-35.2-20.011l-89.984-155.648c-7.253-12.587-7.253-33.024 0-45.653 7.253-12.587 20.651-25.344 35.2-25.344h55.083c29.739-170.667 180.48-305.237 361.941-305.237s332.245 134.571 361.941 305.237h55.083c0.256 0 0.555 0 0.811 0 22.443 0 40.661 23.253 40.661 45.739-0.128 10.069-3.797 24.405-9.941 31.531z" />
<glyph unicode="&#xe929;" glyph-name="anchor-2" horiz-adv-x="1046" d="M1029.291 379.563l-118.912 93.227c-13.397 10.581-32 12.032-47.019 3.84l-132.309-73.003c-20.523-11.477-28.032-37.333-16.811-57.941 11.477-20.565 37.333-28.075 57.899-16.811l64.683 35.669c-25.941-133.504-135.253-237.355-271.275-255.531v508.757h85.333c23.637 0 42.667 19.072 42.667 42.667s-19.029 42.667-42.667 42.667h-85.333v52.309c49.579 17.664 85.333 64.64 85.333 120.107 0 70.571-57.429 128-128 128s-128-57.429-128-128c0-55.552 35.755-102.443 85.333-120.107v-52.309h-85.333c-23.552 0-42.667-19.072-42.667-42.667s19.115-42.667 42.667-42.667h85.333v-508.843c-136.021 18.261-245.205 121.899-271.275 255.317l64.256-35.456c20.651-11.392 46.592-3.883 57.941 16.811 11.392 20.608 3.883 46.592-16.768 57.941l-132.267 72.96c-14.976 8.149-33.451 6.699-46.933-3.797l-118.827-93.141c-18.56-14.592-21.803-41.387-7.253-59.904 8.405-10.709 20.949-16.341 33.621-16.341 9.173 0 18.475 2.901 26.283 9.088l55.125 43.179c33.365-190.123 199.296-335.104 398.848-335.104 199.509 0 365.355 144.896 398.848 334.976l54.827-42.965c7.851-6.187 17.024-9.088 26.24-9.088 12.672 0 25.216 5.632 33.621 16.341 14.549 18.603 11.307 45.355-7.211 59.819zM523.008 918.229c23.552 0 42.667-19.115 42.667-42.667s-19.115-42.667-42.667-42.667-42.667 19.115-42.667 42.667 19.157 42.667 42.667 42.667z" />
<glyph unicode="&#xe92a;" glyph-name="android" d="M768 697.728h-512c-11.776 0-21.333-9.557-21.333-21.333v-347.904c0-58.496 35.2-108.8 85.333-130.688v-120.32c0-34.005 26.923-58.667 64-58.667s64 24.661 64 58.667v108.331h128v-108.416c0-34.005 26.923-58.667 64-58.667s64 24.661 64 58.667v120.917c50.176 22.229 85.333 72.021 85.333 130.176v347.819c0 11.819-9.6 21.419-21.333 21.419zM256.597 747.563c4.053-4.523 9.856-7.168 15.957-7.168h477.227c6.101 0 11.861 2.688 15.957 7.168 4.053 4.523 5.973 10.667 5.248 16.768-8.704 72.021-38.997 127.488-86.613 164.651l32.256 42.027c7.168 9.387 5.419 22.784-3.925 29.952-9.387 7.168-22.741 5.333-29.909-3.925l-34.688-45.099c-38.229 19.285-83.925 29.824-136.96 29.824-56.363 0-104.917-11.563-144.427-33.323l-37.333 48.597c-7.168 9.301-20.523 11.093-29.867 3.925-9.387-7.168-11.136-20.565-3.968-29.952l35.84-46.635c-44.032-37.077-71.723-91.307-79.957-160.043-0.811-6.101 1.067-12.245 5.163-16.768zM896 697.728c-35.285 0-64-28.715-64-64v-213.291c0-35.328 28.715-64 64-64s64 28.672 64 64v213.291c0 35.285-28.715 64-64 64zM128 697.728c-35.285 0-64-28.715-64-64v-213.291c0-35.328 28.715-64 64-64s64 28.672 64 64v213.291c0 35.285-28.715 64-64 64z" />
<glyph unicode="&#xe92b;" glyph-name="android-store" d="M447.659 496.085c-2.944 1.664-6.272 2.517-9.643 2.517-3.712 0-11.349-1.408-11.349-6.101v-207.36c0-6.059 9.515-6.144 9.899-6.144 3.2 0 6.272 0.853 8.917 2.389l192.512 103.979c1.707 0.981 2.688 2.005 3.115 2.56-0.64-0.256-2.645 2.091-7.168 4.693l-186.283 103.467zM960 768.341h-234.667v68.48c0 102.997-95.701 186.837-213.333 186.837s-213.333-82.347-213.333-183.595v-71.765h-234.667c-11.776 0-21.333-9.6-21.333-21.333v-725.333c0-11.733 9.557-21.333 21.333-21.333h896c11.733 0 21.333 9.6 21.333 21.333v725.333c0 11.776-9.6 21.376-21.333 21.376zM341.333 840.064c0 77.696 76.544 140.928 170.667 140.928s170.667-64.683 170.667-144.171v-68.48h-341.333v71.723zM658.816 348.075l-192.512-103.979c-8.619-4.949-19.072-7.893-29.781-7.893-29.995 0.043-52.523 21.035-52.523 48.896v207.36c0 27.776 23.211 48.768 54.016 48.768 10.923 0 21.504-2.688 30.677-8.021l186.325-103.509c18.432-10.667 28.757-26.197 28.757-42.923-0.128-15.445-9.088-29.525-24.96-38.699z" />
<glyph unicode="&#xe92c;" glyph-name="angel" d="M505.045 597.077c82.347 0 149.333 66.987 149.333 149.333s-66.987 149.333-149.333 149.333-149.333-66.987-149.333-149.333 67.029-149.333 149.333-149.333zM441.941 939.349h128c11.776 0 21.333 9.557 21.333 21.333s-9.557 21.333-21.333 21.333h-128c-11.776 0-21.333-9.557-21.333-21.333s9.6-21.333 21.333-21.333zM505.045 554.411c-57.941 0-109.355 26.325-144.555 67.029-91.477-117.12-174.933-357.205-175.104-520.704 0-8.149 4.565-15.659 11.947-19.243 68.011-33.28 222.464-39.083 308.693-39.509 85.973 0.469 240.469 6.229 308.437 39.509 7.339 3.584 11.904 11.093 11.904 19.243-0.171 164.053-84.181 405.12-175.915 521.771-35.2-41.301-86.955-68.096-145.408-68.096zM929.621 869.205c-5.845 19.883-22.997 33.877-43.52 35.669-20.437 1.963-40.064-8.747-49.365-27.221-32.683-64.299-88.619-127.744-144-168.96-3.712-17.323-9.6-33.877-17.493-49.323 53.76-64.085 104.533-166.144 140.757-274.645 42.752 17.237 77.184 45.355 101.803 84.736 79.701 127.829 34.816 322.176 11.819 399.744zM335.531 658.219c-10.197 19.541-17.493 40.789-20.608 63.36-49.749 40.96-98.176 98.176-127.616 156.117-9.344 18.432-28.672 29.184-49.408 27.264-20.523-1.877-37.632-15.915-43.52-35.712-22.997-77.568-67.883-271.829 11.819-399.573 22.485-36.096 53.632-62.080 91.392-79.573 35.84 105.771 85.461 205.013 137.941 268.117z" />
<glyph unicode="&#xe92d;" glyph-name="angel-smiley" d="M512 809.984c-125.653 0-220.459 45.867-220.459 106.667s94.763 106.667 220.459 106.667 220.459-45.867 220.459-106.667c-0.043-60.757-94.848-106.667-220.459-106.667zM512 683.349c-188.203 0-341.333-153.131-341.333-341.333s153.131-341.333 341.333-341.333c188.203 0 341.333 153.131 341.333 341.333s-153.173 341.333-341.333 341.333zM384 522.837c47.061 0 85.333-38.272 85.333-85.333 0-11.776-9.557-21.333-21.333-21.333s-21.333 9.557-21.333 21.333c0 23.552-19.157 42.667-42.667 42.667s-42.667-19.115-42.667-42.667c0-11.776-9.557-21.333-21.333-21.333s-21.333 9.557-21.333 21.333c0 47.019 38.229 85.333 85.333 85.333zM512 128.683c-117.632 0-213.333 95.701-213.333 213.333 0 11.733 9.557 21.333 21.333 21.333s21.333-9.6 21.333-21.333c0-94.123 76.544-170.667 170.667-170.667s170.667 76.544 170.667 170.667c0 11.733 9.557 21.333 21.333 21.333 11.733 0 21.333-9.6 21.333-21.333 0-117.632-95.744-213.333-213.333-213.333zM704 416.171c-11.776 0-21.333 9.557-21.333 21.333 0 23.552-19.157 42.667-42.667 42.667s-42.667-19.115-42.667-42.667c0-11.776-9.6-21.333-21.333-21.333-11.776 0-21.333 9.557-21.333 21.333 0 47.061 38.229 85.333 85.333 85.333 47.061 0 85.333-38.272 85.333-85.333 0-11.776-9.6-21.333-21.333-21.333zM969.088 395.435c-3.499-2.176-7.339-3.243-11.221-3.243-7.125 0-14.123 3.584-18.176 10.112-6.229 10.027-3.115 23.125 6.912 29.355 16 9.856 47.445 32.469 75.563 53.333 0.555 9.259 1.749 18.304 1.749 27.648 0 36.779-4.139 73.301-11.947 109.013-28.245-27.947-57.856-55.125-79.787-71.125-3.797-2.731-8.149-4.139-12.587-4.139-6.571 0-13.099 3.029-17.237 8.747-6.912 9.515-4.907 22.869 4.608 29.824 24.107 17.664 60.288 51.797 91.947 84.139-12.501 38.528-29.355 75.776-50.773 110.763-7.808 12.629-28.629 12.629-36.395 0-37.333-60.843-87.723-111.488-146.901-149.632 80.128-70.4 131.072-173.355 131.072-288.213 0-95.787-35.499-183.253-93.653-250.581 111.403 77.056 190.251 197.291 213.717 336.128-18.645-13.397-35.883-25.387-46.891-32.128zM259.115 630.229c-59.221 38.229-109.611 88.832-146.944 149.632-3.883 6.272-10.752 10.155-18.176 10.155s-14.293-3.883-18.176-10.155c-21.376-34.816-38.144-71.893-50.603-110.208 32.213-33.024 67.456-66.688 88.917-82.56 9.472-7.040 11.435-20.395 4.437-29.824-4.181-5.675-10.624-8.661-17.152-8.661-4.437 0-8.875 1.365-12.672 4.224-19.797 14.677-48.427 41.216-76.587 69.333-7.936-35.883-12.117-72.491-12.117-109.397 0-7.808 1.067-15.275 1.451-23.040 29.781-24.021 61.483-48.981 75.904-57.899 10.027-6.187 13.099-19.371 6.912-29.355-4.053-6.528-11.008-10.112-18.176-10.112-3.84 0-7.723 0.981-11.221 3.2-10.453 6.4-27.52 19.243-47.403 34.816 22.827-139.989 102.016-261.333 214.229-338.816-58.197 67.285-93.653 154.752-93.653 250.581-0.085 114.688 50.816 217.685 131.029 288.085z" />
<glyph unicode="&#xe92e;" glyph-name="angry" d="M768 618.667c0-35.346-28.654-64-64-64s-64 28.654-64 64c0 35.346 28.654 64 64 64s64-28.654 64-64zM384 618.667c0-35.346-28.654-64-64-64s-64 28.654-64 64c0 35.346 28.654 64 64 64s64-28.654 64-64zM512 1024c-282.325 0-512-229.675-512-512s229.675-512 512-512 512 229.675 512 512-229.675 512-512 512zM587.733 787.072l170.667 85.333c10.581 5.248 23.339 0.939 28.672-9.6 5.248-10.539 0.939-23.339-9.6-28.629l-170.667-85.333c-3.072-1.493-6.315-2.219-9.472-2.219-7.893 0-15.36 4.309-19.157 11.776-5.163 10.581-0.939 23.381 9.557 28.672zM236.928 862.891c5.291 10.539 18.091 14.805 28.629 9.557l170.667-85.333c10.539-5.291 14.805-18.091 9.557-28.629-3.755-7.424-11.264-11.776-19.115-11.776-3.2 0-6.443 0.725-9.515 2.261l-170.667 85.333c-10.581 5.205-14.848 18.048-9.557 28.587zM320 725.333c58.795 0 106.667-47.872 106.667-106.667s-47.872-106.667-106.667-106.667-106.667 47.872-106.667 106.667 47.872 106.667 106.667 106.667zM800.597 219.221c-8.832-7.68-22.357-6.699-30.080 2.219-64.896 75.307-159.147 118.4-258.517 118.4-99.669 0-194.133-43.435-259.115-119.083-4.224-4.907-10.197-7.424-16.171-7.424-4.949 0-9.856 1.707-13.909 5.163-8.917 7.68-9.941 21.163-2.304 30.080 73.088 85.163 179.371 133.973 291.499 133.973 111.787 0 217.771-48.555 290.816-133.205 7.723-8.96 6.699-22.443-2.219-30.123zM704 512c-58.795 0-106.667 47.872-106.667 106.667s47.872 106.667 106.667 106.667 106.667-47.872 106.667-106.667-47.872-106.667-106.667-106.667z" />
<glyph unicode="&#xe92f;" glyph-name="apple" d="M723.157 848.469c-51.84 0-86.997-26.539-118.101-49.963-23.509-17.749-44.757-33.067-71.467-38.827-0.469 22.315-1.579 42.795-3.413 61.355 57.045 1.92 198.187 61.483 218.112 149.419 2.389 10.539-3.499 28.885-13.696 32.469-20.864 7.381-41.301 10.069-60.629 10.069-90.411 0-137.173-77.952-156.501-122.539-22.229 73.813-69.035 101.077-154.112 101.077-11.776 0-21.333-9.557-21.333-21.333s9.557-21.333 21.333-21.333c83.157 0 124.203-19.627 127.659-189.355-27.008 5.632-48.427 20.992-72.149 38.869-31.061 23.509-66.261 50.048-118.059 50.048-152.32 0-281.003-168.917-281.003-368.896 0-199.253 134.912-363.435 261.163-450.645 17.152-11.861 36.992-17.877 59.008-17.877 43.136 0 87.125 23.125 122.453 41.728 19.115 10.069 40.789 21.461 49.579 21.461 12.587 0 35.584-12.117 57.813-23.851 34.901-18.475 74.581-39.339 114.987-39.339 21.419 0 41.003 6.016 58.155 17.877 126.251 87.211 261.205 251.392 261.205 450.645 0 200.021-128.725 368.939-281.003 368.939z" />
<glyph unicode="&#xe930;" glyph-name="apple-bite" d="M539.733 810.709c0.853 0 1.621 0.043 2.432 0.128 54.741 6.315 195.115 70.699 207.147 161.493 1.408 10.752-5.419 20.821-15.915 23.509-16.128 4.139-31.915 6.187-46.933 6.187-108.373 0-157.141-108.629-167.808-166.059-1.237-6.656 0.768-13.483 5.376-18.517 4.181-4.267 9.856-6.741 15.701-6.741zM966.869 293.376c-28.629 22.827-45.056 56.405-45.056 92.117 0 21.077 5.76 41.344 17.109 60.331 3.755 6.229 4.053 13.995 0.811 20.437-3.243 6.528-9.6 10.965-16.853 11.691-60.331 6.4-105.813 56.704-105.813 116.949 0 42.24 23.296 81.579 60.757 102.656 7.723 4.309 11.563 15.488 10.325 24.192-0.597 4.267-1.237 8.363-1.237 12.715 0 17.792 4.395 35.456 12.971 52.523 4.608 9.301 1.963 20.565-6.443 26.795-97.835 71.723-226.475 58.923-350.891-37.632-50.219 55.040-112.085 83.968-180.181 83.968-148.181 0-313.301-151.765-313.301-369.579 0-199.253 134.443-363.435 260.352-450.645 17.323-12.032 34.731-17.877 53.205-17.877 28.715 0 53.376 14.208 79.488 29.312 28.971 16.725 58.837 33.877 97.621 33.877 38.741 0 68.608-17.28 97.493-33.963 26.112-15.104 50.773-29.355 79.488-29.355v0c18.347 0 35.669 5.803 52.949 17.792 84.608 58.453 156.672 139.093 202.752 226.901 4.779 9.259 2.475 20.48-5.547 26.795z" />
<glyph unicode="&#xe931;" glyph-name="apple-store" d="M722.816 451.669l14.592 5.376c0.683 18.56-1.749 36.992-5.419 55.296l-41.173-15.147c9.088-16.341 19.413-32.043 32-45.525zM369.939 680.185l18.286 42.113 42.152-18.303-18.286-42.113-42.152 18.303zM170.667 597.333v-170.667h42.667c0.939 0 1.749-0.427 2.688-0.597l74.283 171.264h-119.637zM720.768 553.771c-20.395 58.496-55.083 110.251-79.019 139.648 0.853-38.016 8.021-99.925 30.592-157.568l48.427 17.92zM393.344 620.662l-71.168-164.085-42.117 18.267 71.168 164.085 42.117-18.267zM264.235 430.123l-12.672-29.227-1.792-61.909 43.947 43.776 12.629 29.056zM609.92 597.333h-176.597l-74.069-170.667h328.96c-42.88 48.128-66.389 112.469-78.293 170.667zM512 1002.667c-270.549 0-490.667-220.075-490.667-490.667s220.117-490.667 490.667-490.667 490.667 220.075 490.667 490.667-220.117 490.667-490.667 490.667zM874.667 384h-53.845c4.267-32.896 2.816-81.152-9.003-107.008-2.389-5.163-6.656-9.173-11.989-11.179-2.432-0.896-4.907-1.237-7.381-1.237-3.029 0-6.144 0.683-8.917 1.963-33.621 15.445-78.976 71.979-88.576 97.835-2.389 6.357-3.371 13.056-3.669 19.627h-349.952c-0.171 0-0.341 0.085-0.512 0.085l-9.6-22.101c-1.067-2.56-2.603-4.736-4.523-6.656l-84.821-84.352c-4.096-4.053-9.515-6.229-15.061-6.229-2.859 0-5.76 0.64-8.491 1.749-8.021 3.499-13.099 11.563-12.843 20.309l2.901 97.109h-59.051c-11.776 0-21.333 9.557-21.333 21.333v213.333c0 11.776 9.557 21.333 21.333 21.333h159.445l48.171 111.104c2.261 5.248 6.443 9.301 11.733 11.392 5.248 2.091 11.136 2.005 16.341-0.341l81.28-35.2c10.795-4.693 15.744-17.237 11.051-28.075l-25.557-58.837h151.125c-5.419 44.416-4.395 80.512-1.408 95.275 0.896 4.437 3.627 17.92 16.469 22.656 10.923 4.096 20.736 3.115 45.696-24.576 18.389-20.395 42.709-53.589 64.469-93.355h146.517c11.733 0 21.333-9.557 21.333-21.333v-213.333c0-11.691-9.6-21.291-21.333-21.291zM779.008 445.483c10.411-4.267 19.584-11.093 26.624-19.84 1.664 0.341 3.243 0.939 5.035 0.939h42.667v170.667h-104.405c20.395-47.147 34.091-99.925 30.080-151.765zM755.157 408.235c-2.517 0-5.035-0.512-7.467-1.323-5.376-2.005-9.728-6.016-12.117-11.264s-2.688-11.093-0.683-16.555c4.608-12.416 25.003-39.125 44.245-57.301 2.773 26.283 0.896 59.733-3.669 72.149-3.115 8.661-11.264 14.293-20.309 14.293z" />
<glyph unicode="&#xe932;" glyph-name="approved-window" d="M768 275.499c-5.163 0-10.325 1.835-14.421 5.632l-42.667 39.168c-8.704 7.979-9.259 21.461-1.237 30.123s21.504 9.259 30.080 1.237l27.776-25.472 73.472 71.979c-19.413 26.837-50.731 44.501-86.272 44.501-58.795 0-106.667-47.829-106.667-106.667s47.872-106.667 106.667-106.667 106.667 47.829 106.667 106.667c0 6.912-0.811 13.696-2.048 20.352l-76.331-74.752c-4.224-4.053-9.643-6.101-15.019-6.101zM1024 768v149.333c0 11.733-9.6 21.333-21.333 21.333h-981.333c-11.776 0-21.333-9.6-21.333-21.333v-149.333h1024zM277.333 853.333c11.776 0 21.333-9.6 21.333-21.333s-9.557-21.333-21.333-21.333-21.333 9.6-21.333 21.333 9.557 21.333 21.333 21.333zM192 853.333c11.776 0 21.333-9.6 21.333-21.333s-9.557-21.333-21.333-21.333-21.333 9.6-21.333 21.333 9.557 21.333 21.333 21.333zM106.667 853.333c11.776 0 21.333-9.6 21.333-21.333s-9.557-21.333-21.333-21.333-21.333 9.6-21.333 21.333 9.557 21.333 21.333 21.333zM0 725.333v-618.667c0-11.733 9.557-21.333 21.333-21.333h981.333c11.733 0 21.333 9.6 21.333 21.333v618.667h-1024zM953.6 448.768l-60.075-58.837c6.528-16.768 10.496-34.773 10.496-53.931 0-82.347-66.987-149.333-149.333-149.333-82.389 0-149.333 66.987-149.333 149.333s66.944 149.333 149.333 149.333c47.445 0 89.344-22.699 116.693-57.344l52.395 51.243c8.405 8.192 21.931 8.021 30.165-0.341 8.192-8.405 8.064-21.888-0.341-30.123z" />
<glyph unicode="&#xe933;" glyph-name="aquarius" horiz-adv-x="1068" d="M1043.413 902.315c-14.848 7.125-32.427 4.992-45.312-5.419l-271.787-220.501v187.435c0 16.512-9.515 31.403-24.32 38.485-14.891 7.125-32.427 4.992-45.312-5.419l-271.744-220.501v187.435c0 16.939-10.027 32.341-25.557 39.083-15.445 6.827-33.579 3.84-46.080-7.765l-299.563-276.992c-17.323-16-18.389-43.008-2.389-60.288s43.008-18.389 60.288-2.389l227.968 210.773v-179.456c0-16.469 9.472-31.36 24.32-38.443 14.891-7.168 32.427-4.992 45.269 5.333l271.829 220.587v-187.477c0-16.469 9.429-31.36 24.235-38.443 5.888-2.816 12.16-4.224 18.432-4.224 9.6 0 19.072 3.243 26.837 9.557l271.829 220.587v-186.667c0-23.595 19.072-42.667 42.667-42.667 23.509 0 42.667 19.072 42.667 42.667v276.224c0.085 16.427-9.429 31.403-24.277 38.485zM1043.413 475.648c-14.848 7.083-32.427 4.992-45.312-5.419l-271.787-220.501v187.435c0 16.512-9.515 31.403-24.32 38.485-14.891 7.083-32.427 4.992-45.312-5.419l-271.787-220.501v187.435c0 16.896-10.027 32.341-25.557 39.083-15.445 6.827-33.579 3.84-46.080-7.765l-299.563-276.992c-17.323-16-18.389-43.008-2.389-60.288s43.008-18.389 60.288-2.389l227.925 210.688v-179.456c0-16.469 9.472-31.317 24.32-38.4 14.891-7.083 32.427-4.992 45.269 5.333l271.787 220.587v-187.52c0-16.469 9.515-31.317 24.277-38.4 5.888-2.816 12.117-4.267 18.389-4.267 9.685 0 19.115 3.243 26.923 9.6l271.744 220.587v-186.667c0-23.637 19.115-42.667 42.667-42.667 23.595 0 42.667 19.029 42.667 42.667v276.267c0.213 16.427-9.301 31.403-24.149 38.485z" />
<glyph unicode="&#xe934;" glyph-name="aquarius-2" d="M688.085 910.037c-16.085-6.656-32.896-13.269-50.603-19.755-37.333-53.205-93.739-147.285-111.701-252.587-1.792-10.411-10.795-17.749-20.992-17.749-1.195 0-2.389 0.085-3.584 0.299-11.605 1.963-19.413 13.056-17.451 24.619 14.72 86.485 53.205 165.248 88.235 223.019-162.389-52.352-358.4-92.587-465.579-98.261-5.376-0.256-10.453-2.603-14.208-6.4-132.651-137.088-111.659-430.933 0.299-541.952 4.907-4.864 11.947-7.083 18.773-5.888 31.36 5.675 68.864 8.491 111.488 8.491 163.371 0 367.189-41.6 465.28-61.568-150.869 255.36-80.64 585.899 0.043 747.733zM1002.325 268.971c-32.256 0-43.221 22.912-61.995 79.275-17.408 52.139-39.723 118.144-109.995 149.632 8.149 164.48-22.528 334.293-92.16 416.384-80.725-141.312-166.229-495.787-0.555-750.421 0.384 0.427 0.939 0.64 1.28 1.024 23.808 33.835 42.923 77.013 57.557 125.397 4.395-14.763 8.021-31.488 11.776-50.261 11.776-57.984 26.496-130.304 101.163-130.304 11.776 0 21.333 9.557 21.333 21.333s-9.557 21.333-21.333 21.333c-36.053 0-45.696 29.312-59.349 96.085-7.040 34.56-15.957 75.563-37.717 106.368 6.357 31.019 11.221 63.104 14.379 95.872 42.368-26.197 58.069-71.467 73.045-116.139 16.939-50.773 36.224-108.501 102.443-108.501 11.733 0 21.333 9.6 21.333 21.333 0.043 11.861-9.429 21.589-21.205 21.589z" />
<glyph unicode="&#xe935;" glyph-name="archery" d="M998.229 488.235l-42.667 85.461c-10.539 21.163-36.139 29.611-57.216 19.157-21.077-10.496-29.653-36.181-19.157-57.259l11.819-23.595h-78.507c0 291.925-175.061 512-407.125 512-23.552 0-42.667-19.115-42.667-42.667v-469.333h-101.675l-30.805 61.696c-10.539 21.077-36.096 29.568-57.216 19.157-21.077-10.581-29.653-36.224-19.157-57.259l11.733-23.595h-32.597l-30.805 61.653c-10.496 21.163-36.096 29.611-57.216 19.157-21.077-10.496-29.653-36.181-19.157-57.259l33.237-66.645-33.28-67.413c-10.453-21.163-1.792-46.763 19.371-57.173 6.101-2.901 12.501-4.437 18.859-4.437 15.744 0 30.891 8.747 38.272 23.851l31.061 62.933h32.853l-12.373-25.173c-10.453-21.077-1.792-46.763 19.371-57.088 6.101-2.987 12.501-4.48 18.859-4.48 15.744 0 30.891 8.747 38.272 23.851l31.019 62.891h101.376v-384c0-23.595 19.115-42.667 42.667-42.667 208.811 0 370.944 178.432 401.451 426.667h84.651l-12.416-25.173c-10.411-21.077-1.749-46.677 19.413-57.088 6.101-2.987 12.501-4.437 18.816-4.437 15.744 0 30.933 8.661 38.229 23.765l42.667 86.4c5.973 12.117 5.973 26.112 0.043 38.101zM448 935.296c161.792-25.984 279.083-199.253 279.083-423.253h-279.083v423.253zM448 88.832v337.92h273.067c-25.643-181.589-132.48-315.349-273.067-337.92z" />
<glyph unicode="&#xe936;" glyph-name="archery-2" d="M785.579 170.581c100.437 80.512 165.077 203.819 165.077 342.272 0 241.835-196.736 438.613-438.656 438.613-103.509 0-198.571-36.267-273.664-96.427l106.923-121.173c46.507 35.2 104.149 56.277 166.741 56.277 152.875 0 277.333-124.416 277.333-277.333 0-152.875-124.416-277.333-277.333-277.333s-277.333 124.416-277.333 277.333c0 74.965 30.037 143.019 78.507 192.896l-106.837 121.088c-81.877-79.744-132.949-190.976-132.949-313.984 0-138.411 64.597-261.803 165.077-342.229l-107.008-112.597c-8.107-8.491-7.808-22.016 0.768-30.165 4.139-3.925 9.429-5.845 14.72-5.845 5.632 0 11.264 2.176 15.445 6.571l111.019 116.651c68.779-44.843 150.656-71.168 238.72-71.168s169.899 26.325 238.72 71.168l111.019-116.651c4.181-4.437 9.813-6.571 15.488-6.571 5.248 0 10.581 1.92 14.677 5.845 8.576 8.149 8.917 21.675 0.811 30.165l-107.264 112.597zM512 491.563c-5.888 0-11.776 2.517-16 7.211l-53.035 60.032c-8.789-13.184-13.952-28.928-13.952-45.909 0-45.739 37.248-82.987 82.987-82.987 45.781 0 83.029 37.248 83.029 82.987s-37.248 82.901-83.029 82.901c-13.312 0-25.685-3.413-36.821-9.003l52.821-59.776c7.851-8.832 6.955-22.272-1.877-30.123-4.053-3.584-9.088-5.333-14.123-5.333zM341.504 673.664c-39.68-42.027-64.171-98.56-64.171-160.811 0-129.451 105.259-234.667 234.667-234.667 129.451 0 234.667 105.259 234.667 234.667s-105.259 234.667-234.667 234.667c-51.797 0-99.584-17.024-138.453-45.611l72.789-82.432c19.157 11.819 41.557 18.987 65.664 18.987 69.291 0 125.696-56.363 125.696-125.611 0-69.291-56.405-125.611-125.696-125.611s-125.653 56.32-125.653 125.611c0 29.696 10.795 56.661 28.117 78.251l-72.96 82.56zM94.635 896.725h48.896c0.256 0 0.555 0.299 0.811 0.341l33.707-38.187 31.957 28.245-39.339 44.587v48.981c0 11.776-9.557 21.333-21.333 21.333s-21.333-9.557-21.333-21.333v-36.48c-1.408-1.493-2.816-3.029-3.669-4.821h-29.696c-11.733 0-21.333-9.6-21.333-21.333s9.515-21.333 21.333-21.333z" />
<glyph unicode="&#xe937;" glyph-name="argentina" d="M576 618.667c0-35.346-28.654-64-64-64s-64 28.654-64 64c0 35.346 28.654 64 64 64s64-28.654 64-64zM42.667 426.667v42.667h981.333v298.667h-981.333v42.667h981.333v149.333c0 11.776-9.6 21.333-21.333 21.333h-960c0 11.776-9.557 21.333-21.333 21.333s-21.333-9.557-21.333-21.333v-938.667c0-11.733 9.557-21.333 21.333-21.333s21.333 9.6 21.333 21.333v213.333h960c11.733 0 21.333 9.6 21.333 21.333v149.333h-981.333zM512 725.333c58.795 0 106.667-47.872 106.667-106.667s-47.872-106.667-106.667-106.667-106.667 47.872-106.667 106.667 47.872 106.667 106.667 106.667z" />
<glyph unicode="&#xe938;" glyph-name="aries" horiz-adv-x="1064" d="M531.968 68.352c-22.955 0-41.813 18.176-42.667 41.088-8.277 225.963-77.184 625.109-226.816 733.781-36.821 26.752-76.245 33.536-120.661 20.821-43.648-12.501-53.419-54.528-55.552-72.064-4.821-38.955 10.411-78.080 36.224-93.013 20.437-11.776 27.392-37.888 15.659-58.24-11.776-20.437-37.931-27.52-58.325-15.616-55.893 32.256-87.381 103.509-78.251 177.237 8.832 71.68 52.523 125.355 116.821 143.701 70.272 20.139 135.637 8.661 194.219-33.835 117.973-85.632 183.381-283.52 219.349-461.013 35.968 177.493 101.376 375.339 219.349 461.056 58.581 42.496 123.989 53.888 194.176 33.835 64.384-18.475 108.075-72.021 116.907-143.701 9.088-73.771-22.357-144.981-78.251-177.237-20.437-11.861-46.549-4.779-58.325 15.573-11.691 20.437-4.779 46.507 15.659 58.24 25.771 14.933 41.003 54.059 36.181 93.013-2.176 17.536-11.819 59.563-55.595 72.064-44.416 12.672-83.84 5.931-120.576-20.821-149.675-108.672-218.581-507.733-226.773-733.824-0.981-22.997-19.797-41.045-42.752-41.045z" />
<glyph unicode="&#xe939;" glyph-name="aries-2" horiz-adv-x="1042" d="M1038.464 445.867c-3.157 4.779-8.149 8.192-13.909 9.344-139.605 26.155-164.736 212.907-175.445 292.565l-0.085 0.256c-18.987 246.485-208.64 280.576-410.795 280.576-149.035 0-300.203-95.147-376.192-236.843-50.176-93.568-143.275-338.901 75.776-595.029 4.181-4.864 10.155-7.424 16.213-7.424 4.053 0 8.192 1.109 11.819 3.584 8.96 6.016 12.075 17.664 7.211 27.435-105.131 208.256-22.656 436.693 35.627 528.427 50.091 78.891 145.28 131.84 236.928 131.84 63.317 0 113.152-26.027 142.763-72.107-51.285 6.357-110.549 27.563-130.475 48.64-5.632 5.973-14.165 7.979-21.973 5.547-7.808-2.56-13.525-9.557-14.677-17.707-5.717-40.405-7.424-78.592 26.837-122.837-7.723-7.083-16.085-15.659-24.832-23.381-72.875-64.469-172.672-155.093-172.672-317.397 0-381.312 368.555-385.92 489.643-385.92 0.299 0 0.64 0 0.896 0 11.733 0 21.333 14.165 21.333 25.941 0 8.832-5.376 21.12-13.099 24.277-58.795 41.771-87.723 87.765-86.059 136.661 1.067 33.835 16.981 63.744 35.243 85.717-87.168 35.2-152.021 89.856-177.451 152.533-20.523 50.645-15.573 104.533 14.336 155.947 5.888 10.155 18.944 13.568 29.141 7.765 10.197-5.973 13.611-18.901 7.765-29.184-23.339-40.149-27.264-80.043-11.563-118.4 25.771-63.36 102.571-118.272 205.483-146.944 2.688-0.811 4.864-2.005 6.955-3.541 37.717-9.429 84.224-22.869 116.565-33.28 5.504-1.835 11.563-1.195 16.597 1.408 11.477 6.229 23.211 14.251 34.901 23.509-23.808 36.437-60.8 55.211-102.741 49.877-11.861-1.493-22.357 6.699-23.979 18.432-1.493 11.605 6.741 22.272 18.475 23.936 56.021 7.339 107.093-16.853 139.947-63.019 30.72 32.597 57.088 74.581 68.395 122.496 1.28 5.419 0.213 11.392-2.901 16.299zM760.405 592.64h-42.667c-11.776 0-21.333 9.6-21.333 21.333s9.557 21.333 21.333 21.333h42.667c11.776 0 21.333-9.6 21.333-21.333s-9.557-21.333-21.333-21.333z" />
<glyph unicode="&#xe93a;" glyph-name="army-key" d="M213.333 597.333h42.667v-170.667h-42.667v170.667zM128 597.333h42.667v-170.667h-42.667v170.667zM1002.667 597.333h-618.667v42.667c0 11.776-9.557 21.333-21.333 21.333s-21.333-9.557-21.333-21.333v-42.667h-42.667v-170.667h42.667v-42.667c0-11.776 9.557-21.333 21.333-21.333s21.333 9.557 21.333 21.333v42.667h490.667c82.347 0 149.333 66.987 149.333 149.333 0 11.776-9.6 21.333-21.333 21.333zM85.333 597.333h-42.667v42.667c0 11.776-9.557 21.333-21.333 21.333s-21.333-9.557-21.333-21.333v-256c0-11.776 9.557-21.333 21.333-21.333s21.333 9.557 21.333 21.333v42.667h42.667v170.667z" />
<glyph unicode="&#xe93b;" glyph-name="arrow-around" d="M1007.147 495.104l-90.923 86.955c-7.68 7.253-17.408 11.008-27.392 11.52 16.939 10.027 25.856 30.165 19.413 49.621-56.704 170.069-215.552 284.373-395.264 284.373-211.285 0-385.92-157.952-412.501-361.685l-25.387 23.168c-17.408 15.872-44.416 14.677-60.288-2.731-15.915-17.365-14.677-44.373 2.731-60.245l92.928-84.821c7.552-6.912 17.067-10.325 26.709-10.837-17.067-9.856-25.941-30.165-19.456-49.579 56.704-170.069 215.552-284.416 395.307-284.416 210.389 0 384.384 156.672 412.16 359.168l23.168-22.144c8.192-7.893 18.816-11.776 29.397-11.776 11.264 0 22.485 4.395 30.933 13.184 16.171 16.939 15.531 43.989-1.536 60.245zM512.981 181.675c-142.976 0-269.269 90.88-314.325 226.091-5.589 16.683-20.48 27.563-36.992 29.013 0.64 0.341 1.323 0.555 1.92 0.896l103.339 71.851c19.371 13.44 24.107 40.021 10.667 59.392-13.44 19.328-40.021 24.107-59.392 10.709l-32.896-22.955c22.016 160.981 160.384 285.525 327.723 285.525 142.933 0 269.269-90.837 314.325-226.005 5.547-16.64 20.437-27.563 36.821-28.971-0.256-0.213-0.683-0.213-0.939-0.427l-104.917-69.419c-19.669-13.013-25.045-39.467-12.032-59.136 13.013-19.712 39.467-25.003 59.179-12.075l35.669 23.68c-20.864-162.261-159.957-288.171-328.149-288.171zM512.981 657.237c-80.128 0-145.323-65.195-145.323-145.28 0-80.128 65.195-145.28 145.323-145.28 80.085 0 145.323 65.152 145.323 145.28-0.043 80.085-65.237 145.28-145.323 145.28zM512.981 452.011c-33.067 0-59.989 26.837-59.989 59.947 0 33.067 26.88 59.947 59.989 59.947s59.989-26.88 59.989-59.947c-0.043-33.024-26.923-59.947-59.989-59.947z" />
<glyph unicode="&#xe93c;" glyph-name="arrow-back" d="M293.504 512l244.821 448.896c11.349 20.651 3.669 46.549-16.981 57.856-20.651 11.264-46.592 3.627-57.856-17.024l-256-469.333c-6.955-12.715-6.955-28.16 0-40.832l256-469.333c7.765-14.208 22.357-22.229 37.504-22.229 6.912 0 13.909 1.664 20.395 5.248 20.693 11.307 28.331 37.163 17.024 57.813l-244.907 448.939zM779.093 554.667h-384c-23.552 0-42.667-19.115-42.667-42.667 0-23.509 19.115-42.667 42.667-42.667h384c23.552 0 42.667 19.157 42.667 42.667 0 23.552-19.115 42.667-42.667 42.667z" />
<glyph unicode="&#xe93d;" glyph-name="arrow-back-2" d="M877.44 0h-243.627c-10.709 0-21.035 4.096-28.928 11.349l-487.253 448.853c-8.533 7.893-13.483 18.859-13.739 30.464-0.256 11.563 4.224 22.784 12.416 31.019l487.253 489.728c8.021 8.064 18.859 12.587 30.251 12.587h243.627c17.195 0 32.811-10.368 39.381-26.283s2.987-34.261-9.131-46.464l-456.021-458.325 454.656-418.901c12.928-11.861 17.237-30.507 10.837-46.891-6.315-16.384-22.059-27.136-39.723-27.136zM650.496 85.333h117.675l-406.869 374.869c-8.533 7.893-13.483 18.859-13.739 30.464-0.256 11.563 4.224 22.784 12.416 31.019l414.933 416.981h-123.307l-443.477-445.739 442.368-407.595z" />
<glyph unicode="&#xe93e;" glyph-name="arrow-back-3" d="M633.003 1021.525c-16.981 6.059-35.925 0.768-47.317-13.184l-384-469.333c-12.843-15.701-12.843-38.315 0-54.016l384-469.333c8.235-10.112 20.437-15.659 32.981-15.659 4.736 0 9.685 0.853 14.336 2.475 16.981 6.016 28.331 22.187 28.331 40.192v938.667c0 18.048-11.349 34.133-28.331 40.192zM576 162.176l-286.208 349.824 286.208 349.781v-699.605zM789.333 1024c-23.552 0-42.667-19.115-42.667-42.667v-938.667c0-23.552 19.115-42.667 42.667-42.667s42.667 19.115 42.667 42.667v938.667c0 23.552-19.115 42.667-42.667 42.667z" />
<glyph unicode="&#xe93f;" glyph-name="arrow-barrier" d="M1024.128 618.795v85.333h-128v81.92l37.333-29.909c7.893-6.315 17.28-9.344 26.624-9.344 12.501 0 24.917 5.461 33.323 16 14.72 18.389 11.691 45.227-6.656 59.947l-106.667 85.333c-1.92 1.536-4.181 2.347-6.315 3.499-1.664 0.939-3.157 2.091-4.992 2.773-9.899 3.84-20.736 3.84-30.677 0-1.749-0.725-3.328-1.835-4.992-2.773-2.176-1.152-4.437-1.963-6.315-3.499l-106.667-85.333c-18.432-14.763-21.419-41.6-6.656-59.947 14.72-18.432 41.643-21.376 59.947-6.656l37.333 29.909v-81.92h-256v81.92l37.333-29.909c7.893-6.315 17.28-9.344 26.624-9.344 12.501 0 24.917 5.461 33.323 16 14.72 18.389 11.733 45.227-6.656 59.947l-106.667 85.333c-1.92 1.536-4.181 2.347-6.272 3.499-1.707 0.939-3.2 2.091-5.035 2.773-9.899 3.84-20.736 3.84-30.635 0-1.792-0.725-3.371-1.835-5.035-2.773-2.133-1.152-4.395-1.963-6.315-3.499l-106.667-85.333c-18.517-14.805-21.419-41.643-6.699-59.989 14.677-18.432 41.6-21.376 59.947-6.656l37.333 29.952v-81.92h-256v81.92l37.333-29.909c7.851-6.315 17.28-9.344 26.624-9.344 12.501 0 24.917 5.461 33.323 16 14.72 18.389 11.733 45.227-6.656 59.947l-106.667 85.333c-1.92 1.493-4.224 2.304-6.315 3.456-1.707 0.939-3.243 2.091-5.077 2.773-9.899 3.84-20.736 3.84-30.635 0-1.749-0.725-3.328-1.835-5.035-2.773-2.133-1.152-4.395-1.963-6.315-3.499l-106.667-85.333c-18.432-14.763-21.333-41.6-6.613-59.947 14.677-18.432 41.6-21.376 59.947-6.656l37.333 29.909v-81.92h-128v-85.333h128v-341.333h-128v-85.333h128v-42.667c0-23.552 19.115-42.667 42.667-42.667s42.667 19.115 42.667 42.667v42.667h256v-42.667c0-23.552 19.115-42.667 42.667-42.667 23.509 0 42.667 19.115 42.667 42.667v42.667h256v-42.667c0-23.552 19.072-42.667 42.667-42.667 23.552 0 42.667 19.115 42.667 42.667v42.667h128v85.333h-128v341.333h128.213zM213.461 277.461v341.333h256v-341.333h-256zM810.795 277.461h-256v341.333h256v-341.333z" />
<glyph unicode="&#xe940;" glyph-name="arrow-circle" d="M559.403 974.976c-223.872 0-411.093-158.464-454.955-368.683l-31.36 31.872c-16.555 16.811-43.563 16.939-60.373 0.469s-16.981-43.563-0.469-60.373l83.413-84.693c9.813-246.741 213.76-444.544 463.787-444.544 256.171 0 464.64 207.744 464.64 463.019-0.043 255.232-208.512 462.933-464.683 462.933zM559.403 134.315c-201.813 0-366.891 157.867-378.283 355.925l91.819 62.976c19.413 13.355 24.363 39.936 11.008 59.349s-39.893 24.405-59.307 11.008l-33.664-23.083c40.192 165.547 189.867 289.024 368.341 289.024 209.067 0 379.307-169.429 379.307-377.643s-170.027-377.557-379.221-377.557z" />
<glyph unicode="&#xe941;" glyph-name="arrow-cross" d="M993.792 537.856l-81.621 106.667c-14.293 18.731-41.088 22.272-59.819 8.021-18.688-14.336-22.229-41.088-7.979-59.819l29.141-38.059h-320.725v298.965l39.936-30.464c18.688-14.336 45.44-10.795 59.776 7.936 14.293 18.731 10.752 45.483-7.979 59.776l-106.667 81.621c-15.275 11.733-36.523 11.733-51.84 0l-106.667-81.621c-18.688-14.293-22.272-41.045-7.936-59.776 8.405-10.965 21.077-16.768 33.92-16.768 9.045 0 18.133 2.859 25.899 8.832l36.309 27.733v-296.235h-317.184l29.141 38.101c14.293 18.688 10.752 45.483-7.979 59.819-18.688 14.251-45.483 10.709-59.776-8.064l-81.621-106.667c-11.648-15.275-11.648-36.48 0-51.84l81.621-106.667c14.293-18.688 41.088-22.229 59.776-7.979 11.008 8.405 16.768 21.077 16.768 33.92 0 9.003-2.816 18.176-8.789 25.856l-29.141 38.187h317.184v-296.277l-36.309 27.776c-18.731 14.336-45.483 10.752-59.819-7.979s-10.752-45.44 7.936-59.776l106.667-81.579c7.68-5.888 16.811-8.832 25.941-8.832s18.261 2.944 25.856 8.832l106.667 81.579c18.731 14.336 22.272 41.088 8.021 59.776-14.336 18.688-41.088 22.272-59.819 7.979l-39.893-30.507v299.008h320.768l-29.141-38.144c-14.293-18.688-10.752-45.44 7.979-59.776s45.483-10.752 59.819 7.979l81.621 106.667c5.845 7.637 8.789 16.811 8.789 25.941s-2.901 18.261-8.832 25.856z" />
<glyph unicode="&#xe942;" glyph-name="arrow-down" d="M512.043 341.333c-7.040 0-14.080 1.835-20.437 5.248l-469.333 256c-20.693 11.307-28.331 37.205-17.024 57.856s37.205 28.288 57.856 17.024l448.896-244.864 448.896 244.864c20.608 11.264 46.592 3.627 57.813-17.024 11.349-20.693 3.669-46.592-16.981-57.856l-469.333-256c-6.272-3.413-13.269-5.248-20.352-5.248z" />
<glyph unicode="&#xe943;" glyph-name="arrow-down-2" d="M1018.752 575.104c11.349-20.693 3.669-46.592-16.981-57.856l-469.333-256c-6.357-3.456-13.397-5.205-20.437-5.205s-14.080 1.792-20.437 5.205l-469.333 256c-20.693 11.307-28.331 37.205-17.024 57.856s37.163 28.331 57.899 17.024l448.896-244.864 448.896 244.864c20.779 11.264 46.592 3.627 57.856-17.024zM22.229 687.872l469.333-256c6.357-3.456 13.397-5.205 20.437-5.205s14.080 1.792 20.437 5.205l469.333 256c20.693 11.307 28.331 37.205 17.024 57.856-11.349 20.693-37.163 28.288-57.899 17.024l-448.896-244.864-448.896 244.864c-20.693 11.264-46.549 3.627-57.856-17.024s-3.669-46.549 16.981-57.856z" />
<glyph unicode="&#xe944;" glyph-name="arrow-down-3" d="M980.907 661.333h-938.667c-18.048 0-34.133-11.349-40.192-28.331-6.059-16.939-0.811-35.925 13.184-47.36l469.333-384c7.851-6.443 17.451-9.685 27.008-9.685s19.157 3.2 27.008 9.685l469.333 384c13.909 11.435 19.243 30.379 13.184 47.36s-22.187 28.331-40.192 28.331zM511.573 289.792l-349.824 286.208h699.605l-349.781-286.208zM43.136 746.667h938.667c23.552 0 42.667 19.115 42.667 42.667s-19.115 42.667-42.667 42.667h-938.667c-23.552 0-42.667-19.115-42.667-42.667s19.115-42.667 42.667-42.667z" />
<glyph unicode="&#xe945;" glyph-name="arrow-down-in-circle" d="M847.744 597.163c-11.648 20.437-37.76 27.563-58.197 15.872l-277.504-158.549-277.504 158.549c-20.437 11.691-46.507 4.565-58.197-15.872s-4.565-46.507 15.872-58.197l298.667-170.667c6.571-3.755 13.867-5.675 21.163-5.675s14.592 1.92 21.163 5.675l298.667 170.667c20.48 11.648 27.563 37.76 15.872 58.197zM512 1024c-282.752 0-512-229.248-512-512 0-282.709 229.248-512 512-512s512 229.291 512 512c0 282.752-229.248 512-512 512zM512 85.333c-235.264 0-426.667 191.403-426.667 426.667s191.403 426.667 426.667 426.667c235.264 0 426.667-191.403 426.667-426.667s-191.403-426.667-426.667-426.667z" />
<glyph unicode="&#xe946;" glyph-name="arrow-fork" d="M773.333 929.408l-106.667 85.333c-2.005 1.579-4.309 2.347-6.357 3.499-1.664 0.939-3.157 2.048-4.949 2.773-9.899 3.84-20.736 3.84-30.677 0-1.835-0.725-3.328-1.835-4.992-2.773-2.091-1.152-4.437-1.92-6.315-3.499l-106.667-85.333c-18.389-14.763-21.376-41.6-6.656-59.947 14.72-18.432 41.557-21.376 59.989-6.656l37.291 29.867v-273.877c0-50.261-40.661-96-85.333-96s-85.333 45.739-85.333 96v188.544l37.333-29.867c7.893-6.315 17.28-9.344 26.624-9.344 12.544 0 24.917 5.461 33.365 16 14.763 18.389 11.733 45.227-6.656 59.947l-106.667 85.333c-15.573 12.459-37.76 12.459-53.333 0l-106.667-85.333c-18.389-14.763-21.333-41.6-6.613-59.947 14.72-18.432 41.557-21.419 59.989-6.656l37.291 29.867v-188.544c0-80.981 56.277-152.875 128-174.293v-401.664c0-23.595 19.115-42.667 42.667-42.667s42.667 19.072 42.667 42.667v401.664c71.765 21.333 128 93.355 128 174.293v273.877l37.333-29.867c7.936-6.315 17.28-9.344 26.667-9.344 12.501 0 24.917 5.461 33.323 16 14.677 18.347 11.733 45.184-6.656 59.947z" />
<glyph unicode="&#xe947;" glyph-name="arrow-forward" d="M836.992 491.605l-256-469.333c-7.808-14.165-22.357-22.229-37.504-22.229-6.912 0-13.952 1.664-20.437 5.205-20.693 11.349-28.331 37.205-17.024 57.813l244.907 448.939-244.864 448.896c-11.307 20.651-3.669 46.549 17.024 57.856 20.651 11.264 46.592 3.627 57.813-17.024l256-469.333c7.083-12.629 7.083-28.075 0.085-40.789zM651.093 512.043c0 23.552-19.115 42.667-42.667 42.667h-384c-23.552 0-42.667-19.115-42.667-42.667s19.115-42.667 42.667-42.667h384c23.552 0 42.667 19.115 42.667 42.667z" />
<glyph unicode="&#xe948;" glyph-name="arrow-forward-2" d="M907.648 521.685l-487.253 489.728c-8.021 8.064-18.901 12.587-30.251 12.587h-243.627c-17.237 0-32.811-10.368-39.381-26.283-6.613-15.915-2.987-34.261 9.131-46.464l456.021-458.325-454.656-418.944c-12.928-11.861-17.237-30.507-10.837-46.891 6.4-16.299 22.187-27.093 39.808-27.093h243.627c10.709 0 21.035 4.053 28.928 11.307l487.253 448.896c8.491 7.936 13.44 18.901 13.696 30.507 0.213 11.52-4.267 22.741-12.459 30.976zM373.461 85.333h-117.675l406.912 374.869c8.533 7.893 13.44 18.859 13.696 30.464 0.256 11.563-4.224 22.784-12.416 31.019l-414.848 416.981h123.264l443.477-445.739-442.411-407.595z" />
<glyph unicode="&#xe949;" glyph-name="arrow-forward-3" d="M822.315 539.008l-384 469.333c-11.392 13.952-30.336 19.243-47.36 13.184-16.939-6.059-28.288-22.144-28.288-40.192v-938.667c0-18.048 11.349-34.133 28.331-40.149 4.693-1.664 9.557-2.517 14.336-2.517 12.544 0 24.747 5.547 33.024 15.659l384 469.333c12.843 15.701 12.843 38.315-0.043 54.016zM448 162.176v699.605l286.208-349.781-286.208-349.824zM277.333 981.333v-938.667c0-23.552-19.115-42.667-42.667-42.667s-42.667 19.115-42.667 42.667v938.667c0 23.552 19.115 42.667 42.667 42.667s42.667-19.115 42.667-42.667z" />
<glyph unicode="&#xe94a;" glyph-name="arrow-from" d="M981.333 373.291h-768v106.667c0 57.771 59.051 64 84.437 64h465.877l-29.867-37.333c-14.763-18.475-11.733-45.312 6.656-59.947 7.893-6.315 17.237-9.387 26.581-9.387 12.587 0 24.917 5.461 33.408 16l81.835 102.357c8.32 7.808 13.653 18.688 13.653 30.976s-5.333 23.168-13.653 30.976l-81.835 102.4c-14.763 18.347-41.6 21.376-59.989 6.613s-21.376-41.6-6.656-59.947l29.909-37.333h-465.92c-101.547 0-169.771-60.032-169.771-149.333v-106.667h-85.333c-23.552 0-42.667-19.115-42.667-42.667s19.115-42.667 42.667-42.667h938.667c23.552 0 42.667 19.115 42.667 42.667 0 23.509-19.157 42.624-42.667 42.624z" />
<glyph unicode="&#xe94b;" glyph-name="arrow-inside" d="M981.333 960h-768c-23.552 0-42.667-19.115-42.667-42.667v-213.333h-128c-23.552 0-42.667-19.115-42.667-42.667s19.115-42.667 42.667-42.667h128v-213.333h-128c-23.552 0-42.667-19.115-42.667-42.667s19.115-42.667 42.667-42.667h128v-213.333c0-23.552 19.115-42.667 42.667-42.667h768c23.552 0 42.667 19.115 42.667 42.667v810.667c0 23.552-19.115 42.667-42.667 42.667zM938.667 149.333h-682.667v170.667h336.981l-29.867-37.333c-14.72-18.432-11.733-45.269 6.613-59.989 7.936-6.315 17.323-9.344 26.709-9.344 12.501 0 24.917 5.461 33.323 16l81.877 102.315c8.32 7.851 13.653 18.688 13.653 31.019s-5.333 23.168-13.653 31.019l-81.877 102.357c-14.677 18.347-41.6 21.376-59.989 6.613s-21.333-41.6-6.613-59.947l29.867-37.333h-337.024v213.333h336.981l-29.867-37.333c-14.72-18.432-11.733-45.269 6.613-59.989 7.936-6.315 17.28-9.344 26.667-9.344 12.501 0 24.917 5.461 33.323 16l81.877 102.357c8.32 7.808 13.653 18.688 13.653 30.976s-5.333 23.168-13.653 30.976l-81.877 102.4c-14.677 18.347-41.6 21.376-59.989 6.613s-21.333-41.6-6.613-59.947l29.867-37.333h-336.981v170.667h682.667v-725.419z" />
<glyph unicode="&#xe94c;" glyph-name="arrow-inside-45" d="M971.179 981.333h-682.667c-23.552 0-42.667-19.115-42.667-42.667v-322.816l-223.104-223.061c-16.683-16.725-16.683-43.648 0-60.331 8.32-8.277 19.243-12.459 30.165-12.459s21.845 4.224 30.165 12.501l162.731 162.688v-220.629l-95.104-95.104c-16.683-16.725-16.683-43.648 0-60.331 8.32-8.277 19.243-12.459 30.165-12.459s21.845 4.224 30.165 12.501l34.731 34.688v-68.523c0-23.595 19.115-42.667 42.667-42.667h682.667c23.595 0 42.667 19.072 42.667 42.667v853.333c0.085 23.552-19.029 42.667-42.581 42.667zM928.512 128h-597.333v111.189l258.816 258.731c5.845-16.597 21.248-28.587 39.851-28.587 23.595 0 42.667 19.072 42.667 42.667v85.333c0 23.552-19.072 42.667-42.667 42.667h-85.333c-23.509 0-42.667-19.115-42.667-42.667 0-18.091 11.349-33.365 27.264-39.552l-197.931-197.931v220.672l130.816 130.731c5.845-16.597 21.248-28.629 39.851-28.629 23.552 0 42.667 19.115 42.667 42.667v85.333c0 23.552-19.115 42.667-42.667 42.667h-85.333c-23.552 0-42.667-19.115-42.667-42.667 0-18.091 11.349-33.365 27.264-39.552l-69.931-69.931v194.859h597.333v-768z" />
<glyph unicode="&#xe94d;" glyph-name="arrow-inside-gap" d="M421.333 289.323l-37.333-29.909v721.92c0 23.552-19.115 42.667-42.667 42.667s-42.667-19.115-42.667-42.667v-721.835l-37.333 29.909c-18.432 14.763-45.269 11.648-59.989-6.656-14.72-18.432-11.733-45.269 6.656-59.947l106.667-85.376c1.963-1.579 4.267-2.347 6.357-3.541 1.664-0.896 3.157-2.048 4.992-2.773 4.949-1.877 10.069-3.072 15.317-3.072 5.205 0 10.368 1.195 15.275 3.029 1.835 0.768 3.328 1.835 5.035 2.773 2.133 1.109 4.395 1.963 6.315 3.499l106.667 85.333c18.389 14.72 21.376 41.557 6.656 59.947-14.677 18.475-41.515 21.461-59.947 6.699zM720 289.323l-37.333-29.909v721.92c0 23.552-19.115 42.667-42.667 42.667s-42.667-19.115-42.667-42.667v-721.835l-37.333 29.909c-18.432 14.763-45.269 11.648-59.989-6.656-14.72-18.432-11.733-45.269 6.656-59.947l106.667-85.376c1.963-1.579 4.267-2.347 6.315-3.541 1.664-0.896 3.157-2.048 4.992-2.773 4.992-1.835 10.069-3.029 15.317-3.029 5.205 0 10.368 1.195 15.232 3.029 1.835 0.768 3.328 1.835 5.077 2.773 2.091 1.109 4.395 1.963 6.272 3.499l106.667 85.333c18.389 14.72 21.376 41.557 6.613 59.947-14.549 18.432-41.387 21.419-59.819 6.656zM128 597.333h-128c-23.552 0-42.667-19.115-42.667-42.667s19.115-42.667 42.667-42.667h85.333v-469.333c0-23.552 19.115-42.667 42.667-42.667s42.667 19.115 42.667 42.667v512c0 23.552-19.115 42.667-42.667 42.667zM1024 597.333h-170.667c-23.552 0-42.667-19.115-42.667-42.667v-512c0-23.552 19.115-42.667 42.667-42.667s42.667 19.115 42.667 42.667v469.333h128c23.552 0 42.667 19.115 42.667 42.667s-19.115 42.667-42.667 42.667z" />
<glyph unicode="&#xe94e;" glyph-name="arrow-inside-gap-45" d="M755.883 920.021l-150.613-212.011c-5.205-7.211-7.936-15.872-7.936-24.704v-127.744l-37.333 29.909c-18.432 14.677-45.269 11.691-59.989-6.656-14.72-18.432-11.733-45.269 6.656-59.989l106.667-85.333c7.851-6.229 17.237-9.387 26.667-9.387s18.816 3.115 26.667 9.387l106.667 85.333c18.432 14.72 21.376 41.557 6.656 59.947-14.763 18.432-41.6 21.419-59.989 6.699l-37.333-29.909v114.091l142.848 200.917c13.568 19.2 9.088 45.824-10.069 59.477s-45.909 9.259-59.563-10.027zM85.333 683.349h-85.333c-23.552 0-42.667-19.115-42.667-42.667s19.115-42.667 42.667-42.667h42.667v-469.333c0-23.552 19.115-42.667 42.667-42.667s42.667 19.115 42.667 42.667v512c0 23.509-19.115 42.667-42.667 42.667zM1024 683.349h-128c-23.552 0-42.667-19.115-42.667-42.667v-512c0-23.552 19.115-42.667 42.667-42.667s42.667 19.115 42.667 42.667v469.333h85.333c23.552 0 42.667 19.115 42.667 42.667s-19.115 42.667-42.667 42.667zM421.333 585.472l-37.333-29.909v114.091l142.805 200.917c13.611 19.2 9.088 45.824-10.069 59.477-19.2 13.653-45.867 9.173-59.52-10.069l-150.613-212.011c-5.163-7.211-7.936-15.872-7.936-24.704v-127.744l-37.333 29.909c-18.432 14.677-45.312 11.691-59.989-6.656-14.72-18.432-11.733-45.269 6.656-59.989l106.667-85.376c7.851-6.187 17.237-9.344 26.667-9.344s18.859 3.115 26.667 9.344l106.667 85.333c18.389 14.72 21.376 41.557 6.656 59.947-14.72 18.517-41.557 21.504-59.989 6.784z" />
<glyph unicode="&#xe94f;" glyph-name="arrow-into" d="M730.667 500.053c18.432 14.72 21.376 41.557 6.656 59.989-14.677 18.347-41.643 21.376-59.947 6.613l-37.333-29.909v17.92c0 89.301-68.949 149.333-171.563 149.333h-425.813c-23.552 0-42.667-19.115-42.667-42.667s19.115-42.667 42.667-42.667h425.771c20.224 0 86.229-4.651 86.229-64v-17.92l-37.333 29.909c-18.389 14.763-45.269 11.776-59.947-6.613-14.72-18.432-11.691-45.269 6.656-59.989l106.667-85.333c7.808-6.229 17.195-9.387 26.667-9.387s18.859 3.115 26.667 9.387l106.624 85.333zM981.333 405.376h-938.667c-23.552 0-42.667-19.115-42.667-42.667s19.115-42.667 42.667-42.667h938.667c23.552 0 42.667 19.115 42.667 42.667s-19.115 42.667-42.667 42.667z" />
<glyph unicode="&#xe950;" glyph-name="arrow-join" d="M1004.459 537.429l-83.584 112.341c-14.037 18.901-40.747 22.827-59.691 8.789-18.901-14.080-22.827-40.789-8.747-59.691l32.896-44.203h-231.083c-15.829 77.995-69.077 128-143.104 128h-457.344c-23.552 0-42.667-19.115-42.667-42.667s19.115-42.667 42.667-42.667h457.344c53.717 0 61.909-58.795 62.976-85.333-1.024-26.581-9.259-85.333-62.976-85.333h-457.344c-23.552 0-42.667-19.115-42.667-42.667s19.115-42.667 42.667-42.667h457.344c74.027 0 127.275 50.005 143.104 128h231.083l-32.896-44.203c-14.080-18.859-10.155-45.611 8.747-59.691 7.68-5.675 16.597-8.363 25.429-8.363 13.099 0 25.899 5.973 34.304 17.195l83.584 112.341c11.179 14.976 11.179 35.669-0.043 50.816z" />
<glyph unicode="&#xe951;" glyph-name="arrow-junction" d="M853.76 810.624c0 12.288-5.333 23.168-13.653 30.976l-81.877 102.4c-14.72 18.347-41.6 21.376-59.947 6.613-18.432-14.763-21.419-41.6-6.656-59.947l29.781-37.333h-166.315v128c0 23.552-19.115 42.667-42.667 42.667s-42.667-19.115-42.667-42.667v-128h-128c-23.552 0-42.667-19.115-42.667-42.667s19.115-42.667 42.667-42.667h128v-170.667h-168.064l29.867 37.333c14.72 18.389 11.733 45.227-6.699 59.947-18.347 14.763-45.227 11.776-59.947-6.613l-85.333-106.667c-12.459-15.616-12.459-37.803 0-53.333l85.333-106.667c8.405-10.539 20.821-16 33.323-16 9.344 0 18.773 2.987 26.624 9.344 18.432 14.763 21.419 41.6 6.699 59.989l-29.867 37.333h168.064v-469.333c0-23.552 19.115-42.667 42.667-42.667s42.667 19.115 42.667 42.667v469.333h128c23.552 0 42.667 19.115 42.667 42.667s-19.115 42.667-42.667 42.667h-128v170.667h166.315l-29.867-37.333c-14.72-18.432-11.733-45.269 6.613-59.989 7.936-6.315 17.323-9.344 26.667-9.344 12.501 0 24.917 5.461 33.323 16l81.877 102.357c8.405 7.808 13.739 18.645 13.739 30.933z" />
<glyph unicode="&#xe952;" glyph-name="arrow-left" d="M640.085 0c-15.104 0-29.739 8.021-37.504 22.229l-256 469.333c-6.955 12.672-6.955 28.075 0 40.832l256 469.333c11.307 20.651 37.163 28.331 57.813 17.024s28.331-37.205 16.981-57.856l-244.779-448.896 244.821-448.896c11.349-20.651 3.669-46.592-16.981-57.813-6.443-3.627-13.44-5.291-20.352-5.291z" />
<glyph unicode="&#xe953;" glyph-name="arrow-left-2" d="M592.085 63.104c11.349-20.651 3.669-46.592-16.981-57.813-6.485-3.541-13.483-5.205-20.437-5.205-15.104 0-29.696 8.021-37.461 22.229l-256 469.333c-6.955 12.672-6.955 28.075 0 40.832l256 469.333c11.307 20.651 37.163 28.331 57.899 17.024 20.693-11.307 28.331-37.205 16.981-57.856l-244.821-448.939 244.821-448.939zM517.973 512l244.864 448.896c11.307 20.651 3.669 46.549-17.024 57.856-20.693 11.264-46.592 3.627-57.856-17.024l-256-469.333c-6.955-12.757-6.955-28.16 0-40.832l256-469.333c7.723-14.251 22.315-22.229 37.461-22.229 6.912 0 13.867 1.664 20.395 5.205 20.693 11.307 28.331 37.205 17.024 57.856l-244.864 448.939z" />
</font>
</defs>
</svg>
