<?xml version="1.0" standalone="no"?>
<!DOCTYPE svg PUBLIC "-//W3C//DTD SVG 1.1//EN" "http://www.w3.org/Graphics/SVG/1.1/DTD/svg11.dtd" >
<svg xmlns="http://www.w3.org/2000/svg">
<metadata>Generated by IcoMoon</metadata>
<defs>
<font id="nifty-demo-icons" horiz-adv-x="1024">
<font-face units-per-em="1024" ascent="1024" descent="0" />
<missing-glyph horiz-adv-x="1024" />
<glyph unicode="&#x20;" horiz-adv-x="194.56" d="" />
<glyph unicode="&#xe900;" glyph-name="pli-add" d="M512 21.333c-270.549 0-490.667 220.117-490.667 490.667s220.117 490.667 490.667 490.667 490.667-220.117 490.667-490.667-220.117-490.667-490.667-490.667zM512 960c-247.040 0-448-200.96-448-448s200.96-448 448-448 448 200.96 448 448-200.96 448-448 448zM704 490.667h-384c-11.776 0-21.333 9.557-21.333 21.333s9.557 21.333 21.333 21.333h384c11.733 0 21.333-9.557 21.333-21.333s-9.6-21.333-21.333-21.333zM512 298.667c-11.776 0-21.333 9.6-21.333 21.333v384c0 11.776 9.557 21.333 21.333 21.333s21.333-9.557 21.333-21.333v-384c0-11.733-9.557-21.333-21.333-21.333z" />
<glyph unicode="&#xe901;" glyph-name="pli-add-cart" d="M846.208 245.376h-469.333c-8.789 0-16.683 5.419-19.883 13.568l-177.237 455.765h-94.421v-42.667c0-11.733-9.557-21.333-21.333-21.333-11.733 0-21.333 9.6-21.333 21.333v64c0 11.733 9.6 21.333 21.333 21.333h130.432c8.747 0 16.683-5.419 19.883-13.568l177.195-455.765h440.021l98.987 259.883-592.043 81.664c-11.648 1.579-19.883 12.373-18.261 24.021 1.579 11.563 12.032 19.584 24.021 18.219l618.667-85.333c6.4-0.896 12.117-4.608 15.403-10.24 3.328-5.589 3.925-12.373 1.579-18.475l-113.792-298.667c-3.029-8.277-11.008-13.739-19.883-13.739zM488.277 178.987c28.8 0 52.139-23.381 52.139-52.139 0-28.928-23.339-52.267-52.139-52.267s-52.139 23.381-52.139 52.267c0.043 28.757 23.424 52.139 52.139 52.139zM488.277 221.653c-52.309 0-94.805-42.539-94.805-94.805 0-52.395 42.496-94.933 94.805-94.933 52.267 0 94.805 42.539 94.805 94.933 0.043 52.267-42.539 94.805-94.805 94.805v0zM734.848 178.987c28.8 0 52.139-23.381 52.139-52.139 0-28.928-23.339-52.267-52.139-52.267-28.843 0-52.181 23.381-52.181 52.267 0 28.757 23.339 52.139 52.181 52.139zM734.848 221.653c-52.309 0-94.848-42.539-94.848-94.805 0-52.395 42.539-94.933 94.848-94.933 52.267 0 94.805 42.539 94.805 94.933-0.043 52.267-42.581 94.805-94.805 94.805v0zM832 736.043c-11.733 0-21.333 9.6-21.333 21.333v213.333c0 11.733 9.6 21.333 21.333 21.333 11.776 0 21.333-9.6 21.333-21.333v-213.333c0-11.733-9.557-21.333-21.333-21.333zM938.667 842.709h-213.333c-11.733 0-21.333 9.6-21.333 21.333s9.6 21.333 21.333 21.333h213.333c11.776 0 21.333-9.6 21.333-21.333s-9.557-21.333-21.333-21.333z" />
<glyph unicode="&#xe902;" glyph-name="pli-add-user" d="M517.333 282.667c-126.507 0-229.589 137.387-239.232 258.901-28.459 8.021-54.101 31.488-54.101 61.099v85.333c0 26.667 25.813 45.909 42.667 55.637v72.363c0 80.896 64.64 146.944 144.939 149.248 17.152 6.869 84.736 32.085 153.728 32.085 110.080 0 170.667-64.427 170.667-181.333v-65.877c42.667-8.32 42.667-42.581 42.667-62.123v-85.333c0-29.696-13.483-51.84-35.243-60.245-8.192-126.080-102.187-259.755-226.091-259.755zM565.333 954.667c-69.205 0-140.245-29.952-140.928-30.293-2.645-1.109-5.504-1.707-8.405-1.707-58.795 0-106.667-47.829-106.667-106.667v-85.333c0-8.363-4.949-16-12.587-19.456-15.189-6.869-29.269-18.645-30.123-23.381v-85.163c0-9.387 17.92-21.333 32-21.333 11.776 0 21.333-9.557 21.333-21.333 0-105.643 91.051-234.667 197.333-234.667 103.637 0 184.021 126.165 184.021 234.667 0 11.776 9.557 21.333 21.333 21.333 8.832 0 13.355 7.168 13.355 21.333v85.333c0 21.333 0 21.333-21.333 21.333-11.733 0-21.333 9.557-21.333 21.333v85.333c0 93.312-41.813 138.667-128 138.667zM842.667 26.667c-11.733 0-21.333 9.557-21.333 21.333v213.333c0 11.776 9.6 21.333 21.333 21.333s21.333-9.557 21.333-21.333v-213.333c0-11.776-9.6-21.333-21.333-21.333zM949.333 133.333h-213.333c-11.733 0-21.333 9.557-21.333 21.333s9.6 21.333 21.333 21.333h213.333c11.733 0 21.333-9.557 21.333-21.333s-9.6-21.333-21.333-21.333zM74.667 26.667c-11.776 0-21.333 9.557-21.333 21.333 0 123.563 98.688 213.333 234.667 213.333h52.608l56.789 84.736c6.571 9.771 19.797 12.416 29.611 5.845 9.771-6.528 12.416-19.797 5.845-29.568l-63.104-94.208c-3.968-5.931-10.624-9.472-17.749-9.472h-64c-113.024 0-192-70.229-192-170.667 0-11.776-9.557-21.333-21.333-21.333z" />
<glyph unicode="&#xe903;" glyph-name="pli-add-user-star" horiz-adv-x="1252" d="M1123.84 43.008c-11.733 0-21.333 9.6-21.333 21.333v213.333c0 11.776 9.6 21.333 21.333 21.333s21.333-9.557 21.333-21.333v-213.333c0-11.861-9.6-21.333-21.333-21.333zM1230.507 149.675h-213.333c-11.733 0-21.333 9.6-21.333 21.333 0 11.776 9.6 21.333 21.333 21.333h213.333c11.733 0 21.333-9.557 21.333-21.333s-9.6-21.333-21.333-21.333zM787.627 221.013c-128.811 0-200.875 135.595-207.104 269.525-32.043 7.083-75.392 28.416-75.392 63.104v89.003c0 27.477 25.856 47.232 42.667 57.301v76.117c0 79.701 53.035 130.005 138.88 132.48 68.096 46.592 131.243 70.229 187.819 70.229 51.627 0 95.104-20.48 122.325-57.813 28.928-39.552 36.437-94.635 20.352-148.053v-66.347c42.667-8.576 42.667-43.733 42.667-63.915v-88.96c0-32.939-39.083-55.765-71.211-63.104-5.76-136.917-74.539-269.568-201.003-269.568zM874.539 936.235c-48.555 0-106.88-22.869-168.789-66.304-3.584-2.56-7.936-3.883-12.245-3.883-38.485 0-103.040-11.563-103.040-89.899v-88.917c0-8.192-4.821-15.744-12.288-19.285-16.043-7.637-30.336-20.437-30.379-25.216v-89.003c2.688-7.765 34.688-23.168 53.632-23.168 11.776 0 21.333-9.557 21.333-21.333 0-102.016 51.157-245.632 164.821-245.632 116.437 0 158.72 146.859 158.72 245.632 0 11.776 9.557 21.333 21.333 21.333 19.499 0 47.872 15.872 49.536 23.509v88.661c0 23.168 0 23.168-21.333 23.168-11.733 0-21.333 9.6-21.333 21.333v88.917c0 2.304 0.341 4.437 0.981 6.485 13.312 41.515 8.32 83.755-13.141 113.109-19.243 26.496-49.579 40.491-87.808 40.491zM355.541 557.184c-4.437 0-8.917 1.365-12.672 4.267l-115.157 85.12-115.072-82.731c-7.509-5.376-17.664-5.291-25.131 0.171-7.467 5.547-10.496 15.232-7.509 24.021l43.563 128.171-114.176 77.227c-7.765 5.248-11.179 15.061-8.448 24.021s11.008 15.104 20.437 15.104h142.293l43.947 135.339c5.76 17.579 34.859 17.579 40.576 0l43.989-135.339h142.293c9.387 0 17.664-6.144 20.437-15.104 2.688-8.96-0.768-18.688-8.491-24.021l-114.219-76.843 43.605-131.2c2.944-8.832-0.171-18.56-7.723-24.021-3.755-2.859-8.149-4.181-12.544-4.181zM227.84 694.272c4.437 0 8.917-1.28 12.672-4.181l73.429-54.357-27.477 82.731c-3.029 9.131 0.384 19.072 8.277 24.448l69.675 46.848h-87.893c-9.259 0-17.451 5.973-20.309 14.763l-28.459 87.637-28.459-87.68c-2.859-8.789-11.051-14.72-20.352-14.72h-88.149l70.016-47.36c8.021-5.376 11.349-15.317 8.235-24.448l-27.392-80.555 73.643 52.949c3.797 2.603 8.107 3.925 12.544 3.925zM270.507 43.008c-11.776 0-21.333 9.6-21.333 21.333 0 123.563 98.688 213.333 234.667 213.333h52.565l56.789 84.736c6.571 9.771 19.797 12.459 29.611 5.845 9.771-6.485 12.416-19.797 5.845-29.568l-63.104-94.165c-3.968-5.973-10.624-9.515-17.749-9.515h-64c-113.024 0-192-70.229-192-170.667 0.043-11.861-9.557-21.333-21.291-21.333z" />
<glyph unicode="&#xe904;" glyph-name="pli-address-book" d="M896 0h-832c-11.776 0-21.333 9.6-21.333 21.333v981.333c0 11.776 9.557 21.333 21.333 21.333h789.333c70.571 0 128-57.429 128-128v-810.667c0-47.104-38.229-85.333-85.333-85.333zM85.333 42.667h810.667c23.509 0 42.667 19.115 42.667 42.667v810.667c0 47.019-38.229 85.333-85.333 85.333h-768v-938.667zM149.333 21.333c-11.776 0-21.333 9.6-21.333 21.333v938.667c0 11.776 9.557 21.333 21.333 21.333s21.333-9.557 21.333-21.333v-938.667c0-11.733-9.557-21.333-21.333-21.333zM554.667 554.667c-70.571 0-128 57.429-128 128s57.429 128 128 128c70.571 0 128-57.429 128-128s-57.429-128-128-128zM554.667 768c-47.061 0-85.333-38.315-85.333-85.333 0-47.061 38.272-85.333 85.333-85.333 47.104 0 85.333 38.272 85.333 85.333 0 47.019-38.229 85.333-85.333 85.333zM790.187 213.333c-0.256 0-0.555 0-0.853 0h-469.333c-11.776 0-21.333 9.6-21.333 21.333 0 168.448 100.48 277.333 256 277.333 153.685 0 253.483-106.155 255.957-271.147 0.64-2.005 0.896-4.096 0.896-6.187 0-11.733-9.557-21.333-21.333-21.333zM341.931 256h425.472c-8.661 156.8-113.92 213.333-212.693 213.333s-204.075-56.533-212.779-213.333z" />
<glyph unicode="&#xe905;" glyph-name="pli-arrow-down" d="M512 362.667c-3.541 0-7.040 0.896-10.197 2.645l-469.333 256c-10.325 5.589-14.165 18.56-8.491 28.928 5.632 10.325 18.688 14.165 28.928 8.533l459.093-250.453 459.136 250.453c10.325 5.632 23.339 1.792 28.971-8.533 5.632-10.368 1.835-23.296-8.533-28.928l-469.333-256c-3.2-1.749-6.699-2.645-10.24-2.645z" />
<glyph unicode="&#xe906;" glyph-name="pli-arrow-left" d="M640 21.333c-7.552 0-14.891 4.011-18.688 11.136l-256 469.333c-3.499 6.315-3.499 14.080 0 20.437l256 469.333c5.632 10.325 18.688 14.165 28.928 8.533 10.368-5.675 14.165-18.603 8.533-28.928l-250.496-459.179 250.453-459.136c5.632-10.368 1.835-23.296-8.533-28.971-3.2-1.707-6.699-2.56-10.197-2.56z" />
<glyph unicode="&#xe907;" glyph-name="pli-arrow-left-2" d="M554.667 21.333c-7.552 0-14.891 4.011-18.688 11.136l-256 469.333c-3.499 6.315-3.499 14.080 0 20.437l256 469.333c5.675 10.325 18.645 14.165 28.928 8.533 10.368-5.675 14.165-18.603 8.533-28.928l-250.496-459.179 250.453-459.136c5.632-10.368 1.835-23.296-8.533-28.971-3.2-1.707-6.699-2.56-10.197-2.56zM725.333 21.333c-7.552 0-14.891 4.011-18.688 11.136l-256 469.333c-3.499 6.315-3.499 14.080 0 20.437l256 469.333c5.632 10.325 18.645 14.165 28.928 8.533 10.368-5.675 14.165-18.603 8.533-28.928l-250.496-459.179 250.453-459.136c5.632-10.368 1.835-23.296-8.533-28.971-3.2-1.707-6.699-2.56-10.197-2.56z" />
<glyph unicode="&#xe908;" glyph-name="pli-arrow-out-right" d="M906.496 384c-4.651 0-9.429 1.536-13.355 4.651-9.216 7.339-10.667 20.736-3.285 29.995l74.581 93.355-74.581 93.312c-7.381 9.173-5.931 22.656 3.285 29.995 9.301 7.381 22.656 5.888 29.995-3.328l85.291-106.667c6.229-7.808 6.229-18.859 0-26.667l-85.291-106.667c-4.181-5.248-10.368-7.979-16.64-7.979zM970.923 490.667h-938.667c-11.733 0-21.333 9.557-21.333 21.333s9.6 21.333 21.333 21.333h938.667c11.733 0 21.333-9.557 21.333-21.333s-9.6-21.333-21.333-21.333z" />
<glyph unicode="&#xe909;" glyph-name="pli-arrow-right" d="M384 21.291c-3.456 0-6.955 0.896-10.197 2.645-10.368 5.675-14.165 18.603-8.533 28.971l250.453 459.093-250.453 459.179c-5.632 10.325-1.835 23.253 8.533 28.928 10.283 5.632 23.296 1.792 28.928-8.533l256-469.333c3.499-6.357 3.499-14.123 0-20.437l-256-469.333c-3.883-7.125-11.179-11.179-18.731-11.179z" />
<glyph unicode="&#xe90a;" glyph-name="pli-arrow-right-2" d="M469.333 21.291c-3.456 0-6.955 0.896-10.197 2.645-10.368 5.675-14.165 18.603-8.533 28.971l250.453 459.093-250.453 459.136c-5.632 10.325-1.835 23.253 8.533 28.928 10.283 5.632 23.296 1.792 28.928-8.533l256-469.333c3.499-6.357 3.499-14.123 0-20.437l-256-469.333c-3.883-7.083-11.179-11.136-18.731-11.136zM298.667 21.291c-3.456 0-6.955 0.896-10.197 2.645-10.368 5.675-14.165 18.603-8.533 28.971l250.453 459.093-250.453 459.093c-5.632 10.325-1.835 23.253 8.533 28.928 10.283 5.632 23.296 1.792 28.928-8.533l256-469.333c3.499-6.357 3.499-14.123 0-20.437l-256-469.333c-3.883-7.040-11.179-11.093-18.731-11.093z" />
<glyph unicode="&#xe90b;" glyph-name="pli-arrow-up" d="M981.333 362.667c-3.456 0-6.955 0.853-10.197 2.688l-459.136 250.325-459.136-250.453c-10.283-5.675-23.339-1.835-28.971 8.491s-1.835 23.253 8.533 28.971l469.333 256c6.315 3.499 14.080 3.499 20.437 0l469.333-256c10.325-5.675 14.165-18.645 8.491-28.971-3.84-7.040-11.136-11.051-18.688-11.051z" />
<glyph unicode="&#xe90c;" glyph-name="pli-back" d="M394.667 405.333c-5.717 0-11.435 2.304-15.616 6.827l-138.667 149.333c-7.595 8.192-7.595 20.864 0 29.056l138.667 149.333c8.021 8.619 21.504 9.131 30.165 1.109 8.619-8.021 9.131-21.504 1.109-30.165l-125.184-134.827 125.184-134.827c8.021-8.661 7.509-22.187-1.109-30.165-4.139-3.797-9.344-5.675-14.549-5.675zM684.459 341.333h-172.459c-11.776 0-21.333 9.6-21.333 21.333s9.557 21.333 21.333 21.333h172.459c46.080 0 83.541 37.461 83.541 83.541 0 49.664-37.461 87.125-83.541 87.125h-428.459c-11.776 0-21.333 9.557-21.333 21.333s9.557 21.333 21.333 21.333h428.459c69.589 0 126.208-56.619 126.208-126.208 0-73.173-56.619-129.792-126.208-129.792zM512 0c-282.325 0-512 229.675-512 512s229.675 512 512 512 512-229.675 512-512-229.675-512-512-512zM512 981.333c-258.773 0-469.333-210.56-469.333-469.333 0-258.731 210.56-469.333 469.333-469.333 258.731 0 469.333 210.603 469.333 469.333 0 258.773-210.603 469.333-469.333 469.333z" />
<glyph unicode="&#xe90d;" glyph-name="pli-bag-coin" d="M766.080 533.333c-11.733 0-21.333 9.6-21.333 21.333v298.667c0 88.405-75.008 128-149.333 128h-42.667c-74.325 0-149.333-39.595-149.333-128v-298.667c0-11.733-9.557-21.333-21.333-21.333-11.733 0-21.333 9.6-21.333 21.333v298.667c0 100.48 79.019 170.667 192 170.667h42.667c113.024 0 192-70.187 192-170.667v-298.667c0-11.733-9.557-21.333-21.333-21.333zM659.413 0h-576c-6.869 0-13.312 3.285-17.323 8.875-4.011 5.547-5.077 12.715-2.859 19.2l213.333 640c2.859 8.704 11.008 14.592 20.181 14.592h554.667c9.259 0 17.493-6.016 20.352-14.848l89.173-278.144c3.584-11.221-2.645-23.211-13.781-26.837-11.264-3.499-23.253 2.688-26.837 13.824l-84.48 263.253h-523.733l-199.125-597.333h546.432c11.776 0 21.333-9.6 21.333-21.333s-9.557-21.248-21.333-21.248zM813.824 67.968c-48 0-80.299 28.331-80.299 70.443 0 11.691 9.557 21.333 21.333 21.333s21.333-9.643 21.333-21.333c0-25.088 26.325-27.776 37.632-27.776s37.589 2.688 37.589 27.776c0 15.104-3.157 18.133-37.632 35.072l-18.645 9.301c-34.475 16.896-61.568 30.336-61.568 73.472 0 41.771 33.024 70.869 80.299 70.869 47.488 0 79.403-28.501 79.403-70.869 0-11.733-9.6-21.333-21.333-21.333-11.776 0-21.333 9.6-21.333 21.333 0 25.472-25.771 28.203-36.736 28.203-11.307 0-37.632-2.731-37.632-28.203 0-15.147 3.157-18.176 37.76-35.157l18.688-9.259c34.347-16.896 61.397-30.336 61.397-73.429 0-42.112-32.256-70.443-80.256-70.443zM811.733 330.667c-5.547 0-11.093 2.133-14.933 6.016-4.309 4.352-6.4 9.771-6.4 15.317s2.133 11.093 6.4 15.019c7.68 8.021 21.76 8.021 29.824 0.469 4.309-4.693 6.4-9.813 6.4-15.36s-2.133-10.667-5.973-15.019c-4.651-4.309-10.155-6.443-15.317-6.443zM790.315 352h42.667v-51.584h-42.667v51.584zM811.733 21.333c-5.547 0-11.093 2.133-14.933 6.016-4.309 4.651-6.4 9.771-6.4 15.317s2.133 10.667 5.973 15.019c8.96 8.448 22.613 8.021 30.293 0.469 4.309-4.395 6.4-9.813 6.4-15.36s-2.603-11.093-6.4-15.232c-3.84-4.096-9.387-6.229-14.933-6.229zM790.315 94.251h42.667v-51.584h-42.667v51.584z" />
<glyph unicode="&#xe90e;" glyph-name="pli-bar-chart" d="M41.771 1024h42.667v-1024h-42.667v1024zM0 85.76h1024v-42.667h-1024v42.667zM489.771 128.427h-85.333c-11.733 0-21.333 9.6-21.333 21.333v384c0 11.776 9.6 21.333 21.333 21.333h85.333c11.776 0 21.333-9.557 21.333-21.333v-384c0-11.776-9.557-21.333-21.333-21.333zM425.771 171.093h42.667v341.333h-42.667v-341.333zM276.437 128.427h-85.333c-11.733 0-21.333 9.6-21.333 21.333v213.333c0 11.776 9.6 21.333 21.333 21.333h85.333c11.776 0 21.333-9.557 21.333-21.333v-213.333c0-11.776-9.557-21.333-21.333-21.333zM212.437 171.093h42.667v170.667h-42.667v-170.667zM703.104 128.427h-85.333c-11.733 0-21.333 9.6-21.333 21.333v213.333c0 11.776 9.6 21.333 21.333 21.333h85.333c11.733 0 21.333-9.557 21.333-21.333v-213.333c0-11.776-9.6-21.333-21.333-21.333zM639.104 171.093h42.667v170.667h-42.667v-170.667zM916.437 128.427h-85.333c-11.733 0-21.333 9.6-21.333 21.333v426.667c0 11.776 9.6 21.333 21.333 21.333h85.333c11.733 0 21.333-9.557 21.333-21.333v-426.667c0-11.776-9.6-21.333-21.333-21.333zM852.437 171.093h42.667v384h-42.667v-384zM169.771 407.595c-6.059 0-12.075 2.56-16.299 7.509-7.595 9.003-6.485 22.443 2.517 30.080l298.624 252.459c8.448 7.125 20.992 6.656 28.928-1.237l153.771-154.155 244.437 246.571c8.363 8.32 21.973 8.448 30.165 0.128 8.363-8.32 8.448-21.803 0.171-30.165l-259.499-261.803c-4.011-4.011-9.472-6.315-15.104-6.315-3.968-0.725-11.136 2.261-15.104 6.229l-155.179 155.435-283.605-239.787c-4.053-3.371-8.96-4.949-13.824-4.949z" />
<glyph unicode="&#xe90f;" glyph-name="pli-basket-coins" d="M981.333 522.667h-938.667c-11.776 0-21.333 9.6-21.333 21.333s9.557 21.333 21.333 21.333h938.667c11.733 0 21.333-9.6 21.333-21.333s-9.6-21.333-21.333-21.333zM810.667 96h-597.333c-10.069 0-18.773 7.083-20.864 16.896l-85.333 405.333c-2.432 11.563 4.949 22.784 16.469 25.301 11.563 2.176 22.869-4.907 25.259-16.555l81.792-388.437h562.688l81.792 388.437c2.475 11.563 13.696 18.944 25.301 16.555 11.52-2.517 18.859-13.739 16.427-25.301l-85.333-405.333c-2.133-9.813-10.795-16.896-20.864-16.896zM682.667 629.333c-11.733 0-21.333 9.6-21.333 21.333 0 129.365-105.259 234.667-234.667 234.667s-234.667-105.301-234.667-234.667c0-11.733-9.557-21.333-21.333-21.333s-21.333 9.6-21.333 21.333c0 152.917 124.416 277.333 277.333 277.333s277.333-124.416 277.333-277.333c0-11.733-9.6-21.333-21.333-21.333zM896 629.333c-11.733 0-21.333 9.6-21.333 21.333 0 129.365-105.259 234.667-234.667 234.667-11.733 0-21.333 9.6-21.333 21.333s9.6 21.333 21.333 21.333c152.917 0 277.333-124.416 277.333-277.333 0-11.733-9.6-21.333-21.333-21.333zM455.893 623.232c-11.776 0-21.333 9.557-21.333 21.333 0 9.813 0 11.435-29.141 25.771l-15.488 7.68c-28.416 13.995-52.949 26.069-52.949 64.043 0 36.693 28.843 62.336 70.101 62.336 40.875 0 69.419-25.643 69.419-62.336 0-11.691-9.557-21.333-21.333-21.333s-21.333 9.643-21.333 21.333c0 16.299-14.549 19.669-26.752 19.669-8.235 0-27.435-1.92-27.435-19.669 0-9.813 0-11.435 29.141-25.771l15.488-7.723c28.416-13.952 52.949-26.027 52.949-64 0-11.776-9.557-21.333-21.333-21.333zM405.333 800c-5.547 0-11.093 2.133-14.933 6.016-4.267 4.309-6.4 9.771-6.4 15.317s2.133 11.563 6.4 15.36c7.68 7.253 21.333 7.68 29.867 0 4.267-4.352 6.4-9.813 6.4-15.36s-2.133-10.667-5.973-14.933c-4.693-4.267-9.813-6.4-15.36-6.4zM384 821.333h42.667v-42.667h-42.667v42.667z" />
<glyph unicode="&#xe910;" glyph-name="pli-bell" d="M1002.667 128h-981.333c-11.776 0-21.333 9.6-21.333 21.333v107.989c0 41.003 27.605 77.397 67.157 88.576 29.44 8.235 60.843 31.872 60.843 208.811 0 211.755 172.288 384 384 384s384-172.245 384-384c0-176.896 31.403-200.533 60.885-208.811 39.552-11.136 67.115-47.531 67.115-88.576v-107.947c0-11.776-9.6-21.376-21.333-21.376zM42.667 170.667h938.667v86.656c0 21.973-14.848 41.515-36.011 47.403-67.072 18.859-91.989 86.613-91.989 249.941 0 188.203-153.131 341.333-341.333 341.333s-341.333-153.131-341.333-341.333c0-163.328-24.917-231.083-91.989-249.899-21.205-6.016-36.011-25.515-36.011-47.445v-86.656zM512 0c-82.347 0-149.333 66.987-149.333 149.333 0 11.733 9.557 21.333 21.333 21.333s21.333-9.6 21.333-21.333c0-58.795 47.872-106.667 106.667-106.667s106.667 47.872 106.667 106.667c0 11.733 9.6 21.333 21.333 21.333s21.333-9.6 21.333-21.333c0-82.347-66.987-149.333-149.333-149.333zM596.736 885.931c-0.811 0-1.579 0.043-2.432 0.085-11.648 1.365-20.139 11.904-18.773 23.637 0.299 2.517 0.469 5.12 0.469 7.68 0 35.328-28.715 64-64 64s-64-28.715-64-64c0-2.603 0.171-5.12 0.427-7.552 1.365-11.691-7.040-22.272-18.731-23.637-11.733-1.536-22.315 7.083-23.637 18.731-0.469 4.053-0.725 8.192-0.725 12.459 0 58.795 47.872 106.667 106.667 106.667s106.667-47.872 106.667-106.667c0-4.224-0.256-8.363-0.768-12.459-1.195-10.923-10.411-18.944-21.163-18.944z" />
<glyph unicode="&#xe911;" glyph-name="pli-boot-2" d="M894.677 0h-202.667c-55.723 0-215.040 35.285-245.333 42.069v-20.736c0-11.733-9.557-21.333-21.333-21.333h-213.333c-11.733 0-21.333 9.6-21.333 21.333v106.667c0 11.733 9.6 21.333 21.333 21.333 11.776 0 21.333-9.6 21.333-21.333v-85.333h170.667v21.333c0 11.733 9.6 21.333 21.333 21.333h21.333c1.621 0 3.2-0.171 4.736-0.597 1.835-0.384 184.96-42.069 240.597-42.069h181.333v42.667h-42.667c-11.733 0-21.333 9.6-21.333 21.333s9.6 21.333 21.333 21.333h64c11.776 0 21.333-9.6 21.333-21.333v-85.333c0-11.733-9.557-21.333-21.333-21.333zM873.344 85.333h-661.333c-11.008 0-20.224 8.405-21.248 19.371l-82.688 896c-0.555 5.931 1.451 11.904 5.461 16.341 4.053 4.437 9.771 6.955 15.787 6.955h373.333c5.888 0 11.563-2.475 15.531-6.784 4.096-4.267 6.144-10.069 5.76-15.957l-34.688-530.688c0.043-64.341 55.893-175.531 264.917-175.531 43.179 0 84.096-22.144 112.256-60.715 29.611-40.576 40.277-93.269 27.221-134.229-2.816-8.747-11.051-14.763-20.309-14.763zM231.467 128h624.597c2.688 25.771-6.144 56.661-24.021 81.237-11.776 16.085-37.547 43.179-77.781 43.179-242.731 0-307.541 137.984-307.541 219.563l33.237 509.355h-327.168l78.677-853.333z" />
<glyph unicode="&#xe912;" glyph-name="pli-building" d="M896 0h-768c-11.733 0-21.333 9.6-21.333 21.333v853.333c0 11.776 9.6 21.333 21.333 21.333h768c11.733 0 21.333-9.557 21.333-21.333v-853.333c0-11.733-9.6-21.333-21.333-21.333zM149.333 42.667h725.333v810.667h-725.333v-810.667zM768 853.333h-512c-11.733 0-21.333 9.557-21.333 21.333v128c0 11.776 9.6 21.333 21.333 21.333h512c11.733 0 21.333-9.557 21.333-21.333v-128c0-11.776-9.6-21.333-21.333-21.333zM277.333 896h469.333v85.333h-469.333v-85.333zM469.333 597.333h-213.333c-11.733 0-21.333 9.557-21.333 21.333v170.667c0 11.776 9.6 21.333 21.333 21.333h213.333c11.733 0 21.333-9.557 21.333-21.333v-170.667c0-11.776-9.6-21.333-21.333-21.333zM277.333 640h170.667v128h-170.667v-128zM768 597.333h-213.333c-11.733 0-21.333 9.557-21.333 21.333v170.667c0 11.776 9.6 21.333 21.333 21.333h213.333c11.733 0 21.333-9.557 21.333-21.333v-170.667c0-11.776-9.6-21.333-21.333-21.333zM576 640h170.667v128h-170.667v-128zM469.333 341.333h-213.333c-11.733 0-21.333 9.6-21.333 21.333v170.667c0 11.776 9.6 21.333 21.333 21.333h213.333c11.733 0 21.333-9.557 21.333-21.333v-170.667c0-11.733-9.6-21.333-21.333-21.333zM277.333 384h170.667v128h-170.667v-128zM768 341.333h-213.333c-11.733 0-21.333 9.6-21.333 21.333v170.667c0 11.776 9.6 21.333 21.333 21.333h213.333c11.733 0 21.333-9.557 21.333-21.333v-170.667c0-11.733-9.6-21.333-21.333-21.333zM576 384h170.667v128h-170.667v-128zM469.333 85.333h-213.333c-11.733 0-21.333 9.6-21.333 21.333v170.667c0 11.733 9.6 21.333 21.333 21.333h213.333c11.733 0 21.333-9.6 21.333-21.333v-170.667c0-11.733-9.6-21.333-21.333-21.333zM277.333 128h170.667v128h-170.667v-128zM768 85.333h-213.333c-11.733 0-21.333 9.6-21.333 21.333v170.667c0 11.733 9.6 21.333 21.333 21.333h213.333c11.733 0 21.333-9.6 21.333-21.333v-170.667c0-11.733-9.6-21.333-21.333-21.333zM576 128h170.667v128h-170.667v-128z" />
<glyph unicode="&#xe913;" glyph-name="pli-calendar-4" d="M85.333 42.667h853.333v-42.667h-853.333v42.667zM981.333 853.333h42.667v-768h-42.667v768zM937.984 0v42.667c23.893 0 43.349 19.456 43.349 43.349h42.667c0-47.445-38.571-86.016-86.016-86.016zM85.333 938.667h853.333v-42.667h-853.333v42.667zM85.333 0c-47.061 0-85.333 38.229-85.333 85.333h42.667c0-23.552 19.157-42.667 42.667-42.667v-42.667zM0 853.333h42.667v-768h-42.667v768zM42.667 853.333h-42.667c0 47.019 38.272 85.333 85.333 85.333v-42.667c-23.509 0-42.667-19.115-42.667-42.667zM1024 853.333h-42.667c0 23.552-19.157 42.667-42.667 42.667v42.667c47.104 0 85.333-38.315 85.333-85.333zM277.333 832c-11.776 0-21.333 9.557-21.333 21.333v128c0 11.776 9.557 21.333 21.333 21.333s21.333-9.557 21.333-21.333v-128c0-11.776-9.557-21.333-21.333-21.333zM746.667 832c-11.733 0-21.333 9.557-21.333 21.333v128c0 11.776 9.6 21.333 21.333 21.333s21.333-9.557 21.333-21.333v-128c0-11.776-9.6-21.333-21.333-21.333zM853.333 725.333h-682.667c-11.776 0-21.333 9.557-21.333 21.333s9.557 21.333 21.333 21.333h682.667c11.733 0 21.333-9.557 21.333-21.333s-9.6-21.333-21.333-21.333zM298.667 597.333h-128c-11.776 0-21.333 9.557-21.333 21.333s9.557 21.333 21.333 21.333h128c11.776 0 21.333-9.557 21.333-21.333s-9.557-21.333-21.333-21.333zM597.333 597.333h-170.667c-11.776 0-21.333 9.557-21.333 21.333s9.557 21.333 21.333 21.333h170.667c11.733 0 21.333-9.557 21.333-21.333s-9.6-21.333-21.333-21.333zM853.333 597.333h-128c-11.733 0-21.333 9.557-21.333 21.333s9.6 21.333 21.333 21.333h128c11.733 0 21.333-9.557 21.333-21.333s-9.6-21.333-21.333-21.333zM298.667 469.333h-128c-11.776 0-21.333 9.6-21.333 21.333 0 11.776 9.557 21.333 21.333 21.333h128c11.776 0 21.333-9.557 21.333-21.333 0-11.733-9.557-21.333-21.333-21.333zM597.333 469.333h-170.667c-11.776 0-21.333 9.6-21.333 21.333 0 11.776 9.557 21.333 21.333 21.333h170.667c11.733 0 21.333-9.557 21.333-21.333 0-11.733-9.6-21.333-21.333-21.333zM853.333 469.333h-128c-11.733 0-21.333 9.6-21.333 21.333 0 11.776 9.6 21.333 21.333 21.333h128c11.733 0 21.333-9.557 21.333-21.333 0-11.733-9.6-21.333-21.333-21.333zM298.667 341.333h-128c-11.776 0-21.333 9.6-21.333 21.333s9.557 21.333 21.333 21.333h128c11.776 0 21.333-9.6 21.333-21.333s-9.557-21.333-21.333-21.333zM597.333 341.333h-170.667c-11.776 0-21.333 9.6-21.333 21.333s9.557 21.333 21.333 21.333h170.667c11.733 0 21.333-9.6 21.333-21.333s-9.6-21.333-21.333-21.333zM853.333 341.333h-128c-11.733 0-21.333 9.6-21.333 21.333s9.6 21.333 21.333 21.333h128c11.733 0 21.333-9.6 21.333-21.333s-9.6-21.333-21.333-21.333zM298.667 213.333h-128c-11.776 0-21.333 9.6-21.333 21.333s9.557 21.333 21.333 21.333h128c11.776 0 21.333-9.6 21.333-21.333s-9.557-21.333-21.333-21.333zM597.333 213.333h-170.667c-11.776 0-21.333 9.6-21.333 21.333s9.557 21.333 21.333 21.333h170.667c11.733 0 21.333-9.6 21.333-21.333s-9.6-21.333-21.333-21.333zM853.333 213.333h-128c-11.733 0-21.333 9.6-21.333 21.333s9.6 21.333 21.333 21.333h128c11.733 0 21.333-9.6 21.333-21.333s-9.6-21.333-21.333-21.333z" />
<glyph unicode="&#xe914;" glyph-name="pli-camera-2" d="M874.667 149.333h-725.333c-82.347 0-149.333 66.987-149.333 149.333v341.333c0 82.347 66.987 149.333 149.333 149.333h178.987l38.059 73.771c3.669 7.083 10.965 11.563 18.944 11.563h257.323c8.021 0 15.317-4.437 18.944-11.563l38.059-73.771h175.019c82.347 0 149.333-66.987 149.333-149.333v-341.333c0-82.347-66.987-149.333-149.333-149.333zM149.333 746.667c-58.795 0-106.667-47.829-106.667-106.667v-341.333c0-58.837 47.872-106.667 106.667-106.667h725.333c58.795 0 106.667 47.829 106.667 106.667v341.333c0 58.837-47.872 106.667-106.667 106.667h-187.989c-7.979 0-15.317 4.437-18.901 11.563l-38.059 73.771h-231.339l-38.059-73.771c-3.669-7.083-10.965-11.563-18.944-11.563h-192.043zM512 256c-129.408 0-234.667 105.301-234.667 234.667s105.259 234.667 234.667 234.667 234.667-105.301 234.667-234.667-105.259-234.667-234.667-234.667zM512 682.667c-105.856 0-192-86.187-192-192s86.144-192 192-192c105.813 0 192 86.187 192 192s-86.187 192-192 192zM192 768c-11.776 0-21.333 9.557-21.333 21.333v42.667c0 11.776 9.557 21.333 21.333 21.333s21.333-9.557 21.333-21.333v-42.667c0-11.776-9.557-21.333-21.333-21.333zM896 661.333h-42.667c-11.733 0-21.333 9.557-21.333 21.333s9.6 21.333 21.333 21.333h42.667c11.733 0 21.333-9.557 21.333-21.333s-9.6-21.333-21.333-21.333z" />
<glyph unicode="&#xe915;" glyph-name="pli-cart-coin" d="M846.251 233.344h-469.333c-8.789 0-16.683 5.419-19.883 13.568l-177.28 455.765h-94.421v-42.667c0-11.733-9.557-21.333-21.333-21.333s-21.333 9.6-21.333 21.333v64c0 11.733 9.557 21.333 21.333 21.333h130.389c8.789 0 16.683-5.419 19.883-13.568l177.237-455.765h440.064l98.944 259.883-592.043 81.664c-11.648 1.579-19.883 12.373-18.261 24.064 1.579 11.563 12.032 19.584 24.021 18.219l618.667-85.333c6.443-0.896 12.117-4.608 15.445-10.24 3.285-5.589 3.883-12.373 1.536-18.475l-113.749-298.667c-3.072-8.277-11.051-13.781-19.883-13.781zM488.235 166.997c28.8 0 52.181-23.424 52.181-52.181 0-28.928-23.339-52.267-52.181-52.267-28.8 0-52.139 23.424-52.139 52.267 0.043 28.757 23.424 52.181 52.139 52.181zM488.235 209.664c-52.267 0-94.805-42.581-94.805-94.848 0-52.352 42.539-94.933 94.805-94.933s94.848 42.581 94.848 94.933c0 52.267-42.581 94.848-94.848 94.848v0zM734.805 166.997c28.8 0 52.139-23.424 52.139-52.181 0-28.928-23.339-52.267-52.139-52.267s-52.139 23.467-52.139 52.267c0 28.757 23.339 52.181 52.139 52.181zM734.805 209.664c-52.309 0-94.805-42.581-94.805-94.848 0-52.352 42.496-94.933 94.805-94.933 52.267 0 94.805 42.581 94.805 94.933-0.043 52.267-42.581 94.848-94.805 94.848v0zM810.667 318.677h-384c-11.776 0-21.333 9.6-21.333 21.333s9.557 21.333 21.333 21.333h384c11.733 0 21.333-9.6 21.333-21.333s-9.6-21.333-21.333-21.333zM810.667 404.011h-384c-11.776 0-21.333 9.6-21.333 21.333s9.557 21.333 21.333 21.333h384c11.733 0 21.333-9.6 21.333-21.333s-9.6-21.333-21.333-21.333zM725.333 489.344h-298.667c-11.776 0-21.333 9.6-21.333 21.333s9.557 21.333 21.333 21.333h298.667c11.733 0 21.333-9.6 21.333-21.333s-9.6-21.333-21.333-21.333zM899.925 663.040c-1.109 0-2.261 0.085-3.413 0.256-11.648 1.877-19.541 12.843-17.707 24.448 20.608 128.597-67.115 249.856-195.712 270.635-128.427 20.651-249.984-67.072-270.635-195.669-1.877-11.605-12.885-19.797-24.491-17.664-11.605 1.835-19.541 12.8-17.664 24.405 24.448 151.808 167.723 255.445 319.573 230.997 151.808-24.363 255.403-167.723 230.997-319.488-1.621-10.496-10.709-17.92-20.949-17.92zM715.221 638.677c-11.776 0-21.333 9.6-21.333 21.333 0 15.147-3.157 18.176-37.717 35.157l-18.688 9.259c-34.304 16.939-61.483 30.336-61.483 73.472 0 41.771 33.024 70.869 80.341 70.869 47.488 0 79.403-28.501 79.403-70.869 0-11.691-9.6-21.333-21.333-21.333-11.819 0-21.333 9.643-21.333 21.333 0 25.472-25.771 28.203-36.736 28.203-11.349 0-37.675-2.731-37.675-28.203 0-15.104 3.157-18.176 37.76-35.2l18.645-9.216c34.389-16.896 61.525-30.293 61.525-73.472-0.043-11.733-9.6-21.333-21.376-21.333zM654.080 852.437c-6.016 0-11.563 2.176-15.36 6.4-3.413 3.413-5.973 8.96-5.973 14.507 0 6.016 2.091 11.563 6.357 15.36 7.723 7.68 22.229 8.021 29.867 0 4.267-3.883 6.4-9.387 6.4-15.36 0-5.547-2.603-11.093-6.4-14.933-3.371-3.797-8.917-5.973-14.891-5.973zM632.747 873.6h42.667v-51.541h-42.667v51.541z" />
<glyph unicode="&#xe916;" glyph-name="pli-celsius" d="M309.333 99.413c-70.571 0-128 57.429-128 128s57.429 128 128 128 128-57.429 128-128-57.429-128-128-128zM309.333 312.747c-47.061 0-85.333-38.229-85.333-85.333s38.272-85.333 85.333-85.333 85.333 38.229 85.333 85.333-38.272 85.333-85.333 85.333zM309.333 335.829c-11.776 0-21.333 9.6-21.333 21.333v256c0 11.733 9.557 21.333 21.333 21.333s21.333-9.6 21.333-21.333v-256c0-11.733-9.557-21.333-21.333-21.333zM309.333 14.080c-117.632 0-213.333 95.659-213.333 213.333 0 76.331 40.533 145.664 106.667 183.936v491.904c0 58.837 47.872 106.667 106.667 106.667s106.667-47.829 106.667-106.667v-491.947c66.133-38.229 106.667-107.563 106.667-183.936 0-117.632-95.701-213.291-213.333-213.291zM309.333 967.253c-35.285 0-64-28.715-64-64v-504.747c0-8.021-4.565-15.403-11.819-18.987-58.496-29.269-94.848-87.509-94.848-152.021 0-94.165 76.544-170.667 170.667-170.667s170.667 76.501 170.667 170.667c0 64.683-36.352 122.837-94.848 152.021-7.253 3.584-11.819 10.923-11.819 19.072v504.704c0 35.285-28.715 63.957-64 63.957zM573.355 778.496c-35.243 0-64 28.715-64 64s28.715 64 64 64c35.328 0 64-28.715 64-64s-28.672-64-64-64zM573.355 863.829c-11.733 0-21.333-9.6-21.333-21.333s9.6-21.333 21.333-21.333c11.776 0 21.333 9.6 21.333 21.333s-9.6 21.333-21.333 21.333zM786.688 437.163c-105.771 0-192 86.144-192 192s86.187 192 192 192c50.816 0 98.731-19.755 134.997-55.595 8.363-8.277 8.448-21.931 0.171-30.165-8.107-8.363-21.76-8.491-30.165-0.171-28.075 27.733-65.365 43.264-105.003 43.264-82.347 0-149.333-66.987-149.333-149.333s66.987-149.333 149.333-149.333c39.509 0 76.928 15.317 105.003 43.221 8.405 8.32 22.059 8.149 30.165-0.171 8.277-8.235 8.192-21.888-0.171-30.165-36.267-35.797-84.181-55.552-134.997-55.552z" />
<glyph unicode="&#xe917;" glyph-name="pli-check" d="M266.667 714.624h-213.333c-11.776 0-21.333 9.6-21.333 21.333v213.333c0 11.776 9.557 21.333 21.333 21.333h213.333c11.776 0 21.333-9.557 21.333-21.333v-213.333c0-11.733-9.557-21.333-21.333-21.333zM74.667 757.291h170.667v170.667h-170.667v-170.667zM160 778.624c-1.579 0-3.2 0.171-4.736 0.597-6.272 1.408-11.563 5.632-14.421 11.392l-40.875 83.541c-5.163 10.581-0.811 23.339 9.771 28.544 10.624 5.205 23.339 0.768 28.544-9.771l29.269-59.819 196.181 154.368c9.259 7.253 22.699 5.675 29.952-3.584 7.253-9.301 5.675-22.656-3.584-29.952l-216.917-170.667c-3.797-3.072-8.448-4.651-13.184-4.651zM266.667 373.291h-213.333c-11.776 0-21.333 9.6-21.333 21.333v213.333c0 11.776 9.557 21.333 21.333 21.333h213.333c11.776 0 21.333-9.557 21.333-21.333v-213.333c0-11.733-9.557-21.333-21.333-21.333zM74.667 415.957h170.667v170.667h-170.667v-170.667zM160 437.291c-1.579 0-3.2 0.171-4.736 0.597-6.272 1.408-11.563 5.632-14.421 11.435l-40.875 83.541c-5.163 10.581-0.811 23.339 9.771 28.544 10.624 5.205 23.339 0.811 28.544-9.771l29.269-59.819 196.181 154.368c9.259 7.253 22.699 5.632 29.952-3.584 7.253-9.301 5.675-22.656-3.584-29.952l-216.917-170.667c-3.797-3.115-8.448-4.693-13.184-4.693zM266.667 31.957h-213.333c-11.776 0-21.333 9.6-21.333 21.333v213.333c0 11.776 9.557 21.333 21.333 21.333h213.333c11.776 0 21.333-9.557 21.333-21.333v-213.333c0-11.733-9.557-21.333-21.333-21.333zM74.667 74.624h170.667v170.667h-170.667v-170.667zM970.667 202.624h-469.333c-11.776 0-21.333 9.6-21.333 21.333 0 11.776 9.557 21.333 21.333 21.333h469.333c11.733 0 21.333-9.557 21.333-21.333 0-11.733-9.6-21.333-21.333-21.333zM970.667 74.624h-469.333c-11.776 0-21.333 9.6-21.333 21.333 0 11.776 9.557 21.333 21.333 21.333h469.333c11.733 0 21.333-9.557 21.333-21.333 0-11.733-9.6-21.333-21.333-21.333zM970.667 543.957h-469.333c-11.776 0-21.333 9.6-21.333 21.333 0 11.776 9.557 21.333 21.333 21.333h469.333c11.733 0 21.333-9.557 21.333-21.333 0-11.733-9.6-21.333-21.333-21.333zM970.667 415.957h-469.333c-11.776 0-21.333 9.6-21.333 21.333 0 11.776 9.557 21.333 21.333 21.333h469.333c11.733 0 21.333-9.557 21.333-21.333 0-11.733-9.6-21.333-21.333-21.333zM970.667 885.291h-469.333c-11.776 0-21.333 9.6-21.333 21.333 0 11.776 9.557 21.333 21.333 21.333h469.333c11.733 0 21.333-9.557 21.333-21.333 0-11.733-9.6-21.333-21.333-21.333zM970.667 757.291h-469.333c-11.776 0-21.333 9.6-21.333 21.333 0 11.776 9.557 21.333 21.333 21.333h469.333c11.733 0 21.333-9.557 21.333-21.333 0-11.733-9.6-21.333-21.333-21.333z" />
<glyph unicode="&#xe918;" glyph-name="pli-checked-user" d="M517.376 282.667c-126.507 0-229.589 137.387-239.232 258.901-28.416 8.021-54.101 31.531-54.101 61.099v85.333c0 26.667 25.813 45.909 42.667 55.637v72.363c0 80.896 64.683 146.944 144.896 149.248 17.067 6.869 84.693 32.085 153.771 32.085 110.037 0 170.667-64.427 170.667-181.333v-65.877c42.667-8.32 42.667-42.581 42.667-62.123v-85.333c0-29.696-13.483-51.84-35.243-60.245-8.192-126.080-102.187-259.755-226.091-259.755zM565.376 954.667c-69.205 0-140.245-29.952-141.013-30.293-2.688-1.109-5.504-1.707-8.32-1.707-58.837 0-106.667-47.829-106.667-106.667v-85.333c0-8.363-4.949-16-12.587-19.456-15.147-6.869-29.227-18.645-30.080-23.381v-85.163c0-9.387 17.963-21.333 32-21.333 11.733 0 21.333-9.557 21.333-21.333 0-105.643 91.051-234.667 197.333-234.667 103.68 0 184.021 126.165 184.021 234.667 0 11.776 9.643 21.333 21.333 21.333 8.832 0 13.355 7.168 13.355 21.333v85.333c0 21.333 0 21.333-21.333 21.333-11.776 0-21.333 9.557-21.333 21.333v85.333c-0.043 93.312-41.856 138.667-128.043 138.667zM778.709 26.667c-5.461 0-10.923 2.091-15.104 6.229l-85.333 85.333c-8.32 8.235-8.32 21.845 0 30.165 8.235 8.235 21.845 8.235 30.165 0l70.229-70.229 155.563 155.563c8.32 8.235 21.931 8.235 30.165 0 8.32-8.32 8.32-21.931 0-30.165l-170.667-170.667c-4.096-4.139-9.557-6.229-15.019-6.229zM74.709 26.667c-11.733 0-21.333 9.557-21.333 21.333 0 123.563 98.688 213.333 234.667 213.333h52.565l56.832 84.736c6.443 9.771 19.755 12.416 29.483 5.845 9.771-6.528 12.416-19.797 5.931-29.568l-63.104-94.208c-3.968-5.931-10.581-9.472-17.707-9.472h-64c-112.981 0-192-70.187-192-170.667 0-11.776-9.6-21.333-21.333-21.333z" />
<glyph unicode="&#xe919;" glyph-name="pli-clock" d="M510.677 21.333c-223.488 0-405.333 181.845-405.333 405.333s181.803 405.333 405.333 405.333 405.333-181.845 405.333-405.333-181.888-405.333-405.333-405.333zM510.677 789.333c-200.021 0-362.667-162.688-362.667-362.667s162.688-362.667 362.667-362.667c199.979 0 362.667 162.688 362.667 362.667s-162.731 362.667-362.667 362.667zM916.011 0c-6.613 0-13.184 3.072-17.323 8.832l-106.667 147.499c-6.912 9.6-4.736 22.869 4.779 29.781 9.515 6.869 22.912 4.693 29.739-4.779l106.667-147.499c6.912-9.557 4.736-22.827-4.736-29.696-3.712-2.816-8.149-4.139-12.459-4.139zM105.301 0c-4.395 0-8.704 1.323-12.459 4.096-9.6 6.912-11.691 20.309-4.779 29.739l106.667 147.499c6.912 9.6 20.224 11.648 29.781 4.736s11.648-20.309 4.736-29.739l-106.667-147.499c-4.181-5.76-10.709-8.832-17.28-8.832zM788.808 828.274l34.138-25.591-63.979-85.344-34.138 25.591 63.979 85.344zM239.765 823.467l64-85.333-34.133-25.6-64 85.333 34.133 25.6zM510.677 405.333c-5.461 0-10.923 2.091-15.104 6.229-8.277 8.235-8.277 21.845 0 30.165l213.333 213.333c8.32 8.235 21.888 8.235 30.165 0 8.32-8.32 8.32-21.931 0-30.165l-213.333-213.333c-4.139-4.139-9.6-6.229-15.061-6.229zM510.677 405.333c-5.461 0-10.923 2.091-15.104 6.229l-128 128c-8.277 8.235-8.277 21.845 0 30.165 8.32 8.235 21.888 8.235 30.165 0l128-128c8.32-8.32 8.32-21.931 0-30.165-4.139-4.139-9.6-6.229-15.061-6.229zM213.333 981.333c55.125 0 105.131-25.813 136.917-68.48-110.933-36.907-207.403-112.085-270.848-210.901-24.32 30.165-38.144 68.181-38.144 107.563 0.085 94.635 77.227 171.819 172.075 171.819zM213.333 1024c-118.571 0-214.656-96.085-214.656-214.656 0-72.576 36.267-136.491 91.435-175.232 62.763 127.061 180.907 221.653 323.243 251.648-30.891 80.64-108.459 138.24-200.021 138.24v0zM810.667 981.333c94.848 0 171.947-77.184 171.947-171.989 0-40.32-14.293-79.061-39.552-109.397-62.933 99.157-159.104 174.848-269.952 212.267 31.787 42.965 82.005 69.12 137.557 69.12zM810.667 1024c-91.776 0-169.557-57.813-200.192-138.837 141.824-30.763 259.371-125.653 321.536-252.757 56.277 38.699 93.355 103.424 93.355 176.896-0.085 118.613-96.171 214.699-214.699 214.699v0z" />
<glyph unicode="&#xe91a;" glyph-name="pli-close" d="M512 981.333c258.731 0 469.333-210.56 469.333-469.333 0-258.731-210.603-469.333-469.333-469.333-258.773 0-469.333 210.603-469.333 469.333 0 258.773 210.56 469.333 469.333 469.333zM512 1024c-282.752 0-512-229.248-512-512s229.248-512 512-512 512 229.248 512 512-229.248 512-512 512v0zM320 298.667c-5.461 0-10.923 2.091-15.104 6.229-8.32 8.277-8.32 21.845 0 30.165l384 384c8.277 8.32 21.845 8.32 30.165 0 8.277-8.32 8.277-21.845 0-30.165l-384-384c-4.139-4.139-9.6-6.229-15.061-6.229zM704 298.667c-5.461 0-10.923 2.091-15.104 6.229l-384 384c-8.32 8.32-8.32 21.845 0 30.165s21.845 8.32 30.165 0l384-384c8.277-8.32 8.277-21.888 0-30.165-4.139-4.139-9.6-6.229-15.061-6.229z" />
<glyph unicode="&#xe91b;" glyph-name="pli-coding" d="M301.739 228.565c-5.461 0-10.923 2.091-15.104 6.229l-262.059 262.101c-8.32 8.277-8.32 21.888 0 30.165l262.059 262.144c8.32 8.32 21.888 8.32 30.165 0 8.32-8.32 8.32-21.845 0-30.165l-246.997-246.997 246.997-246.997c8.32-8.32 8.32-21.845 0-30.165-4.139-4.224-9.6-6.315-15.061-6.315zM722.304 228.565c-5.461 0-10.923 2.091-15.104 6.229-8.32 8.32-8.32 21.845 0 30.165l246.997 247.040-246.997 246.997c-8.32 8.32-8.32 21.845 0 30.165s21.845 8.32 30.165 0l262.059-262.144c8.32-8.277 8.32-21.888 0-30.165l-262.059-262.101c-4.139-4.096-9.6-6.187-15.061-6.187zM408.405 213.333c-2.603 0-5.163 0.512-7.723 1.408-10.965 4.267-16.469 16.597-12.203 27.563l213.333 554.667c4.224 10.965 16.597 16.469 27.563 12.245 10.965-4.267 16.469-16.597 12.245-27.563l-213.333-554.667c-3.243-8.405-11.307-13.653-19.883-13.653z" />
<glyph unicode="&#xe91c;" glyph-name="pli-coin" d="M512 853.333c188.203 0 341.333-153.131 341.333-341.333s-153.131-341.333-341.333-341.333-341.333 153.131-341.333 341.333 153.131 341.333 341.333 341.333zM512 896c-212.096 0-384-171.904-384-384s171.904-384 384-384c212.096 0 384 171.904 384 384s-171.904 384-384 384v0zM513.792 322.987c-67.456 0-112.768 39.253-112.768 97.579 0 11.691 9.557 21.333 21.333 21.333s21.333-9.643 21.333-21.333c0-50.901 53.675-54.912 70.101-54.912s70.144 4.011 70.144 54.912c0 31.744-12.416 39.083-64.853 64.939l-29.355 14.549c-51.499 25.429-88.704 43.776-88.704 103.253 0 58.709 45.312 98.176 112.768 98.176 66.688 0 111.488-39.467 111.488-98.176 0-11.776-9.557-21.333-21.333-21.333s-21.333 9.557-21.333 21.333c0 51.499-52.693 55.509-68.821 55.509-33.877 0-70.101-14.592-70.101-55.509 0-31.787 12.416-39.125 64.896-64.981l29.397-14.592c51.413-25.387 88.576-43.691 88.576-103.168 0.043-58.325-45.312-97.579-112.768-97.579zM512 661.333c-11.776 0-21.333 9.557-21.333 21.333v42.667c0 11.776 9.557 21.333 21.333 21.333s21.333-9.557 21.333-21.333v-42.667c0-11.776-9.557-21.333-21.333-21.333zM512 277.333c-11.776 0-21.333 9.6-21.333 21.333v42.667c0 11.733 9.557 21.333 21.333 21.333s21.333-9.6 21.333-21.333v-42.667c0-11.733-9.557-21.333-21.333-21.333zM512 981.333c258.731 0 469.333-210.56 469.333-469.333 0-258.816-210.603-469.333-469.333-469.333-258.773 0-469.333 210.517-469.333 469.333 0 258.773 210.56 469.333 469.333 469.333zM512 1024c-282.752 0-512-229.248-512-512s229.248-512 512-512 512 229.248 512 512-229.248 512-512 512v0z" />
<glyph unicode="&#xe91d;" glyph-name="pli-computer-secure" d="M917.333 213.333h-810.667c-58.795 0-106.667 47.829-106.667 106.667v512c0 58.837 47.872 106.667 106.667 106.667h810.667c58.795 0 106.667-47.829 106.667-106.667v-512c0-58.837-47.872-106.667-106.667-106.667zM106.667 896c-35.285 0-64-28.715-64-64v-512c0-35.285 28.715-64 64-64h810.667c35.285 0 64 28.715 64 64v512c0 35.285-28.715 64-64 64h-810.667zM512 427.989c-95.701 0-170.667 79.061-170.667 179.925v175.232c0 5.931 2.432 11.52 6.699 15.445 4.224 4.139 9.941 6.528 15.872 5.888 75.136-4.437 98.56 9.771 133.12 43.904 8.32 8.235 21.675 8.235 29.995 0 35.243-34.688 61.611-48.256 133.077-43.904 5.845 0.299 11.605-1.835 15.872-5.845s6.699-9.643 6.699-15.488v-175.232c0-100.864-74.965-179.925-170.667-179.925zM384 761.173v-153.259c0-76.971 56.235-137.259 128-137.259s128 60.288 128 137.259v153.216c-63.744-0.043-95.403 14.72-127.915 42.965-28.672-25.6-63.061-45.013-128.085-42.923zM981.333 341.333h-938.667c-11.776 0-21.333 9.6-21.333 21.333s9.557 21.333 21.333 21.333h938.667c11.733 0 21.333-9.6 21.333-21.333s-9.6-21.333-21.333-21.333zM448 106.667c-11.776 0-21.333 9.6-21.333 21.333v85.333c0 11.733 9.557 21.333 21.333 21.333s21.333-9.6 21.333-21.333v-85.333c0-11.733-9.557-21.333-21.333-21.333zM576 106.667c-11.733 0-21.333 9.6-21.333 21.333v85.333c0 11.733 9.6 21.333 21.333 21.333s21.333-9.6 21.333-21.333v-85.333c0-11.733-9.6-21.333-21.333-21.333zM682.667 85.333h-341.333c-11.776 0-21.333 9.6-21.333 21.333s9.557 21.333 21.333 21.333h341.333c11.733 0 21.333-9.6 21.333-21.333s-9.6-21.333-21.333-21.333z" />
<glyph unicode="&#xe91e;" glyph-name="pli-consulting" d="M714.155 42.795h-116.821v42.667h116.821c18.645 0 53.845 38.4 53.845 58.752v282.581h42.667v-282.581c0-40.96-50.816-101.419-96.512-101.419zM789.248 523.221c-8.149 0-15.915 4.651-19.456 12.544-12.075 26.795-19.499 46.72-22.613 60.885-17.067 77.141-74.069 256.427-235.179 256.427-161.067 0-218.112-179.285-235.179-256.427-2.688-12.075-8.405-28.245-17.536-49.323-4.693-10.752-17.28-15.744-28.032-11.179-10.837 4.608-15.829 17.152-11.136 27.989 9.856 22.827 13.611 35.285 15.019 41.771 40.789 184.064 141.653 289.792 276.821 289.792s236.075-105.728 276.821-289.792c1.707-7.723 6.443-22.955 19.84-52.48 4.864-10.752 0.085-23.381-10.667-28.245-2.773-1.408-5.803-1.963-8.704-1.963zM789.333 661.461c-11.733 0-21.333 9.6-21.333 21.333v47.061c0 136.192-117.248 251.349-256 251.349s-256-115.029-256-251.349v-47.104c0-11.733-9.557-21.333-21.333-21.333s-21.333 9.643-21.333 21.376v47.061c0 159.317 136.789 294.016 298.667 294.016s298.667-134.571 298.667-294.016v-47.104c0-11.691-9.6-21.291-21.333-21.291zM512 171.776c-117.632 0-213.333 104.021-213.333 232.021v150.997c0 11.733 9.557 21.333 21.333 21.333s21.333-9.6 21.333-21.333v-150.997c0-104.405 76.544-189.355 170.667-189.355s170.667 84.821 170.667 189.355v150.997c0 11.733 9.6 21.333 21.333 21.333s21.333-9.6 21.333-21.333v-150.997c0-127.915-95.701-232.021-213.333-232.021zM234.667 384.128h-64c-47.061 0-85.333 38.229-85.333 85.333v128c0 47.104 38.272 85.333 85.333 85.333h64c11.776 0 21.333-9.6 21.333-21.333v-256c0-11.733-9.557-21.333-21.333-21.333zM170.667 640.128c-23.509 0-42.667-19.115-42.667-42.667v-128c0-23.552 19.157-42.667 42.667-42.667h42.667v213.333h-42.667zM853.333 384.128h-64c-11.733 0-21.333 9.6-21.333 21.333v256c0 11.733 9.6 21.333 21.333 21.333h64c47.104 0 85.333-38.229 85.333-85.333v-128c0-47.104-38.229-85.333-85.333-85.333zM810.667 426.795h42.667c23.509 0 42.667 19.115 42.667 42.667v128c0 23.552-19.157 42.667-42.667 42.667h-42.667v-213.333zM576 0.128h-128c-35.285 0-64 28.715-64 64s28.715 64 64 64h128c35.285 0 64-28.715 64-64s-28.715-64-64-64zM448 85.461c-11.776 0-21.333-9.6-21.333-21.333s9.557-21.333 21.333-21.333h128c11.733 0 21.333 9.6 21.333 21.333s-9.6 21.333-21.333 21.333h-128zM762.667 533.461c-56.235 0-153.131 63.915-200.235 128-63.659-124.032-303.616-128-306.432-128-11.776 0-21.333 9.6-21.333 21.333s9.557 21.333 21.333 21.333c58.965 0 279.125 25.685 279.125 151.125 0 11.776 9.557 21.333 21.333 21.333s21.333-9.557 21.333-21.333c0-46.635 127.872-151.125 184.875-151.125 11.733 0 21.333-9.6 21.333-21.333s-9.6-21.333-21.333-21.333z" />
<glyph unicode="&#xe91f;" glyph-name="pli-credit-card-2" d="M853.333 149.333h-682.667c-94.123 0-170.667 76.544-170.667 170.667v384c0 94.123 76.544 170.667 170.667 170.667h682.667c94.123 0 170.667-76.544 170.667-170.667v-384c0-94.123-76.544-170.667-170.667-170.667zM170.667 832c-70.571 0-128-57.429-128-128v-384c0-70.571 57.429-128 128-128h682.667c70.571 0 128 57.429 128 128v384c0 70.571-57.429 128-128 128h-682.667zM42.667 704h938.667v-85.333h-938.667v85.333zM128 490.667h170.667v-42.667h-170.667v42.667zM128 405.333h341.333v-42.667h-341.333v42.667z" />
<glyph unicode="&#xe920;" glyph-name="pli-crop-2" d="M938.667 256h-661.333c-11.776 0-21.333 9.6-21.333 21.333v661.333c0 11.733 9.557 21.333 21.333 21.333s21.333-9.6 21.333-21.333v-640h640c11.733 0 21.333-9.6 21.333-21.333s-9.6-21.333-21.333-21.333zM746.667 64c-11.733 0-21.333 9.6-21.333 21.333v640h-640c-11.776 0-21.333 9.6-21.333 21.333s9.557 21.333 21.333 21.333h661.333c11.733 0 21.333-9.6 21.333-21.333v-661.333c0-11.733-9.6-21.333-21.333-21.333z" />
<glyph unicode="&#xe921;" glyph-name="pli-data-cloud" d="M874.667 42.667h-725.333c-82.347 0-149.333 66.987-149.333 149.333v42.667c0 82.347 66.987 149.333 149.333 149.333h725.333c82.347 0 149.333-66.987 149.333-149.333v-42.667c0-82.347-66.987-149.333-149.333-149.333zM149.333 341.333c-58.795 0-106.667-47.872-106.667-106.667v-42.667c0-58.795 47.872-106.667 106.667-106.667h725.333c58.795 0 106.667 47.872 106.667 106.667v42.667c0 58.795-47.872 106.667-106.667 106.667h-725.333zM842.667 149.333c-35.285 0-64 28.715-64 64s28.715 64 64 64 64-28.715 64-64-28.715-64-64-64zM842.667 234.667c-11.733 0-21.333-9.6-21.333-21.333s9.6-21.333 21.333-21.333 21.333 9.6 21.333 21.333-9.6 21.333-21.333 21.333zM38.997 277.931c-0.939 0-1.877 0.085-2.859 0.171-11.648 1.579-19.84 12.331-18.304 24.021l72.32 536.875c10.923 81.152 80.896 142.336 162.773 142.336h517.803c82.091 0 152.064-61.355 162.816-142.677l70.699-533.717c1.536-11.648-6.656-22.4-18.389-23.979-11.648-1.579-22.357 6.699-23.936 18.389l-70.571 533.717c-8.021 60.203-59.776 105.643-120.576 105.643h-517.845c-60.587 0-112.384-45.312-120.491-105.344l-72.32-536.875c-1.451-10.837-10.581-18.56-21.12-18.56zM676.907 469.333h-360.277c-67.755 0-124.971 58.411-124.971 127.573 0 69.205 57.216 127.659 124.971 127.659 13.141 0 25.984-2.133 38.485-6.315 26.581 66.944 91.136 111.829 164.736 111.829 50.603 0 97.877-21.504 131.797-59.477 92.843 16.256 174.251-57.472 174.251-149.291 0-83.797-66.816-151.979-148.992-151.979zM316.629 681.899c-44.629 0-82.304-38.912-82.304-84.992 0-46.037 37.675-84.907 82.304-84.907h360.277c57.643 0 106.325 50.048 106.325 109.355 0 59.008-48.896 108.843-106.837 108.843-8.832 0-17.835-1.237-27.435-3.797-8.235-2.219-17.152 0.811-22.4 7.637-26.027 33.963-64.939 53.419-106.752 53.419-62.421 0-116.267-42.539-130.987-103.424-1.579-6.528-6.144-11.947-12.331-14.592-6.187-2.688-13.269-2.304-19.072 1.152-13.013 7.509-26.752 11.307-40.789 11.307z" />
<glyph unicode="&#xe922;" glyph-name="pli-data-settings" d="M874.667 42.667h-725.333c-82.347 0-149.333 66.987-149.333 149.333v42.667c0 82.347 66.987 149.333 149.333 149.333h725.333c82.347 0 149.333-66.987 149.333-149.333v-42.667c0-82.347-66.987-149.333-149.333-149.333zM149.333 341.333c-58.795 0-106.667-47.872-106.667-106.667v-42.667c0-58.795 47.872-106.667 106.667-106.667h725.333c58.837 0 106.667 47.872 106.667 106.667v42.667c0 58.795-47.829 106.667-106.667 106.667h-725.333zM842.667 149.333c-35.285 0-64 28.715-64 64s28.715 64 64 64 64-28.715 64-64-28.715-64-64-64zM842.667 234.667c-11.733 0-21.333-9.6-21.333-21.333s9.6-21.333 21.333-21.333 21.333 9.6 21.333 21.333-9.6 21.333-21.333 21.333zM38.997 277.931c-0.939 0-1.877 0.085-2.859 0.171-11.648 1.579-19.84 12.331-18.304 24.021l72.32 536.875c10.923 81.152 80.896 142.336 162.773 142.336h517.803c82.091 0 152.021-61.355 162.773-142.677l70.656-533.803c1.536-11.648-6.656-22.4-18.475-23.936-11.563-1.493-22.272 6.571-23.979 18.347l-70.613 533.76c-7.936 60.203-59.776 105.643-120.491 105.643h-517.675c-60.587 0-112.384-45.355-120.491-105.387l-72.32-536.875c-1.451-10.752-10.581-18.475-21.12-18.475zM512 405.333c-31.744 0-58.112 23.211-63.147 53.504-6.955 2.432-13.739 5.248-20.309 8.405-24.533-17.579-60.843-14.891-82.517 6.827-12.075 11.989-18.688 28.075-18.731 45.227 0 13.525 4.181 26.496 11.947 37.291-3.2 6.571-5.973 13.355-8.405 20.267-30.293 5.035-53.504 31.445-53.504 63.147s23.211 58.112 53.504 63.147c2.432 6.912 5.205 13.696 8.405 20.267-7.765 10.752-11.947 23.723-11.947 37.291 0 17.109 6.656 33.152 18.773 45.227 21.632 21.589 58.069 24.32 82.475 6.827 6.571 3.157 13.355 5.973 20.309 8.363 5.035 30.336 31.403 53.547 63.147 53.547s58.069-23.211 63.147-53.547c6.912-2.432 13.696-5.205 20.309-8.363 24.448 17.493 60.843 14.805 82.475-6.827 12.075-12.032 18.688-28.075 18.731-45.227 0-13.525-4.181-26.496-11.947-37.291 3.2-6.571 6.059-13.355 8.405-20.267 30.293-5.035 53.504-31.403 53.504-63.147 0-31.701-23.211-58.112-53.504-63.147-2.475-6.912-5.205-13.653-8.405-20.267 7.723-10.709 11.904-23.68 11.904-37.291 0-17.109-6.656-33.109-18.773-45.227-21.547-21.589-57.984-24.363-82.475-6.827-6.571-3.157-13.355-6.016-20.309-8.405-4.992-30.293-31.317-53.504-63.061-53.504zM424.491 514.987c3.755 0 7.509-0.981 10.923-3.029 12.288-7.339 25.685-12.928 39.723-16.512 10.368-2.645 17.152-12.501 15.915-23.125-0.384-14.763 9.173-24.32 20.949-24.32s21.333 9.6 21.333 21.333c-1.237 10.624 5.163 23.509 15.531 26.112 14.037 3.584 27.392 9.131 39.68 16.512 9.131 5.504 20.949 3.371 27.605-5.035 0.768-0.896 2.645-3.755 3.157-4.736 4.565-3.883 20.395-6.016 28.416 2.048 4.011 4.053 6.229 9.387 6.229 15.061 0 5.717-2.261 11.093-6.229 15.104 0.427-0.768-1.152 0.213-2.731 1.493-8.277 6.656-10.368 18.389-4.949 27.52 7.424 12.416 12.971 25.771 16.555 39.68 2.645 10.368 12.672 17.152 23.083 15.957 14.080-0.469 24.32 9.173 24.32 20.949 0 11.733-9.6 21.333-21.333 21.333-10.453-1.237-23.509 5.291-26.069 15.531-3.584 14.037-9.173 27.392-16.555 39.637-5.589 9.301-3.328 21.291 5.248 27.904 0.896 0.683 3.755 2.475 4.693 3.029 1.835 2.219 4.053 7.595 4.053 13.312 0 5.675-2.219 11.008-6.229 15.019-8.107 8.107-22.187 8.021-30.251 0 0.768 0.341-0.085-1.109-1.323-2.688-6.656-8.363-18.517-10.539-27.691-5.035-12.203 7.339-25.557 12.885-39.68 16.512-10.368 2.688-17.109 12.544-15.915 23.125 0.384 14.72-9.173 24.32-20.949 24.32s-21.333-9.6-21.333-21.333c1.237-10.624-5.163-23.467-15.488-26.112-14.165-3.627-27.52-9.173-39.723-16.512-9.301-5.547-21.163-3.285-27.819 5.163-0.64 0.853-2.475 3.669-2.987 4.608-4.48 3.883-20.395 5.973-28.416-2.091-4.053-4.053-6.229-9.387-6.229-15.061 0-5.717 2.219-11.093 6.229-15.147-0.555 0.939 0.981 0 2.475-1.152 8.576-6.571 10.837-18.603 5.248-27.904-7.339-12.245-12.885-25.6-16.512-39.637-2.603-10.24-12.501-17.024-22.869-15.957-16.256 0.597-24.619-9.173-24.619-20.907s9.557-21.333 21.333-21.333c10.837 1.237 23.509-5.163 26.112-15.573 3.584-13.995 9.131-27.307 16.512-39.637 5.547-9.216 3.328-21.163-5.163-27.733-0.853-0.683-3.712-2.517-4.693-3.072-1.92-2.261-4.139-7.637-4.139-13.355 0-5.675 2.219-11.008 6.229-15.019 8.107-8.107 22.144-8.064 30.208 0-0.768-0.427 0.085 1.024 1.237 2.56 4.224 5.333 10.496 8.192 16.896 8.192zM512 561.749c-43.136 0-78.208 35.115-78.208 78.251 0 43.179 35.072 78.251 78.208 78.251s78.208-35.115 78.208-78.251c0-43.136-35.072-78.251-78.208-78.251zM512 675.584c-19.584 0-35.541-16-35.541-35.584s15.957-35.584 35.541-35.584 35.541 15.957 35.541 35.584-15.957 35.584-35.541 35.584z" />
<glyph unicode="&#xe923;" glyph-name="pli-data-storage" d="M874.667 42.667h-725.333c-82.347 0-149.333 66.987-149.333 149.333v42.667c0 82.347 66.987 149.333 149.333 149.333h725.333c82.347 0 149.333-66.987 149.333-149.333v-42.667c0-82.347-66.987-149.333-149.333-149.333zM149.333 341.333c-58.795 0-106.667-47.872-106.667-106.667v-42.667c0-58.795 47.872-106.667 106.667-106.667h725.333c58.795 0 106.667 47.872 106.667 106.667v42.667c0 58.795-47.872 106.667-106.667 106.667h-725.333zM842.667 149.333c-35.285 0-64 28.715-64 64s28.715 64 64 64 64-28.715 64-64-28.715-64-64-64zM842.667 234.667c-11.733 0-21.333-9.6-21.333-21.333s9.6-21.333 21.333-21.333 21.333 9.6 21.333 21.333-9.6 21.333-21.333 21.333zM38.997 277.931c-0.939 0-1.877 0.085-2.859 0.171-11.648 1.579-19.84 12.331-18.304 24.021l72.32 536.875c10.923 81.152 80.896 142.336 162.773 142.336h517.803c82.091 0 152.021-61.355 162.816-142.677l70.699-533.803c1.536-11.648-6.656-22.4-18.389-23.936-11.648-1.579-22.357 6.656-23.936 18.347l-70.656 533.76c-7.936 60.203-59.733 105.643-120.533 105.643h-517.803c-60.587 0-112.384-45.355-120.491-105.387l-72.32-536.875c-1.451-10.752-10.581-18.475-21.12-18.475z" />
<glyph unicode="&#xe924;" glyph-name="pli-download-from-cloud" d="M533.504 74.837c-11.733 0-21.333 9.6-21.333 21.333v384c0 11.776 9.6 21.333 21.333 21.333s21.333-9.557 21.333-21.333v-384c0-11.733-9.6-21.333-21.333-21.333zM531.925 74.837c-4.651 0-9.429 1.579-13.312 4.565l-103.083 81.749c-9.259 7.339-10.837 20.736-3.499 29.995 7.381 9.259 20.651 10.752 29.995 3.499l89.899-71.467 93.355 71.723c9.387 7.083 22.656 5.419 29.824-4.053 7.168-9.301 5.419-22.699-3.925-29.867l-106.667-81.749c-3.413-2.901-8.021-4.395-12.587-4.395zM832.043 224.171h-191.872c-11.733 0-21.333 9.6-21.333 21.333s9.6 21.333 21.333 21.333h191.872c82.389 0 149.291 66.901 149.291 149.12 0 53.632-28.331 101.931-75.733 128.981-7.083 4.053-11.307 11.861-10.667 20.053 0.64 9.003 1.067 15.147 1.067 21.461 0 176.427-143.488 320-319.915 320-146.347 0-273.707-99.072-309.845-241.024-2.603-9.813-11.563-16.427-21.675-16.043-2.432 0.128-4.565 0.384-6.827 0.768-0.256 0-0.512 0-0.811 0-108.629 0-194.432-85.931-194.432-191.403 0-105.771 86.229-191.829 192.043-191.829h192.256c11.733 0 21.333-9.557 21.333-21.333 0-11.733-9.6-21.333-21.333-21.333h-192.085c-129.408 0-234.709 105.173-234.709 234.496 0 127.573 102.571 231.723 229.717 234.411 46.549 151.637 186.453 256.043 346.368 256.043 199.936 0 362.581-162.688 362.581-362.667 0-3.883-0.128-7.765-0.341-11.605 53.163-35.541 85.675-95.275 85.675-158.933 0-105.771-86.101-191.829-191.957-191.829z" />
<glyph unicode="&#xe925;" glyph-name="pli-download-window" d="M1002.667 128h-981.333c-11.776 0-21.333 9.6-21.333 21.333v725.333c0 11.733 9.557 21.333 21.333 21.333h981.333c11.733 0 21.333-9.6 21.333-21.333v-725.333c0-11.733-9.6-21.333-21.333-21.333zM42.667 170.667h938.667v682.667h-938.667v-682.667zM981.333 682.667h-938.667c-11.776 0-21.333 9.6-21.333 21.333s9.557 21.333 21.333 21.333h938.667c11.733 0 21.333-9.6 21.333-21.333s-9.6-21.333-21.333-21.333zM170.667 789.333c0-11.782-9.551-21.333-21.333-21.333s-21.333 9.551-21.333 21.333c0 11.782 9.551 21.333 21.333 21.333s21.333-9.551 21.333-21.333zM256 789.333c0-11.782-9.551-21.333-21.333-21.333s-21.333 9.551-21.333 21.333c0 11.782 9.551 21.333 21.333 21.333s21.333-9.551 21.333-21.333zM341.333 789.333c0-11.782-9.551-21.333-21.333-21.333s-21.333 9.551-21.333 21.333c0 11.782 9.551 21.333 21.333 21.333s21.333-9.551 21.333-21.333zM532.437 277.333c-4.736 0-9.472 1.579-13.397 4.651l-105.771 85.333c-9.173 7.424-10.624 20.736-3.2 29.995 7.381 9.173 20.821 10.667 29.995 3.243l92.416-74.496 92.459 74.496c9.173 7.424 22.571 5.973 29.995-3.243 7.339-9.173 5.973-22.528-3.243-29.995l-105.771-85.333c-3.968-3.072-8.704-4.651-13.483-4.651zM533.333 320c-11.776 0-21.333 9.6-21.333 21.333v213.333c0 11.733 9.557 21.333 21.333 21.333 11.733 0 21.333-9.6 21.333-21.333v-213.333c0-11.733-9.6-21.333-21.333-21.333z" />
<glyph unicode="&#xe926;" glyph-name="pli-electricity" d="M991.232 76.373c-0.341 0-0.597 0-0.853 0h-957.653c-7.637 0-14.677 4.053-18.475 10.667s-3.797 14.72 0 21.333l478.848 829.355c7.637 13.269 29.355 13.269 36.949 0l476.288-824.917c3.84-3.883 6.229-9.216 6.229-15.104 0-11.776-9.557-21.333-21.333-21.333zM69.675 119.040h883.712l-441.856 765.355-441.856-765.355zM515.115 135.040c-1.237 0-2.475 0.085-3.712 0.341-10.069 1.792-17.451 10.453-17.621 20.651l-3.243 202.411-110.037-2.987c-7.637 0.597-12.715 2.645-16.896 7.595s-5.888 11.563-4.608 17.877l46.251 232.875c2.005 10.069 10.752 17.237 20.949 17.237h128c6.869 0 13.312-3.285 17.323-8.875 4.011-5.547 5.12-12.715 2.859-19.243l-33.237-99.925h98.389c7.040 0 13.525-3.456 17.579-9.216 3.968-5.845 4.864-13.227 2.347-19.712l-124.416-325.333c-3.2-8.363-11.221-13.696-19.925-13.696zM511.531 401.707c5.504 0 10.752-2.133 14.763-5.931 4.139-3.968 6.485-9.387 6.571-15.104l1.792-113.451 73.813 193.109h-96.939c-6.869 0-13.312 3.285-17.323 8.875-4.011 5.547-5.12 12.715-2.901 19.243l33.28 99.925h-80.896l-37.632-189.525 104.875 2.859c0.213 0 0.427 0 0.597 0z" />
<glyph unicode="&#xe927;" glyph-name="pli-exclamation" d="M512 1008.583c-274.003 0-496.583-222.581-496.583-496.583 0-274.042 222.583-496.583 496.583-496.583s496.583 222.541 496.583 496.583c0 274.003-222.581 496.583-496.583 496.583zM512 965.917c250.942 0 453.917-202.975 453.917-453.917 0-250.985-202.973-453.917-453.917-453.917s-453.917 202.932-453.917 453.917c0 250.942 202.975 453.917 453.917 453.917zM426.667 786.167c-11.78-0.005-21.327-9.555-21.327-21.335 0-1.474 0.149-2.912 0.434-4.302l-0.024 0.138 56.917-284.417c2.015-9.854 10.612-17.163 20.916-17.167h56.834c10.305 0.004 18.902 7.313 20.893 17.029l0.024 0.138 56.917 284.417c0.261 1.252 0.41 2.691 0.41 4.165 0 11.78-9.547 21.331-21.327 21.335v0zM452.667 743.5h118.667l-48.417-241.75h-21.833zM512 412.833c-42.956 0-78.25-35.211-78.25-78.167s35.294-78.25 78.25-78.25c42.956 0 78.25 35.294 78.25 78.25s-35.294 78.167-78.25 78.167zM512 370.167c19.963 0 35.583-15.537 35.583-35.5s-15.62-35.583-35.583-35.583c-19.964 0-35.583 15.62-35.583 35.583s15.62 35.5 35.583 35.5z" />
<glyph unicode="&#xe928;" glyph-name="pli-facebook" d="M917.333 0h-213.333c-11.733 0-21.333 9.6-21.333 21.333v384c0 11.733 9.6 21.333 21.333 21.333h112.683l28.416 85.333h-141.099c-11.733 0-21.333 9.6-21.333 21.333v138.667c0 59.307 66.517 96 128 96h42.667v85.333h-85.333c-78.933 0-170.667-65.237-170.667-149.333v-170.667c0-11.733-9.6-21.333-21.333-21.333h-149.333v-85.333h149.333c11.733 0 21.333-9.6 21.333-21.333v-384c0-11.733-9.6-21.333-21.333-21.333h-469.333c-58.795 0-106.667 47.829-106.667 106.667v810.667c0 58.837 47.872 106.667 106.667 106.667h810.667c58.837 0 106.667-47.829 106.667-106.667v-810.667c0-58.837-47.829-106.667-106.667-106.667zM725.333 42.667h192c35.285 0 64 28.715 64 64v810.667c0 35.285-28.715 64-64 64h-810.667c-35.285 0-64-28.715-64-64v-810.667c0-35.285 28.715-64 64-64h448v341.333h-149.333c-11.776 0-21.333 9.6-21.333 21.333v128c0 11.733 9.557 21.333 21.333 21.333h149.333v149.333c0 109.867 112.683 192 213.333 192h106.667c11.733 0 21.333-9.6 21.333-21.333v-128c0-11.733-9.6-21.333-21.333-21.333h-64c-35.627 0-85.333-20.352-85.333-53.333v-117.333h149.333c6.869 0 13.355-3.285 17.237-8.875 4.096-5.547 5.163-12.715 2.987-19.2l-42.667-128c-2.901-8.704-11.136-14.592-20.309-14.592h-106.581v-341.333z" />
<glyph unicode="&#xe929;" glyph-name="pli-facebook-2" d="M554.667 0h-128c-11.733 0-21.333 9.6-21.333 21.333v405.333h-149.333c-11.733 0-21.333 9.6-21.333 21.333v170.667c0 11.733 9.6 21.333 21.333 21.333h149.333v168.747c0 114.688 110.763 215.253 237.013 215.253h125.653c11.733 0 21.333-9.6 21.333-21.333v-128c0-11.733-9.6-21.333-21.333-21.333h-76.715c-46.635 0-115.285-42.837-115.285-81.323v-132.011h188.843c6.699 0 13.013-3.157 17.024-8.491s5.291-12.288 3.456-18.688l-49.024-170.667c-2.645-9.173-11.008-15.445-20.437-15.445h-139.861v-405.333c0-11.776-9.6-21.376-21.333-21.376zM448 42.667h85.333v405.333c0 11.733 9.6 21.333 21.333 21.333h144.981l36.821 128h-181.803c-11.733 0-21.333 9.6-21.333 21.333v153.344c0 68.437 95.573 123.989 157.952 123.989h55.381v85.333h-104.32c-91.947 0-194.347-70.869-194.347-172.587v-190.080c0-11.733-9.6-21.333-21.333-21.333h-149.333v-128h149.333c11.733 0 21.333-9.6 21.333-21.333v-405.333z" />
<glyph unicode="&#xe92a;" glyph-name="pli-female-2" d="M512 0c-282.325 0-512 229.675-512 512s229.675 512 512 512 512-229.675 512-512-229.675-512-512-512zM512 981.333c-258.773 0-469.333-210.603-469.333-469.333s210.56-469.333 469.333-469.333c258.731 0 469.333 210.603 469.333 469.333s-210.603 469.333-469.333 469.333zM514.005 298.88c-124.885 0-214.101 66.688-247.125 132.736-3.413 6.827-2.901 15.019 1.323 21.376l72.448 108.672c0.128 83.115 4.48 242.901 173.355 242.901 168.917 0 173.355-159.787 173.397-242.901l72.405-108.672c4.309-6.357 4.736-14.549 1.323-21.376-32.981-66.091-122.197-132.736-247.125-132.736zM310.912 440.149c31.147-50.688 103.339-98.688 203.093-98.688 99.797 0 171.989 47.957 203.179 98.688l-68.821 103.211c-2.347 3.499-3.584 7.637-3.584 11.733 0 109.056-9.984 206.805-130.731 206.805-120.704 0-130.688-97.749-130.688-206.805 0-4.224-1.237-8.235-3.584-11.733l-68.864-103.211zM803.584 92.885c-6.741 0-13.355 3.157-17.493 9.088-21.077 30.037-62.123 65.877-137.813 65.877-42.027 0-76.331 34.347-76.331 76.331v80.512c0 11.776 9.6 21.333 21.333 21.333 11.819 0 21.333-9.557 21.333-21.333v-80.512c0-18.603 15.104-33.664 33.664-33.664 94.080 0 145.835-45.611 172.8-84.053 6.784-9.643 4.437-22.955-5.205-29.696-3.755-2.645-8.021-3.883-12.288-3.883zM221.696 94.72c-4.309 0-8.704 1.28-12.459 4.053-9.557 6.869-11.691 20.267-4.821 29.739 26.965 37.419 78.592 82.005 171.307 82.005 18.603 0 33.707 15.104 33.707 33.664v80.512c0 11.776 9.557 21.333 21.333 21.333s21.333-9.557 21.333-21.333v-80.512c0-41.984-34.261-76.331-76.373-76.331-74.667 0-115.541-34.859-136.661-64.299-4.224-5.76-10.752-8.832-17.365-8.832z" />
<glyph unicode="&#xe92b;" glyph-name="pli-file" d="M874.667 0h-725.333c-11.776 0-21.333 9.6-21.333 21.333v743.168c0 5.248 1.92 10.283 5.419 14.208l213.333 238.165c4.053 4.523 9.813 7.125 15.915 7.125h512c11.733 0 21.333-9.557 21.333-21.333v-981.333c0-11.733-9.6-21.333-21.333-21.333zM170.667 42.667h682.667v938.667h-481.109l-201.557-224.981v-713.685zM362.667 725.333h-192c-11.776 0-21.333 9.557-21.333 21.333s9.557 21.333 21.333 21.333h170.667v213.333c0 11.776 9.557 21.333 21.333 21.333s21.333-9.557 21.333-21.333v-234.667c0-11.776-9.557-21.333-21.333-21.333z" />
<glyph unicode="&#xe92c;" glyph-name="pli-file-add" d="M544 0h-405.333c-11.776 0-21.333 9.6-21.333 21.333v743.168c0 5.248 1.92 10.283 5.419 14.208l213.333 238.165c4.053 4.523 9.813 7.125 15.915 7.125h512c11.733 0 21.333-9.557 21.333-21.333v-618.667c0-11.733-9.6-21.333-21.333-21.333s-21.333 9.6-21.333 21.333v597.333h-481.109l-201.557-224.981v-713.685h384c11.733 0 21.333-9.6 21.333-21.333s-9.6-21.333-21.333-21.333zM352 725.333h-192c-11.776 0-21.333 9.557-21.333 21.333s9.557 21.333 21.333 21.333h170.667v213.333c0 11.776 9.557 21.333 21.333 21.333s21.333-9.557 21.333-21.333v-234.667c0-11.776-9.557-21.333-21.333-21.333zM778.667 21.333c-11.733 0-21.333 9.6-21.333 21.333v213.333c0 11.733 9.6 21.333 21.333 21.333s21.333-9.6 21.333-21.333v-213.333c0-11.733-9.6-21.333-21.333-21.333zM885.333 128h-213.333c-11.733 0-21.333 9.6-21.333 21.333s9.6 21.333 21.333 21.333h213.333c11.733 0 21.333-9.6 21.333-21.333s-9.6-21.333-21.333-21.333z" />
<glyph unicode="&#xe92d;" glyph-name="pli-file-csv" d="M810.667 0h-725.333c-11.776 0-21.333 9.6-21.333 21.333v743.168c0 5.248 1.92 10.283 5.419 14.208l213.333 238.165c4.053 4.523 9.813 7.125 15.915 7.125h512c11.733 0 21.333-9.557 21.333-21.333v-490.667c0-11.776-9.6-21.333-21.333-21.333s-21.333 9.557-21.333 21.333v469.333h-481.109l-201.557-224.981v-713.685h682.667v85.333c0 11.733 9.6 21.333 21.333 21.333s21.333-9.6 21.333-21.333v-106.667c0-11.733-9.6-21.333-21.333-21.333zM298.667 725.333h-192c-11.776 0-21.333 9.557-21.333 21.333s9.557 21.333 21.333 21.333h170.667v213.333c0 11.776 9.557 21.333 21.333 21.333s21.333-9.557 21.333-21.333v-234.667c0-11.776-9.557-21.333-21.333-21.333zM896 128h-512c-35.285 0-64 28.715-64 64v256c0 35.285 28.715 64 64 64h512c35.285 0 64-28.715 64-64v-256c0-35.285-28.715-64-64-64zM384 469.333c-11.776 0-21.333-9.6-21.333-21.333v-256c0-11.733 9.557-21.333 21.333-21.333h512c11.733 0 21.333 9.6 21.333 21.333v256c0 11.733-9.6 21.333-21.333 21.333h-512zM564.437 260.651c1.195 0 2.304-0.555 3.243-1.451l8.491-9.301c-6.571-7.595-14.507-13.525-23.936-17.749-9.344-4.309-20.608-6.357-33.792-6.357-11.563 0-22.059 2.005-31.445 5.973-9.387 4.011-17.408 9.685-24.021 16.896-6.656 7.168-11.776 15.829-15.445 25.771-3.627 10.069-5.461 21.163-5.461 33.237s1.963 23.125 5.888 33.195c3.925 10.027 9.429 18.688 16.512 25.856 7.083 7.211 15.573 12.843 25.429 16.896 9.856 4.011 20.779 6.016 32.725 6.016 11.776 0 21.973-1.835 30.464-5.461 8.533-3.669 16.128-8.661 22.784-14.891l-7.083-9.941c-0.555-0.768-1.109-1.323-1.792-1.835-0.683-0.469-1.664-0.725-2.901-0.725-0.939 0-2.005 0.341-3.072 0.981-1.024 0.768-2.347 1.579-3.84 2.688-1.493 0.939-3.243 2.133-5.248 3.371-2.005 1.195-4.395 2.304-7.168 3.371-2.688 0.939-5.973 1.877-9.6 2.603-3.669 0.811-7.893 1.067-12.629 1.067-8.576 0-16.427-1.493-23.552-4.437s-13.269-7.125-18.389-12.587c-5.12-5.461-9.173-12.032-12.032-19.925-2.859-7.808-4.309-16.597-4.309-26.283 0-9.984 1.451-18.901 4.309-26.709 2.859-7.851 6.784-14.464 11.733-19.84 4.949-5.419 10.837-9.515 17.621-12.373 6.784-2.816 14.080-4.267 21.931-4.267 4.779 0 9.045 0.256 12.885 0.853 3.797 0.555 7.296 1.451 10.624 2.688 3.243 1.152 6.229 2.688 9.003 4.437 2.816 1.835 5.632 4.053 8.491 6.571 1.152 1.109 2.389 1.664 3.584 1.664zM686.763 362.752c-0.683-1.067-1.323-1.963-2.133-2.517-0.725-0.597-1.707-0.896-2.859-0.896-1.28 0-2.731 0.725-4.437 1.92-1.707 1.237-3.797 2.645-6.357 4.181s-5.675 2.944-9.301 4.309c-3.584 1.237-8.021 1.877-13.141 1.877-4.821 0-9.173-0.64-12.843-1.963-3.755-1.323-6.827-3.072-9.344-5.333-2.56-2.261-4.437-4.864-5.675-7.979-1.237-3.029-1.877-6.229-1.877-9.771 0-4.437 1.024-8.192 3.285-11.136 2.176-2.944 5.12-5.504 8.747-7.595 3.584-2.091 7.723-3.883 12.288-5.419 4.523-1.493 9.301-3.072 14.123-4.736 4.736-1.664 9.515-3.499 14.080-5.504 4.523-2.048 8.661-4.608 12.245-7.808 3.669-3.115 6.528-6.955 8.747-11.563 2.261-4.48 3.328-10.069 3.328-16.768 0-6.997-1.152-13.568-3.584-19.712-2.389-6.229-5.888-11.563-10.411-16.043-4.565-4.48-10.24-8.064-16.896-10.752-6.656-2.603-14.251-3.883-22.741-3.883-10.325 0-19.797 1.877-28.373 5.632-8.533 3.755-15.787 8.832-21.888 15.232l6.229 10.24c0.597 0.896 1.323 1.493 2.176 2.091 0.896 0.597 1.835 0.896 2.859 0.896 1.579 0 3.371-0.896 5.333-2.56 2.048-1.664 4.523-3.499 7.552-5.504s6.656-3.883 11.008-5.589c4.267-1.664 9.515-2.517 15.659-2.517 5.163 0 9.771 0.768 13.739 2.133 4.096 1.408 7.424 3.413 10.24 6.101 2.816 2.56 4.949 5.632 6.4 9.216 1.493 3.541 2.304 7.552 2.304 11.947 0 4.864-1.109 8.789-3.328 11.861-2.176 3.072-5.077 5.76-8.661 7.808-3.584 2.091-7.68 3.84-12.245 5.333-4.523 1.451-9.259 2.944-14.037 4.437-4.821 1.536-9.557 3.328-14.165 5.291-4.523 2.091-8.661 4.608-12.245 7.936-3.584 3.157-6.443 7.253-8.661 11.989-2.176 4.821-3.328 10.752-3.328 17.835 0 5.717 1.152 11.179 3.328 16.469 2.219 5.291 5.419 9.899 9.6 14.080 4.181 4.096 9.344 7.381 15.488 9.771 6.144 2.56 13.227 3.669 21.163 3.669 9.003 0 17.109-1.408 24.491-4.267 7.424-2.859 13.824-6.955 19.413-12.331l-5.291-10.112zM704.683 387.84h17.323c1.92 0 3.499-0.469 4.693-1.408s2.091-2.261 2.688-3.669l45.312-113.067c1.024-2.517 1.963-5.291 2.773-8.277 0.896-2.944 1.749-6.101 2.56-9.301 0.683 3.2 1.365 6.315 2.176 9.301s1.707 5.803 2.688 8.277l45.141 113.067c0.512 1.237 1.365 2.432 2.688 3.499 1.237 1.109 2.773 1.664 4.651 1.664h17.451l-65.323-160.299h-19.584l-65.237 160.213z" />
<glyph unicode="&#xe92e;" glyph-name="pli-file-edit" d="M571.819 75.435c-5.504 0-11.008 2.261-15.104 6.229-6.016 6.016-7.893 15.019-4.736 22.912l58.923 149.419c1.067 2.688 2.688 5.205 4.821 7.253l163.499 163.499c8.235 8.32 21.845 8.32 30.165 0l90.496-90.496c4.011-4.011 6.229-9.429 6.229-15.104 0-5.76-2.261-11.179-6.229-15.104l-163.499-163.499c-2.091-2.048-4.48-3.712-7.253-4.779l-149.504-58.923c-2.475-0.939-5.12-1.408-7.808-1.408zM649.088 234.197l-39.339-99.627 99.669 39.296 145.237 145.28-60.373 60.331-145.195-145.28zM884.821 288.981l-30.165 30.165 43.52 43.477c13.397 13.44 7.509 45.696-3.584 56.832-11.093 11.008-43.349 16.939-56.789 3.541l-43.563-43.52-30.165 30.165 43.563 43.52c32.896 32.896 92.757 20.736 117.077-3.541 24.32-24.363 36.437-84.309 3.584-117.163l-43.477-43.477zM707.868 163.841l-67.116 67.078 30.161 30.178 67.116-67.078-30.161-30.178zM799.877 253.186l-68.57 68.28 30.106 30.234 68.57-68.28-30.106-30.234zM502.272 0h-405.333c-11.776 0-21.333 9.6-21.333 21.333v743.168c0 5.248 1.92 10.283 5.419 14.208l213.333 238.165c4.096 4.523 9.813 7.125 15.915 7.125h512c11.776 0 21.333-9.557 21.333-21.333v-448c0-11.776-9.557-21.333-21.333-21.333-11.733 0-21.333 9.557-21.333 21.333v426.667h-481.067l-201.6-224.981v-713.685h384c11.776 0 21.333-9.6 21.333-21.333s-9.557-21.333-21.333-21.333zM310.272 725.333h-192c-11.776 0-21.333 9.557-21.333 21.333s9.6 21.333 21.333 21.333h170.667v213.333c0 11.776 9.557 21.333 21.333 21.333s21.333-9.557 21.333-21.333v-234.667c0-11.776-9.557-21.333-21.333-21.333z" />
<glyph unicode="&#xe92f;" glyph-name="pli-file-excel" d="M810.667 0h-725.333c-11.776 0-21.333 9.6-21.333 21.333v743.168c0 5.248 1.92 10.283 5.419 14.208l213.333 238.165c4.053 4.523 9.813 7.125 15.915 7.125h512c11.733 0 21.333-9.557 21.333-21.333v-490.667c0-11.776-9.6-21.333-21.333-21.333s-21.333 9.557-21.333 21.333v469.333h-481.109l-201.557-224.981v-713.685h682.667v85.333c0 11.733 9.6 21.333 21.333 21.333s21.333-9.6 21.333-21.333v-106.667c0-11.733-9.6-21.333-21.333-21.333zM298.667 725.333h-192c-11.776 0-21.333 9.557-21.333 21.333s9.557 21.333 21.333 21.333h170.667v213.333c0 11.776 9.557 21.333 21.333 21.333s21.333-9.557 21.333-21.333v-234.667c0-11.776-9.557-21.333-21.333-21.333zM896 128h-512c-35.285 0-64 28.715-64 64v256c0 35.285 28.715 64 64 64h512c35.285 0 64-28.715 64-64v-256c0-35.285-28.715-64-64-64zM384 469.333c-11.776 0-21.333-9.6-21.333-21.333v-256c0-11.733 9.557-21.333 21.333-21.333h512c11.733 0 21.333 9.6 21.333 21.333v256c0 11.733-9.6 21.333-21.333 21.333h-512zM504.704 322.176l-52.907 77.995h21.589c1.579 0 2.688-0.256 3.456-0.853 0.768-0.555 1.408-1.237 2.005-2.219l41.813-64.213c0.512 1.579 1.323 3.285 2.347 5.12l39.509 58.624c0.683 1.067 1.365 1.877 2.176 2.645 0.768 0.64 1.749 0.896 2.816 0.896h20.693l-53.12-76.971 54.912-83.328h-21.461c-1.664 0-2.901 0.469-3.883 1.28-0.896 0.853-1.664 1.792-2.261 2.816l-43.008 67.2c-0.512-1.579-1.195-3.029-2.005-4.437l-41.813-62.72c-0.683-1.067-1.451-2.048-2.304-2.859-0.853-0.896-2.048-1.28-3.627-1.28h-20.139l55.211 82.304zM633.003 258.091h69.333v-18.219h-91.051v160.256h21.717v-142.037zM808.32 375.083c-0.683-1.067-1.365-1.963-2.176-2.517-0.725-0.597-1.664-0.896-2.859-0.896-1.28 0-2.688 0.64-4.437 1.877-1.664 1.28-3.797 2.688-6.315 4.267-2.603 1.493-5.675 2.859-9.344 4.181-3.584 1.237-8.021 1.877-13.141 1.877-4.779 0-9.131-0.768-12.843-1.963-3.712-1.28-6.827-3.072-9.387-5.333-2.517-2.261-4.395-4.864-5.589-7.979-1.237-3.029-1.92-6.229-1.92-9.771 0-4.437 1.067-8.192 3.328-11.136 2.176-2.944 5.077-5.504 8.704-7.595 3.584-2.048 7.723-3.883 12.288-5.419 4.565-1.493 9.344-3.072 14.123-4.736s9.557-3.499 14.080-5.504c4.523-2.048 8.704-4.608 12.288-7.808 3.627-3.115 6.485-6.955 8.747-11.563 2.219-4.48 3.328-10.069 3.328-16.768 0-7.040-1.195-13.568-3.584-19.712-2.432-6.229-5.931-11.563-10.453-16.085-4.565-4.523-10.24-8.107-16.896-10.709s-14.251-3.925-22.741-3.925c-10.411 0-19.84 1.877-28.416 5.632s-15.829 8.875-21.888 15.275l6.272 10.24c0.597 0.896 1.323 1.493 2.176 2.091 0.853 0.555 1.792 0.853 2.816 0.853 1.579 0 3.413-0.853 5.333-2.517 2.005-1.749 4.523-3.584 7.595-5.589 2.987-2.005 6.656-3.84 10.965-5.504s9.643-2.347 15.787-2.347c5.163 0 9.771 0.768 13.739 2.133 4.053 1.408 7.424 3.413 10.24 6.101 2.773 2.56 4.907 5.632 6.4 9.216 1.493 3.541 2.261 7.552 2.261 11.989 0 4.821-1.067 8.789-3.328 11.904-2.176 3.029-5.077 5.675-8.661 7.765s-7.68 3.84-12.245 5.291c-4.523 1.451-9.259 2.944-14.080 4.437-4.779 1.536-9.515 3.328-14.080 5.333-4.565 2.048-8.661 4.608-12.245 7.936-3.584 3.2-6.485 7.211-8.661 12.032-2.261 4.779-3.328 10.752-3.328 17.835 0 5.675 1.067 11.136 3.328 16.427 2.176 5.333 5.376 9.899 9.6 14.123 4.181 4.096 9.344 7.381 15.445 9.771 6.144 2.56 13.227 3.669 21.205 3.669 8.96 0 17.067-1.408 24.491-4.267 7.381-2.859 13.824-6.955 19.328-12.331l-5.248-10.283z" />
<glyph unicode="&#xe930;" glyph-name="pli-file-html" d="M789.333 0h-725.333c-11.776 0-21.333 9.6-21.333 21.333v743.168c0 5.248 1.92 10.283 5.419 14.208l213.333 238.165c4.053 4.523 9.813 7.125 15.915 7.125h512c11.733 0 21.333-9.557 21.333-21.333v-490.667c0-11.776-9.6-21.333-21.333-21.333s-21.333 9.557-21.333 21.333v469.333h-481.109l-201.557-224.981v-713.685h682.667v85.333c0 11.733 9.6 21.333 21.333 21.333s21.333-9.6 21.333-21.333v-106.667c0-11.733-9.6-21.333-21.333-21.333zM277.333 725.333h-192c-11.776 0-21.333 9.557-21.333 21.333s9.557 21.333 21.333 21.333h170.667v213.333c0 11.776 9.557 21.333 21.333 21.333s21.333-9.557 21.333-21.333v-234.667c0-11.776-9.557-21.333-21.333-21.333zM917.333 128h-682.667c-35.285 0-64 28.715-64 64v256c0 35.285 28.715 64 64 64h682.667c35.285 0 64-28.715 64-64v-256c0-35.285-28.715-64-64-64zM234.667 469.333c-11.776 0-21.333-9.6-21.333-21.333v-256c0-11.733 9.557-21.333 21.333-21.333h682.667c11.733 0 21.333 9.6 21.333 21.333v256c0 11.733-9.6 21.333-21.333 21.333h-682.667zM426.752 239.872h-21.803v72.917h-86.315v-72.917h-21.803v160.256h21.803v-71.467h86.315v71.467h21.803v-160.256zM575.104 400.128v-18.219h-51.755v-142.037h-21.717v142.037h-52.011v18.219h125.483zM679.467 292.181c0.811-2.005 1.579-3.968 2.304-6.016 0.853 2.091 1.579 4.096 2.432 6.016 0.896 1.877 1.749 3.84 2.731 5.76l54.229 98.603c0.896 1.707 1.963 2.731 2.987 3.115 0.939 0.384 2.56 0.555 4.437 0.555h15.957v-160.256h-18.944v117.76c0 1.579 0.085 3.243 0.171 5.035s0.171 3.627 0.341 5.461l-54.912-100.309c-1.92-3.371-4.48-5.035-7.851-5.035h-3.157c-3.413 0-6.059 1.664-7.936 5.035l-56.064 100.565c0.171-1.963 0.384-3.883 0.512-5.717 0.085-1.92 0.171-3.584 0.171-5.163v-117.803h-19.029v160.299h16c1.963 0 3.413-0.171 4.48-0.597 1.024-0.384 2.048-1.408 2.944-3.072l55.339-98.688c1.152-1.749 2.091-3.541 2.859-5.547zM825.429 258.091h69.333v-18.219h-91.093v160.256h21.76v-142.037z" />
<glyph unicode="&#xe931;" glyph-name="pli-file-jpg" d="M810.667 0h-725.333c-11.733 0-21.333 9.6-21.333 21.333v743.168c0 5.248 1.963 10.283 5.461 14.208l213.333 238.165c4.053 4.523 9.771 7.125 15.872 7.125h512c11.733 0 21.333-9.557 21.333-21.333v-490.667c0-11.776-9.6-21.333-21.333-21.333s-21.333 9.557-21.333 21.333v469.333h-481.067l-201.6-224.981v-713.685h682.667v85.333c0 11.733 9.6 21.333 21.333 21.333s21.333-9.6 21.333-21.333v-106.667c0-11.733-9.6-21.333-21.333-21.333zM298.667 725.333h-192c-11.733 0-21.333 9.557-21.333 21.333s9.6 21.333 21.333 21.333h170.667v213.333c0 11.776 9.6 21.333 21.333 21.333s21.333-9.557 21.333-21.333v-234.667c0-11.776-9.6-21.333-21.333-21.333zM896 128h-512c-35.285 0-64 28.715-64 64v256c0 35.285 28.715 64 64 64h512c35.285 0 64-28.715 64-64v-256c0-35.285-28.715-64-64-64zM384 469.333c-11.733 0-21.333-9.6-21.333-21.333v-256c0-11.733 9.6-21.333 21.333-21.333h512c11.733 0 21.333 9.6 21.333 21.333v256c0 11.733-9.6 21.333-21.333 21.333h-512zM525.269 290.005c0-8.917-0.981-16.896-3.243-24.021-2.261-7.083-5.504-13.099-9.771-17.92-4.352-4.907-9.6-8.661-15.829-11.264-6.229-2.645-13.397-3.968-21.589-3.968-7.253 0-14.763 1.024-22.571 3.115 0.171 2.176 0.341 4.352 0.597 6.4 0.256 2.133 0.512 4.267 0.725 6.272 0.128 1.28 0.725 2.304 1.365 3.072 0.896 0.811 2.005 1.109 3.541 1.109 1.28 0 3.029-0.341 5.376-0.939 2.261-0.64 5.248-0.939 8.96-0.939 4.864 0 9.301 0.768 13.227 2.219 3.84 1.451 7.083 3.797 9.771 6.955 2.688 3.072 4.651 7.125 6.016 11.989 1.408 4.864 2.091 10.667 2.091 17.408v105.344h21.589v-104.917h-0.256v0.085zM588.117 294.613v-59.947h-21.632v160.256h47.317c10.069 0 18.859-1.152 26.368-3.541 7.552-2.347 13.696-5.717 18.688-9.899 4.907-4.437 8.576-9.685 11.008-15.659 2.432-6.144 3.669-12.928 3.669-20.437s-1.323-14.251-3.925-20.437c-2.688-6.229-6.443-11.563-11.563-16-4.907-4.437-11.264-7.979-18.688-10.453s-16-3.755-25.6-3.755l-25.643-0.128zM588.117 311.851h25.728c6.229 0 11.648 0.896 16.427 2.517 4.693 1.664 8.661 3.925 11.861 6.869 3.2 2.859 5.632 6.443 7.296 10.581 1.621 4.096 2.517 8.619 2.517 13.44 0 10.24-3.115 18.176-9.515 24.021-6.229 5.76-15.829 8.576-28.587 8.576h-25.728v-66.005zM772.437 250.453c4.437 0 8.32 0.171 11.904 0.597 3.627 0.469 6.997 1.024 10.24 1.835 3.157 0.896 6.229 1.792 9.045 2.944s5.675 2.517 8.491 3.968v35.328h-24.832c-1.408 0-2.56 0.427-3.371 1.237-0.896 0.853-1.323 1.792-1.323 3.029v12.331h49.237v-61.525c-4.096-2.901-8.235-5.419-12.587-7.595-4.437-2.219-9.045-3.968-13.995-5.419-4.949-1.493-10.24-2.645-15.915-3.285s-11.819-0.981-18.517-0.981c-11.563 0-22.229 2.005-32 5.973-9.771 4.011-18.005 9.6-25.003 16.811s-12.501 15.829-16.427 25.856c-4.011 10.027-5.931 21.163-5.931 33.195 0 12.245 1.92 23.424 5.76 33.451 3.925 10.069 9.429 18.688 16.512 25.899 7.083 7.168 15.744 12.757 25.771 16.725 10.069 4.011 21.419 5.931 33.963 5.931 6.272 0 12.203-0.469 17.664-1.365 5.461-0.939 10.496-2.304 15.104-4.053 4.565-1.749 8.917-3.925 12.971-6.357 3.968-2.475 7.637-5.291 11.051-8.448l-6.187-9.771c-1.237-2.005-2.859-3.029-4.864-3.029-1.195 0-2.56 0.384-3.968 1.195-1.92 0.939-4.011 2.347-6.229 3.797-2.304 1.493-5.077 2.944-8.32 4.395-3.328 1.365-7.253 2.56-11.733 3.499s-9.813 1.451-16.043 1.451c-9.045 0-17.195-1.451-24.491-4.437s-13.525-7.168-18.688-12.629-9.088-12.117-11.776-19.925-4.224-16.555-4.224-26.197c0-10.155 1.493-19.2 4.395-27.136 2.859-7.979 6.912-14.72 12.16-20.267 5.12-5.504 11.435-9.771 18.56-12.629 7.040-2.944 14.891-4.395 23.595-4.395z" />
<glyph unicode="&#xe932;" glyph-name="pli-file-music" d="M405.205 0h-320c-11.776 0-21.333 9.6-21.333 21.333v743.168c0 5.248 1.92 10.283 5.419 14.208l213.333 238.165c4.053 4.523 9.813 7.125 15.915 7.125h512c11.776 0 21.333-9.557 21.333-21.333v-448c0-11.776-9.557-21.333-21.333-21.333-11.733 0-21.333 9.557-21.333 21.333v426.667h-481.109l-201.557-224.981v-713.685h298.667c11.776 0 21.333-9.6 21.333-21.333s-9.6-21.333-21.333-21.333zM298.539 725.333h-192c-11.776 0-21.333 9.557-21.333 21.333s9.557 21.333 21.333 21.333h170.667v213.333c0 11.776 9.557 21.333 21.333 21.333s21.333-9.557 21.333-21.333v-234.667c0-11.776-9.6-21.333-21.333-21.333zM682.496 64c-11.733 0-21.333 9.6-21.333 21.333v277.333c0 7.509 4.011 14.507 10.496 18.347l256 152.021c6.528 3.925 14.763 3.968 21.419 0.213 6.656-3.797 10.752-10.88 10.752-18.645v-386.688c0-11.776-9.557-21.333-21.333-21.333-11.733 0-21.333 9.557-21.333 21.333v349.184l-213.333-126.677v-265.173c0-11.648-9.557-21.248-21.333-21.248zM598.315 0.896c-58.325 0-105.813 37.888-105.813 84.437s47.488 84.437 105.813 84.437c58.368 0 105.813-37.888 105.813-84.437s-47.403-84.437-105.813-84.437zM598.315 127.104c-34.219 0-63.147-19.072-63.147-41.771s28.971-41.771 63.147-41.771c34.261 0 63.147 19.072 63.147 41.771s-28.885 41.771-63.147 41.771zM854.315 43.563c-58.325 0-105.813 37.888-105.813 84.437s47.488 84.437 105.813 84.437c58.368 0 105.813-37.888 105.813-84.437s-47.403-84.437-105.813-84.437zM854.315 169.771c-34.219 0-63.147-19.072-63.147-41.771s28.971-41.771 63.147-41.771c34.261 0 63.147 19.072 63.147 41.771s-28.885 41.771-63.147 41.771zM682.496 213.333c-7.253 0-14.336 3.712-18.347 10.453-6.016 10.112-2.688 23.211 7.424 29.227l256 152.021c10.112 6.144 23.253 2.688 29.269-7.424s2.688-23.211-7.424-29.312l-256-152.021c-3.413-2.048-7.168-2.944-10.923-2.944z" />
<glyph unicode="&#xe933;" glyph-name="pli-file-pictures" d="M874.667 0h-725.333c-11.776 0-21.333 9.6-21.333 21.333v743.168c0 5.248 1.92 10.283 5.419 14.208l213.333 238.165c4.053 4.523 9.813 7.125 15.915 7.125h512c11.733 0 21.333-9.557 21.333-21.333v-981.333c0-11.733-9.6-21.333-21.333-21.333zM170.667 42.667h682.667v938.667h-481.109l-201.557-224.981v-713.685zM362.667 725.333h-192c-11.776 0-21.333 9.557-21.333 21.333s9.557 21.333 21.333 21.333h170.667v213.333c0 11.776 9.557 21.333 21.333 21.333s21.333-9.557 21.333-21.333v-234.667c0-11.776-9.557-21.333-21.333-21.333zM746.667 128h-469.333c-11.776 0-21.333 9.6-21.333 21.333v469.333c0 11.776 9.557 21.333 21.333 21.333h469.333c11.733 0 21.333-9.557 21.333-21.333v-469.333c0-11.733-9.6-21.333-21.333-21.333zM298.667 170.667h426.667v426.667h-426.667v-426.667zM725.333 213.333h-426.667c-11.776 0-21.333 9.6-21.333 21.333s9.557 21.333 21.333 21.333h426.667c11.733 0 21.333-9.6 21.333-21.333s-9.6-21.333-21.333-21.333zM638.208 298.667c-0.299 0-0.64 0-0.896 0h-261.291c-8.405 0-16.043 4.949-19.499 12.629s-2.005 16.725 3.584 22.955l70.656 78.677c6.229 6.912 16.171 9.045 24.619 5.205l37.675-16.896 58.923 66.603c4.608 5.291 11.563 7.936 18.603 7.040s13.099-5.12 16.299-11.349l66.901-128.981c3.541-3.797 5.675-8.875 5.675-14.464 0.085-11.819-9.557-21.419-21.248-21.419zM423.851 341.333h178.389l-38.869 74.923-48.725-55.083c-6.187-6.955-16.171-9.131-24.704-5.291l-37.803 16.939-28.288-31.488zM429.312 426.667c-35.285 0-64 28.715-64 64s28.715 64 64 64 64-28.715 64-64-28.672-64-64-64zM429.312 512c-11.776 0-21.333-9.557-21.333-21.333 0-11.733 9.557-21.333 21.333-21.333s21.333 9.6 21.333 21.333c0 11.776-9.557 21.333-21.333 21.333z" />
<glyph unicode="&#xe934;" glyph-name="pli-file-search" d="M887.936 4.181c-5.461 0-10.923 2.091-15.104 6.229l-154.752 154.752c-8.32 8.32-8.32 21.845 0 30.165s21.845 8.32 30.165 0l154.752-154.752c8.277-8.32 8.277-21.845 0-30.165-4.181-4.181-9.643-6.229-15.061-6.229zM642.944 121.6c-39.808 0-77.227 15.445-105.344 43.563-28.16 28.117-43.648 65.536-43.648 105.344 0 39.893 15.488 77.312 43.648 105.344 56.277 56.277 154.368 56.277 210.688 0 28.075-28.075 43.563-65.493 43.563-105.344 0-39.808-15.488-77.227-43.563-105.344-28.117-28.117-65.536-43.563-105.344-43.563zM642.944 376.832c-28.373 0-55.083-11.051-75.179-31.147-20.139-20.096-31.147-46.763-31.147-75.179s11.051-55.083 31.147-75.179c40.107-40.064 110.165-40.064 150.272 0 20.096 20.096 31.104 46.763 31.104 75.179s-11.051 55.083-31.104 75.179c-20.011 20.096-46.72 31.147-75.093 31.147zM541.44 0h-405.333c-11.776 0-21.333 9.6-21.333 21.333v743.168c0 5.248 1.92 10.283 5.419 14.208l213.333 238.165c4.096 4.523 9.813 7.125 15.915 7.125h512c11.776 0 21.333-9.557 21.333-21.333v-618.667c0-11.733-9.557-21.333-21.333-21.333s-21.333 9.6-21.333 21.333v597.333h-481.067l-201.6-224.981v-713.685h384c11.776 0 21.333-9.6 21.333-21.333s-9.515-21.333-21.333-21.333zM349.44 725.333h-192c-11.776 0-21.333 9.557-21.333 21.333s9.6 21.333 21.333 21.333h170.667v213.333c0 11.776 9.557 21.333 21.333 21.333s21.333-9.557 21.333-21.333v-234.667c0-11.776-9.557-21.333-21.333-21.333z" />
<glyph unicode="&#xe935;" glyph-name="pli-file-text-image" d="M874.667 0h-725.333c-11.776 0-21.333 9.6-21.333 21.333v743.168c0 5.248 1.92 10.283 5.419 14.208l213.333 238.165c4.053 4.523 9.813 7.125 15.915 7.125h512c11.733 0 21.333-9.557 21.333-21.333v-981.333c0-11.733-9.6-21.333-21.333-21.333zM170.667 42.667h682.667v938.667h-481.109l-201.557-224.981v-713.685zM362.667 725.333h-192c-11.776 0-21.333 9.557-21.333 21.333s9.557 21.333 21.333 21.333h170.667v213.333c0 11.776 9.557 21.333 21.333 21.333s21.333-9.557 21.333-21.333v-234.667c0-11.776-9.557-21.333-21.333-21.333zM704 128h-384c-11.776 0-21.333 9.6-21.333 21.333v469.333c0 11.776 9.557 21.333 21.333 21.333h384c11.733 0 21.333-9.557 21.333-21.333v-469.333c0-11.733-9.6-21.333-21.333-21.333zM341.333 170.667h341.333v426.667h-341.333v-426.667zM682.667 256h-341.333c-11.776 0-21.333 9.6-21.333 21.333s9.557 21.333 21.333 21.333h341.333c11.733 0 21.333-9.6 21.333-21.333s-9.6-21.333-21.333-21.333zM597.333 512h-170.667c-11.776 0-21.333 9.557-21.333 21.333s9.557 21.333 21.333 21.333h170.667c11.733 0 21.333-9.557 21.333-21.333s-9.6-21.333-21.333-21.333zM597.333 426.667h-170.667c-11.776 0-21.333 9.6-21.333 21.333s9.557 21.333 21.333 21.333h170.667c11.733 0 21.333-9.6 21.333-21.333s-9.6-21.333-21.333-21.333zM597.333 341.333h-170.667c-11.776 0-21.333 9.6-21.333 21.333s9.557 21.333 21.333 21.333h170.667c11.733 0 21.333-9.6 21.333-21.333s-9.6-21.333-21.333-21.333z" />
<glyph unicode="&#xe936;" glyph-name="pli-file-txt" d="M810.667 0h-725.333c-11.733 0-21.333 9.6-21.333 21.333v743.168c0 5.248 1.963 10.283 5.461 14.208l213.333 238.165c4.053 4.523 9.771 7.125 15.872 7.125h512c11.733 0 21.333-9.557 21.333-21.333v-490.667c0-11.776-9.6-21.333-21.333-21.333s-21.333 9.557-21.333 21.333v469.333h-481.067l-201.6-224.981v-713.685h682.667v85.333c0 11.733 9.6 21.333 21.333 21.333s21.333-9.6 21.333-21.333v-106.667c0-11.733-9.6-21.333-21.333-21.333zM298.667 725.333h-192c-11.733 0-21.333 9.557-21.333 21.333s9.6 21.333 21.333 21.333h170.667v213.333c0 11.776 9.6 21.333 21.333 21.333s21.333-9.557 21.333-21.333v-234.667c0-11.776-9.6-21.333-21.333-21.333zM896 128h-512c-35.285 0-64 28.715-64 64v256c0 35.285 28.715 64 64 64h512c35.285 0 64-28.715 64-64v-256c0-35.285-28.715-64-64-64zM384 469.333c-11.733 0-21.333-9.6-21.333-21.333v-256c0-11.733 9.6-21.333 21.333-21.333h512c11.733 0 21.333 9.6 21.333 21.333v256c0 11.733-9.6 21.333-21.333 21.333h-512zM576.683 394.923v-18.219h-51.84v-142.037h-21.675v142.037h-52.011v18.219h125.525zM636.715 316.971l-52.864 77.952h21.589c1.579 0 2.688-0.256 3.413-0.853 0.811-0.555 1.408-1.237 2.091-2.219l41.771-64.213c0.64 1.579 1.323 3.285 2.475 5.12l39.424 58.624c0.725 1.024 1.408 1.877 2.261 2.603 0.853 0.64 1.707 0.896 2.816 0.896h20.608l-53.12-76.971 54.912-83.328h-21.461c-1.664 0-2.859 0.427-3.883 1.28s-1.707 1.792-2.347 2.859l-43.008 67.157c-0.555-1.579-1.109-3.072-2.005-4.437l-41.771-62.763c-0.768-1.024-1.451-2.005-2.347-2.816s-2.091-1.28-3.669-1.28h-20.053l55.168 82.389zM852.437 394.923v-18.219h-51.755v-142.037h-21.717v142.037h-52.053v18.219h125.525z" />
<glyph unicode="&#xe937;" glyph-name="pli-file-word" d="M810.667 0h-725.333c-11.776 0-21.333 9.6-21.333 21.333v743.168c0 5.248 1.92 10.283 5.419 14.208l213.333 238.165c4.053 4.523 9.813 7.125 15.915 7.125h512c11.733 0 21.333-9.557 21.333-21.333v-490.667c0-11.776-9.6-21.333-21.333-21.333s-21.333 9.557-21.333 21.333v469.333h-481.109l-201.557-224.981v-713.685h682.667v85.333c0 11.733 9.6 21.333 21.333 21.333s21.333-9.6 21.333-21.333v-106.667c0-11.733-9.6-21.333-21.333-21.333zM298.667 725.333h-192c-11.776 0-21.333 9.557-21.333 21.333s9.557 21.333 21.333 21.333h170.667v213.333c0 11.776 9.557 21.333 21.333 21.333s21.333-9.557 21.333-21.333v-234.667c0-11.776-9.557-21.333-21.333-21.333zM896 128h-512c-35.285 0-64 28.715-64 64v256c0 35.285 28.715 64 64 64h512c35.285 0 64-28.715 64-64v-256c0-35.285-28.715-64-64-64zM384 469.333c-11.776 0-21.333-9.6-21.333-21.333v-256c0-11.733 9.557-21.333 21.333-21.333h512c11.733 0 21.333 9.6 21.333 21.333v256c0 11.733-9.6 21.333-21.333 21.333h-512zM552.064 319.957c0-12.032-1.92-22.955-5.76-32.811-3.797-9.813-9.173-18.304-16.085-25.301-6.955-7.040-15.232-12.459-24.917-16.299-9.728-3.84-20.437-5.76-32.213-5.76h-59.904v160.256h59.947c11.776 0 22.485-1.92 32.213-5.76 9.685-3.84 18.005-9.259 24.917-16.341 6.955-7.083 12.288-15.445 16.085-25.344 3.84-9.728 5.717-20.651 5.717-32.64zM529.792 319.957c0 9.771-1.323 18.645-4.011 26.368s-6.485 14.336-11.435 19.669c-4.907 5.376-10.88 9.472-17.877 12.331-7.040 2.731-14.805 4.267-23.381 4.267h-38.144v-125.184h38.144c8.576 0 16.341 1.408 23.381 4.267 6.997 2.816 12.971 6.955 17.877 12.288 4.949 5.333 8.747 11.861 11.435 19.627 2.688 7.723 4.011 16.512 4.011 26.368zM730.453 319.957c0-12.032-1.877-23.040-5.717-33.024-3.755-9.984-9.173-18.688-16.085-25.856s-15.232-12.843-25.003-16.811c-9.728-4.053-20.437-6.059-32.256-6.059-11.733 0-22.485 2.005-32.171 6.059-9.728 3.968-18.048 9.6-24.917 16.811-6.997 7.253-12.331 15.872-16.128 25.856-3.797 10.027-5.717 20.992-5.717 33.024 0 11.989 1.877 23.040 5.717 33.024 3.797 9.984 9.216 18.688 16.128 25.899s15.189 12.928 24.917 16.896c9.685 4.053 20.437 6.101 32.171 6.101 11.776 0 22.528-2.005 32.256-6.101 9.771-4.053 18.091-9.685 25.003-16.896s12.331-15.957 16.085-25.899c3.84-9.984 5.717-21.035 5.717-33.024zM708.267 319.957c0 9.771-1.323 18.688-4.053 26.496s-6.443 14.421-11.477 19.84c-4.864 5.376-10.837 9.643-17.835 12.459-6.997 2.901-14.891 4.437-23.509 4.437-8.576 0-16.384-1.451-23.381-4.437-6.955-2.901-13.013-7.083-17.963-12.459-4.907-5.419-8.789-12.032-11.52-19.84-2.688-7.808-4.011-16.725-4.011-26.496 0-9.856 1.323-18.688 4.011-26.453s6.485-14.379 11.52-19.797c4.949-5.419 11.008-9.643 17.963-12.416 6.997-2.859 14.805-4.437 23.381-4.437 8.661 0 16.512 1.451 23.509 4.437 6.997 2.773 12.971 6.997 17.835 12.416 4.907 5.376 8.747 11.947 11.477 19.797s4.053 16.597 4.053 26.453zM873.045 272.981c1.195 0 2.304-0.512 3.243-1.451l8.448-9.301c-6.528-7.595-14.507-13.483-23.893-17.749-9.387-4.309-20.608-6.357-33.835-6.357-11.563 0-22.059 2.005-31.445 5.973-9.387 4.011-17.408 9.685-24.021 16.896-6.656 7.168-11.733 15.829-15.403 25.771-3.669 10.069-5.504 21.163-5.504 33.237s2.005 23.125 5.931 33.195c3.925 10.027 9.429 18.688 16.512 25.856s15.573 12.843 25.429 16.896c9.813 3.968 20.779 5.973 32.768 5.973 11.733 0 21.931-1.835 30.421-5.461 8.576-3.669 16.171-8.619 22.827-14.933l-7.083-9.899c-0.555-0.768-1.109-1.365-1.835-1.877-0.683-0.469-1.664-0.725-2.859-0.725-0.939 0-2.048 0.341-3.072 1.024s-2.347 1.579-3.84 2.645-3.243 2.176-5.248 3.328c-2.005 1.195-4.395 2.347-7.168 3.371-2.688 1.024-5.973 1.92-9.643 2.688-3.669 0.725-7.893 0.981-12.587 0.981-8.576 0-16.469-1.493-23.595-4.437s-13.269-7.125-18.389-12.544-9.173-12.075-12.032-19.968c-2.816-7.808-4.352-16.597-4.352-26.24 0-9.984 1.493-18.901 4.352-26.709 2.859-7.893 6.784-14.464 11.733-19.883 4.907-5.419 10.837-9.557 17.579-12.331 6.827-2.816 14.080-4.309 21.973-4.309 4.779 0 9.045 0.299 12.885 0.896 3.84 0.555 7.339 1.408 10.581 2.645 3.285 1.195 6.229 2.688 9.045 4.523s5.632 4.011 8.448 6.485c1.237 1.237 2.517 1.792 3.627 1.792z" />
<glyph unicode="&#xe938;" glyph-name="pli-file-zip" d="M874.667 0h-725.333c-11.776 0-21.333 9.6-21.333 21.333v743.168c0 5.248 1.92 10.283 5.419 14.208l213.333 238.165c4.053 4.523 9.813 7.125 15.915 7.125h512c11.733 0 21.333-9.557 21.333-21.333v-981.333c0-11.733-9.6-21.333-21.333-21.333zM170.667 42.667h682.667v938.667h-481.109l-201.557-224.981v-713.685zM362.667 725.333h-192c-11.776 0-21.333 9.557-21.333 21.333s9.557 21.333 21.333 21.333h170.667v213.333c0 11.776 9.557 21.333 21.333 21.333s21.333-9.557 21.333-21.333v-234.667c0-11.776-9.557-21.333-21.333-21.333zM661.333 768h-128c-11.776 0-21.333 9.557-21.333 21.333v213.333c0 11.776 9.557 21.333 21.333 21.333h128c11.733 0 21.333-9.557 21.333-21.333v-213.333c0-11.776-9.6-21.333-21.333-21.333zM554.667 810.667h85.333v170.667h-85.333v-170.667zM640 725.333h-42.667c-11.733 0-21.333 9.557-21.333 21.333s9.6 21.333 21.333 21.333h42.667c11.733 0 21.333-9.557 21.333-21.333s-9.6-21.333-21.333-21.333zM597.333 682.667h-42.667c-11.733 0-21.333 9.557-21.333 21.333s9.6 21.333 21.333 21.333h42.667c11.733 0 21.333-9.557 21.333-21.333s-9.6-21.333-21.333-21.333zM640 640h-42.667c-11.733 0-21.333 9.557-21.333 21.333s9.6 21.333 21.333 21.333h42.667c11.733 0 21.333-9.557 21.333-21.333s-9.6-21.333-21.333-21.333zM597.333 597.333h-42.667c-11.733 0-21.333 9.557-21.333 21.333s9.6 21.333 21.333 21.333h42.667c11.733 0 21.333-9.557 21.333-21.333s-9.6-21.333-21.333-21.333zM640 554.667h-42.667c-11.733 0-21.333 9.557-21.333 21.333s9.6 21.333 21.333 21.333h42.667c11.733 0 21.333-9.557 21.333-21.333s-9.6-21.333-21.333-21.333zM597.333 512h-42.667c-11.733 0-21.333 9.557-21.333 21.333s9.6 21.333 21.333 21.333h42.667c11.733 0 21.333-9.557 21.333-21.333s-9.6-21.333-21.333-21.333zM640 469.333h-42.667c-11.733 0-21.333 9.6-21.333 21.333 0 11.776 9.6 21.333 21.333 21.333h42.667c11.733 0 21.333-9.557 21.333-21.333 0-11.733-9.6-21.333-21.333-21.333zM597.333 426.667h-42.667c-11.733 0-21.333 9.6-21.333 21.333s9.6 21.333 21.333 21.333h42.667c11.733 0 21.333-9.6 21.333-21.333s-9.6-21.333-21.333-21.333zM640 384h-42.667c-11.733 0-21.333 9.6-21.333 21.333s9.6 21.333 21.333 21.333h42.667c11.733 0 21.333-9.6 21.333-21.333s-9.6-21.333-21.333-21.333zM597.333 341.333h-42.667c-11.733 0-21.333 9.6-21.333 21.333s9.6 21.333 21.333 21.333h42.667c11.733 0 21.333-9.6 21.333-21.333s-9.6-21.333-21.333-21.333zM640 298.667h-42.667c-11.733 0-21.333 9.6-21.333 21.333s9.6 21.333 21.333 21.333h42.667c11.733 0 21.333-9.6 21.333-21.333s-9.6-21.333-21.333-21.333zM597.333 256h-42.667c-11.733 0-21.333 9.6-21.333 21.333s9.6 21.333 21.333 21.333h42.667c11.733 0 21.333-9.6 21.333-21.333s-9.6-21.333-21.333-21.333zM640 213.333h-42.667c-11.733 0-21.333 9.6-21.333 21.333s9.6 21.333 21.333 21.333h42.667c11.733 0 21.333-9.6 21.333-21.333s-9.6-21.333-21.333-21.333zM597.333 170.667h-42.667c-11.733 0-21.333 9.6-21.333 21.333s9.6 21.333 21.333 21.333h42.667c11.733 0 21.333-9.6 21.333-21.333s-9.6-21.333-21.333-21.333zM640 128h-42.667c-11.733 0-21.333 9.6-21.333 21.333s9.6 21.333 21.333 21.333h42.667c11.733 0 21.333-9.6 21.333-21.333s-9.6-21.333-21.333-21.333zM597.333 85.333h-42.667c-11.733 0-21.333 9.6-21.333 21.333s9.6 21.333 21.333 21.333h42.667c11.733 0 21.333-9.6 21.333-21.333s-9.6-21.333-21.333-21.333zM640 42.667h-42.667c-11.733 0-21.333 9.6-21.333 21.333s9.6 21.333 21.333 21.333h42.667c11.733 0 21.333-9.6 21.333-21.333s-9.6-21.333-21.333-21.333z" />
<glyph unicode="&#xe939;" glyph-name="pli-find-user" horiz-adv-x="1048" d="M860.715 93.013c-30.763 0-59.648 11.947-81.408 33.749-44.843 44.843-44.843 118.016 0 162.816 43.563 43.52 119.424 43.52 162.859 0 44.885-44.928 44.885-118.016 0-162.816-21.76-21.803-50.688-33.749-81.451-33.749zM860.715 280.619c-19.328 0-37.589-7.552-51.243-21.205-28.16-28.288-28.16-74.283 0-102.528 27.435-27.349 75.179-27.349 102.571 0 28.203 28.245 28.203 74.24 0 102.528-13.781 13.653-31.915 21.205-51.328 21.205zM1026.517 20.907c-5.419 0-10.923 2.091-15.104 6.229l-99.499 99.541c-8.32 8.32-8.32 21.845 0 30.165s21.845 8.32 30.165 0l99.499-99.541c8.32-8.277 8.32-21.845 0-30.165-4.096-4.139-9.6-6.229-15.061-6.229zM502.869 207.403c-133.12 0-207.573 143.019-213.717 283.904-33.92 7.595-75.819 31.104-75.819 65.749v93.867c0 28.245 25.984 48.896 42.667 59.392v81.365c0 87.125 47.488 136.107 134.101 138.539 70.827 48.469 141.099 74.027 203.349 74.027 62.848 0 113.408-26.027 139.008-71.552 24.235-43.136 21.76-96.427-6.997-146.816v-68.693c42.667-8.917 42.667-45.355 42.667-66.261v-93.824c0-31.445-29.568-57.173-61.269-65.408-5.291-140.288-69.547-284.288-203.989-284.288zM593.323 961.664c-38.357 0-101.504-12.16-184.235-70.101-3.584-2.603-7.936-3.925-12.245-3.925-66.901 0-98.176-30.507-98.176-95.957v-93.739c0-8.064-4.565-15.488-11.819-19.115-15.616-7.851-30.848-21.547-30.848-27.819v-93.824c1.237-7.979 32.683-25.6 54.187-25.6 11.733 0 21.333-9.557 21.333-21.333 0-126.123 60.032-260.181 171.477-260.181 111.061 0 161.579 134.827 161.579 260.181 0 11.776 9.557 21.333 21.333 21.333 16.939 0 39.552 14.592 39.552 25.6v93.824c0 25.685 0 25.685-21.333 25.685-11.691 0-21.333 9.557-21.333 21.333v93.739c0 4.011 0.981 7.808 3.072 11.093 23.381 38.485 26.795 78.336 9.429 109.227-17.92 31.445-54.997 49.579-101.973 49.579zM21.333 19.755c-11.733 0-21.333 9.6-21.333 21.333 0 123.563 98.688 213.333 234.667 213.333h52.565l56.832 84.736c6.443 9.771 19.755 12.416 29.483 5.845 9.771-6.485 12.416-19.797 5.931-29.568l-63.104-94.165c-3.968-5.973-10.581-9.515-17.707-9.515h-64c-112.981 0-192-70.187-192-170.667 0-11.776-9.6-21.333-21.333-21.333z" />
<glyph unicode="&#xe93a;" glyph-name="pli-fire-flame-2" d="M607.957 74.624h-131.584c-94.592 0-146.304 42.325-187.776 76.331-33.536 27.477-59.989 49.152-101.973 49.152-6.485 0-12.672 2.901-16.725 8.021s-5.547 11.776-4.053 18.176c10.88 46.123 76.971 101.931 142.72 101.931 15.104 0 29.355-2.816 42.496-8.491 13.867 54.656-14.421 91.733-46.549 133.973-38.656 50.645-82.475 108.16-32.299 194.389 3.968 6.741 11.563 11.563 19.115 10.624 7.893-0.256 14.976-4.779 18.432-11.776 22.485-44.971 58.539-57.685 89.771-32.896 61.611 107.904 67.84 218.197 16.896 303.104-4.992 8.277-3.797 18.901 2.944 25.813 6.784 6.955 17.323 8.363 25.771 3.755 150.827-85.035 259.456-309.419 218.667-436.395 43.264-2.859 96.171 35.285 96.171 55.040 0 10.283 7.339 19.115 17.493 20.992 9.899 1.664 20.139-3.797 23.808-13.397 29.056-76.544-21.291-168.619-78.464-217.429 18.603-8.661 41.984-14.165 63.573-14.165 19.755 0 31.104 4.736 35.157 9.173 5.973 6.528 15.275 8.747 23.509 5.589 8.192-3.115 13.611-11.093 13.611-19.925-0.043-82.176-143.104-261.589-250.709-261.589zM219.861 239.147c39.125-8.789 67.797-32.384 95.744-55.211 40.021-32.853 81.408-66.688 160.768-66.688h131.584c70.827 0 167.467 112.64 198.229 182.613-38.229-5.333-99.499 5.717-135.381 39.083-4.949 4.48-7.467 11.221-6.699 17.92 0.725 6.699 4.523 12.672 10.368 16.085 37.76 22.229 80.768 76.8 90.581 130.176-40.533-31.744-101.845-45.355-139.947-26.283-5.205 2.688-9.088 7.168-10.795 12.715-1.707 5.589-1.152 11.563 1.664 16.725 46.123 84.224-24.747 260.309-132.139 359.083 22.144-84.907 5.333-181.888-49.365-276.053-1.195-2.133-2.688-3.968-4.437-5.419-41.771-36.309-97.792-32.427-134.955 8.96-10.155-43.093 14.208-74.965 43.477-113.28 36.992-48.597 83.115-109.184 43.733-200.021-2.645-6.101-7.979-10.581-14.421-12.203-6.443-1.579-13.269-0.085-18.475 4.139-11.733 9.429-25.515 14.165-40.747 14.165-34.261-0.128-70.101-23.509-88.789-46.507z" />
<glyph unicode="&#xe93b;" glyph-name="pli-firewall" d="M512 0c-235.264 0-426.667 191.403-426.667 426.667v448c0 5.888 2.432 11.52 6.699 15.488 4.309 4.053 10.325 6.229 15.915 5.803 206.208-12.288 299.563 36.821 389.376 122.155 8.235 7.851 21.163 7.851 29.355 0 89.771-85.376 183.509-134.4 389.419-122.155 5.845 0.299 11.563-1.792 15.872-5.803s6.699-9.685 6.699-15.488v-448c0-235.264-191.403-426.667-426.667-426.667zM128 852.267v-425.6c0-211.755 172.288-384 384-384s384 172.245 384 384v425.6c-196.267-7.936-293.803 39.893-384 121.429-90.155-81.664-187.307-129.28-384-121.429zM490.667 469.333h-298.667c-11.776 0-21.333 9.6-21.333 21.333v297.088c0 11.563 9.216 21.035 20.779 21.333 137.344 3.499 242.688 38.485 281.813 93.568 5.376 7.595 15.019 10.752 23.893 8.021s14.848-11.051 14.848-20.352v-399.659c0-11.733-9.557-21.333-21.333-21.333zM213.333 512h256v327.253c-55.509-41.216-144.896-66.688-256-72.021v-255.232zM533.333 99.243c-5.248 0-10.325 1.92-14.251 5.461-4.48 4.096-7.083 9.771-7.083 15.872v284.757c0 11.733 9.557 21.333 21.333 21.333h295.68c6.144 0 11.904-2.688 16-7.211 4.011-4.608 5.931-10.709 5.12-16.811-20.693-163.883-147.115-285.653-314.581-303.275-0.725-0.085-1.451-0.128-2.219-0.128zM554.667 384v-238.933c144.171 24.832 226.688 132.352 249.088 238.933h-249.088z" />
<glyph unicode="&#xe93c;" glyph-name="pli-folder" d="M1002.667 576c-11.733 0-21.333 9.557-21.333 21.333v128c0 70.571-57.429 128-128 128h-357.333c-11.776 0-21.333 9.557-21.333 21.333 0 33.323-52.864 106.667-109.355 106.667h-213.333c-56.149 0-109.312-58.325-109.312-120.021v-264.021c0-11.776-9.557-21.333-21.333-21.333s-21.333 9.557-21.333 21.333v264.021c0 85.12 72.448 162.688 152.021 162.688h213.333c71.381 0 135.040-72.32 149.12-128h338.859c94.165 0 170.667-76.544 170.667-170.667v-128c0-11.776-9.557-21.333-21.333-21.333zM874.667 0h-704c-1.92 0-3.797 0.256-5.589 0.768-4.864-0.512-9.771-0.768-14.848-0.768-83.584 0-150.229 66.603-150.229 148.437v448.896c0 11.776 9.557 21.333 21.333 21.333s21.333-9.557 21.333-21.333v-448.896c0-58.325 47.445-105.771 105.771-105.771 60.16 0 107.563 47.445 107.563 105.771v470.229c0 82.347 66.987 149.333 149.333 149.333h469.333c82.389 0 149.333-66.987 149.333-149.333v-469.333c0-82.347-66.944-149.333-149.333-149.333zM254.251 42.667h620.416c58.837 0 106.667 47.872 106.667 106.667v469.333c0 58.795-47.829 106.667-106.667 106.667h-469.333c-58.752 0-106.667-47.872-106.667-106.667v-470.229c0-41.344-16.939-78.848-44.416-105.771z" />
</font>
</defs>
</svg>
